<mxfile host="app.diagrams.net" modified="2024-05-22T14:12:07.411Z" agent="Mozilla/5.0 (Windows NT 10.0; Win64; x64) AppleWebKit/537.36 (KHTML, like Gecko) Chrome/125.0.0.0 Safari/537.36" etag="36thHP7KLAQ5eGUWYXoX" version="24.4.0" type="github">
  <diagram name="Page-1" id="c4acf3e9-155e-7222-9cf6-157b1a14988f">
    <mxGraphModel dx="1726" dy="1101" grid="1" gridSize="10" guides="1" tooltips="1" connect="1" arrows="1" fold="1" page="1" pageScale="1" pageWidth="850" pageHeight="1100" background="none" math="0" shadow="0">
      <root>
        <mxCell id="0" />
        <mxCell id="1" parent="0" />
        <mxCell id="Xce9fqfD_rUZ55vbkONO-6" value="" style="shape=image;verticalLabelPosition=bottom;labelBackgroundColor=default;verticalAlign=top;aspect=fixed;imageAspect=0;image=data:image/png,iVBORw0KGgoAAAANSUhEUgAAAk8AAAEECAYAAAAxsNBcAAAAAXNSR0IArs4c6QAAAARnQU1BAACxjwv8YQUAAAAJcEhZcwAAEnQAABJ0Ad5mH3gAAFzNSURBVHhe7Z1tbFTXue+fZOQBGzxRGkNvZzg446tbeaSD0iuwFXQCKgznHqUfQJyrNAXRSAkEwbc00v0QLNqTIJMPV0rzjYiYREoJJI10EPnQqLcdiHArKpvoKqKSR6rkiXPw9Ia4ibDBhkHTc59n7bX3rL1n75m9xzN+wf9ftMnstddeb/tl/f08a6390Pe///3/bG9vJwAAAAAAUJ+H9f8BAAAAAEAIIJ4AAAAAACKwZMRTsvsWndn2DZ3ZPKdDHly2DvyJfv1b3gayOgQAAAAAy4UlI56KE4/Qwc/aqaj3H2SuDj5JPx7M6T0AAAAALCfgtgMAAAAAiIBrtt2WzDd0tIt/TK2l47MlOrqxREl1JEbXxtbSqamY2lN08PHMHCU7ypU4X7bTxYm4j/WoTHsyt2l3V1nvS9wYJbtidPwzY6ZfxxydyJAT5pRHmG1Xlqko+Sa7bnNcXYfZOH3MdSBOc3cHUfHLR+j4hFWfLZlbnI9dNj421U6nJtqpOKsDotKdpZ8NDNLWbr0/kaNfDg7Q1Qm9L2wfpF9vu0QvD++klweytEEFFujq4DH65ZWC2nPoPsTpHXLSu3GF06JB2jD8JMe1woStA+fpZ9vTek/iDdEbZ4fohjdf7S4UC9hHdIhePnCINnDaN87uo5d/VVBuxZ9tV1EUEu+XE4fojdMcT4fRxBD9+PCQ+tmsfF10H6a33nqRpMrDJ/vo5LAVDAAAACw21UsVsOA4w4KjyGLl1JgtIMosMG7TnlkWVVpwSFiyI+YSGErs0Fo6OBbXIQKLnW23Kfkliy9H4HB63SxsuuKWILLxiCcZByVxTvF+RRiFy1fOPcHnHrfrwGJLBNwW/nlt7BG6qM9XeXRIXSviK9k1R0e7y3Txs7V0TYeFhoXOGwNp+sgUS0pMHaIbg/voIztMi4kbLKycuFp0/cOwKSbS9LPfniQyRVU3h7FgobMV8bThp+fp5Y0sWgZzdMMKog3bRaBwWQ6L2HIjAumZbk6P839jkIUO5/PMaclHl1GVj+jlfxlw0hOeOf0n2mqUr+n52kA8AQAAWKIEuO20YHEEilieeH/jnLb2CG4BI1wTaw2LFJNkN5+jrDymZYjT02Oc/BGxZokaEVJui1KYfFkobYy56zAbo4sirjr0voLjdXE8QzgJYnk6zh35HhZQUdl6IEtXvVYmsTydHadn+JgbFk4iMOy4ykI1RCQWGR1E1KP+vTFhiymGf//ysGl1YgGybdwlYASxAL18lgXPTytWIRfDx+hlJWCEApfFEDB87kcTWXrGsECJMNzazWU2hF3T87WZOE1Hnu6jp3mDcAIAALCU8BdPU9UuMBFUxdky9TniQyw5eoacvdkuMgNxrxXvGO6+upTo6OZblpXLZcGyCZFvB++zWKqyGs220zVTeEk83k6YaZlpeoRgfbL05PZxt7vK5solurp9J23VuwoJ0z8dJoZYTPVUXH4ssH55eIg22DP0fnue3jhtuASF7iz9A29vqOOeTVyCGy0B5uU/TEFWRYGuDhdYDB7S+yIMWdSZZW5JvgAAAMDSpsEB4yxgWOBsoXY6PvwdOmhvvuOdIiLijIWPuNmqaUG+LKhcaZmbr3hbBMQidfhJ+vG/yLaPXh68RE8OnHcLKBZdL6vjPluDM/tuXMnRDRZHz6h80iwMiQWVJ60W5AsAAAAsZfzFU1e1BUksQjLWaFQsNx0lS8B43F3kcacJRRZCW9aV9F4IZuN0SsYkkTX2ykXYfDkNcePJ+CYXHXO0xXTbcbxrXK+KNW2+5OhPV8T6pHdNxOrktTR5LVGCco2Nu91+XlhM/WkiTc/Yg7R5/ypl3WKqGbAw+uhKmrZKPtu5XGpfHxNalS/TfeBD+uSTUfrk2C4dAgAAACwN/MXTbJmObpYZbXqfZAzSHNHYWku0sCAqspDZ48xQswaAn5BzdIhNcaKdrsmsN2M2m1iVVPxtt91ixkAGdX/cwXHMcUeh843RxS/FSmWE83ky884ttDjeRIx2i5vQLJ9K91a1eAvB1bND9A8Hqt1qPzvQQx+d9VpisvSM6YKTeANZ+o/ByiBtGZD9a2OmnYLjPbm9QFedWXkFTnuc0zpfEVQKFj7q/MYX4xRL04YDh7j8WbrBv82xTa3Md9tT4vIbp/ff/70VAAAAACwR/GfbrYvT8a8tsWGJDxkw7lmqgOOdcI7b0/vJEl0y4HzYmKkmgofF127HFcciSOIbFiQ1O24jH7eXJNCz9Gzr0bWx73D+/CNCvv5LFdxiEViZbafomFPLHzhCTsZLqXQbdNspERS8VIGzFMCVgbpLFajZbDREVzeygGKBouJNiGg5Rh/VWdJA4l0dHqJf/qoi2rzLEDhMVJYecCOz/c7T1qCB3UKz89Uz7ej9Z+kIizMAAABgKREonpbMeJ8mI2OmqsQTWFKIy+6tp3J05MhpquW9BAAAABaDBgeML0/EErWb4ta4LbBkmTj7LD0N4QQAAGCJ4r/CuM2Ud8HLZYZY0cxxS2ow+lr3cgUAAAAAABGodtsBAAAAAIBAVpTbDgAAAABgvkA8AQAAAABEAOIJAAAAACACEE8AAAAAABGoKZ72bP7GvcI3sOg+RG/89rz+5huweeb0n+iNn5orjYNWgHYGAIDFBZYnsEBk6We//RP9Wm/o/AEAACxXHuylCjrm6ESG6Lj63AuIjFjYBohe9v1sS+NYn5w5Ri//yvN5mQiI9cVt+cvRy/9S+SbgskDa9/Qh/WkemxqfwWk2Lbq+AADwoAPLE1iWfHT4SfrxvzxJv7zCO1cG+P9Zesbv23lLmYkhFnxSjwG6yuLvl+r3AgknAAAADeNjeXJ/kLf45SN0fML9QWC1ard8aJfj7u6Qj/OupVPOh4Rj9PFn1rfjnBXL+fjxWT6+scaHhoUOSYPzdj7Q67MiuLFquHws+CLN0dHuOUpKOZyyuuvgxvPR4pBUWzoY34/aykeBD9E/dOuP+MrHfs8O0Ue/yjlWEe9Hcq8OsgiY8Fgh7LRDpBea7YP064Gsq9xiBXrjgLjQTIuHuNgGaav8rEI6eensbdxxb5zdV9ei1AzLk4X10WKS9iOu27ZL9OPByseIFXadGWnnj+gQvXyA25mvpausYeOFuR5GWv5tzbDgq5RV2nAn/cnVrl4itLPnQ803OK+r3D4bhrXYjHR9NfpjzZLk8Mk+OjlsBQMAwEqkptsu2X2LjhILH1M8CeIO2zxniSLubI9uFqHCouSztVRcd4tOdMXpoO0q02KnONvOQqid/y+BZRZWt2nPrJG2crGV6aIplpSYmqOiz4d8RZjt6eBzlcDidDnNPVwO10d/W+m2C3R5cKfaXaAbhvVAiSUyO0tGdbB8vsfVJCJt67DZMYZMLywB5X7mtIgQj9UjolsnrChqmnhytWFtASJt9gy3I03k6I3BIY6f5jqfrKpz/XjhrocSSttyqu3M62uHu0V3GPFUoXb7iaCU8h5joaSPs9D72QBf37O2eNJEub4QTwAA4NC4206JobgSL6NTYgWyRE/x6zgLGS8irGzhJIjlifc3zmlLFIuh7pKThoMIIxZXu/mYLyLelHASYnRRW7wWF3fHKohl4gZ3YC6uDHFn7HE1cWe2tTtHH7k6xZDprUC2bstyO17S4iRHfxLXXa2B6MMsOJQgEmqMLaoZL9z1uPGrIbrK19PtSuTyHUir+K2jR/17Y8K4h/j3Lw97hFNUJk7Tkaf76GneIJwAACudeY15qhZJAUz5C6ribJn6lIuuRH1dMZr0Ez587rWukq8LrnjHYxFbEqTpGf4r355VpraBrGdQsFCgq8MF2nrgkN5nMSBuIhYDbutD2PRWGEqYsLA5W7H2XB3O0QYRVAH8hykoalA7XtjrwSL4rPv6bvgpi+MJFs3zETF1ybFQGqINA3b5ztMbpwcdFx4AAID5gwHjTUVcPOdpK9kDgfXGHbzpurG5cYXDu7N6LFWantxuCYAK0dJbSWzYLoJF2sctYmRMUuvW34p4fbX1yRrfxudqq1PYayd5NVSXCRFQdvn20cuDl+hJFnwQUAAA0BwWRjx12QPFTTisI0ajytokrj+xPqkDbsTqJNYnvbuk4Y5bdayDns7UzzUkKCtEmrZuTxNt97FKRE2vYViILLOOdeu2tBo07QgYvb18lo9Je7aCyNejYn3a4Hd9FwoWU3+aYPE2j3bpPvAhffLJKH1ybJcOAQCAlcvCiKfZMh3dbM2Is5AB43NEY2sdd961iXZKdhsz7QQZMN5dpo8n4jqgATiNPXaaHZLvLTqz7baPmGsCEwX6D7F8OJ0UC6OfDvqs5VNBuZq4c/3ZgSzd4N/uTjl6erTtdXpLOrlPPqQDfoLITlMfk079jcCZV4wRVwYeb1Uuq8HWuw1r1UONDSvQVXtAtIFY82hbi9yaDVwP2/r0xoDP9W0BMpj818ZMOwWX+cnt/u0V9vpue0rGUo3T++//3goAAIAVTNVsO2d5AT+m1tLBr0vOUgH2tH/S56ilAvi4zMRL6mPXZLbdurgKt5YyEBpfqiCwfLPtlRl+BknO38y3ONVOp1iMVQavN4jqEH1mKm3nztQYA3PjyhC9cZbjqQ7Wbxq4Nd1+a9AA5qjpieg4tou6paM78iyd9bGKbOAO/2UWayrNiRx9NMgVUbPMWMzJtH/DOrKB83/Zyb+g82cRoNNVM81cg6INjOn4YeM5BNVDzbAzxjUF5mG1jdTLN19jCQEhsHyeeNGvryVo3jgwXjWzUt1DtYSwcU+EbT9rJh4Lto0soFjkWddYxoYdo498xFO966vQM+3o/WfpyNlxHQgAACuX1q8wrsXTQZmZ9yARJJ4A8FC9/MTyQlx2bz2VoyNHTjffYwwAAMsQDBhvEDVgmf+iB6AmysXoXX5ieTFx9ll6GsIJAAAcWmp5qnKxidtvmVqgvG4T5d5w1gICwMR/BW+vSxQAAMDypPVuOwAAAACABwi47QAAAAAAIgDxBAAAAAAQAYgnAAAAAIAIQDwBAAAAAESgpnjas/kbOtFd1nvAQdZ4+m2D3x17gJH1jN74aYs+jdIElnr5AAAALA9geQILhEzfr3zEFyIGAADAcuXBXqqgY45OZIiO+3y2BYSgRauoW58QOdb4itu+nzUJ+LxNK8Dq8gAAsKKB5QksPyaG6OV/eZJ+rL4jJ9+Tk98LJJwAAACseHwsTyU6uu02bdF76mO/E8YHfOVbdfJh4Nk4fcxxd3dwnKm1dMr58G+MPv7sEbo4a6wwzsePz/LxjfP/MLCTP3Nt7Dt0keboaPccJaUcTlnddXCjP1is98Ii42Wqxjh5PxordGfpZwOH6B+69UdZqUBXzw7RR7+qfFHfu1q5Wnl6wmNNsdMOkV5o7I/qGuW2PlorLjTTcuO/QraF9+O37rg3ztb/htu8LU8OkvdO+pPPx3grRChf9yHV1lv1db5xRdIdpA3D9srgUdpFoz+qK0kOn+yjk8NWMAAAgOVLTbddsvsWHSUWPqZ4EsQdtnnOEkXc2R7dLEKFRclna6m47had6IrTQdtVpsVOcbadhVA7/18CyyysbtOeWSNt5WIr00VTLCkxNUfFMUuMmYgw29PB5yqBxelymnu4HGTGbaXbLtB1wyKnu+D6Kr0SS1T58r1CCRk+3/Ol/eqPyIZMLywB5X7m9HmiQY/1JqJ7KqwoWljxVKF2vmlO6yS3wTEWSvo4C9afDXC7nPV8ViVKu0A8AQDAA0fjbjslhuJKvIxOiRXIEj3Fr+MsZLyIsLKFkyCWJ97fOKctUSyGuktOGg4ijFhc7eZjvoh4U8JJiNFFbfFaXNxCRxBL0Q3uiF1cGWKhkqVnDAuUdMrVH5ENmR6YJz3q3xvmx5759y8Pz/N7dBOn6cjTffQ0bxBOAADwYDCvMU/VIimAKX9BVZwtU59y0ZWorytGk37Ch8+91lXydcEV73gsYkuCND0zcN6ZVaa2gaxncLNQoKvDBdp64JDeJ/V7w5VLHitK2PTA/MixUBqiDQN2O5+nN04POi48AAAAwAYDxpsKC53T52kr2QOa9XbWf3zSjSsc3p3VY6nS9OR2YkFluuKipQcspM0aWoNrQgSU3c776OXBS/QkC1cIKAAAACYLI5667IHiJhzWEaNRZW0S159Yn9QBN2J1EuuT3l3SsBBSQmfQI248bjeHiSH66Eqatm5PE20/RFvVvj4mRE2vYbK0AQKhGhZTf5pgASvXp0G6D3xIn3wySp8c26VDAAAALHcWRjzNlunoZmtGnIUMGJ8jGlvruPOuTbRTstuYaSfIgPHuMn08EdcBDcBp7LHT7JB8b9GZbbd9xFwTmCjQf4glyelsWRj9dNBnTaIKYmnacOAQ/exAlm7wb7dIip4ebXud3pLO+pMP6YCfILLT1Mc2sGh7I3AGGWPElQHUW5ULcbD1bsN69WgyMpj818ZMOwXX/cntBbpqDyA3Cdku256SsVTj9P77v7cCAAAALHuqZts5ywv4MbWWDn5dcpYKsKf9kz5HLRXAx2UmXlIfuyaz7dbFVbi1lIHQ+FIFgeWbba/M8DNIcv5mvsWpdjrFYqwyeL1BgmZcbWdxY4xJunFliN44y/GU4PGbzi6zvMQ1F7DIY9T0RHQc20Xd0mEfeZbO+lipNrAAe5nFmkpzIkcfDXJFBqylGNSyCYb1awPn/7KTf0HnzyJPp+tddsHFlcqMwLDxHGrVQ9q+loA02jJsvtZMvCG6upEFFItVq204nbPH6CMf8VSvXRR6ph29/ywdOTuuAwEAACx3Wr/CuBZPB2Vm3oNExGn8YOUhLru3nsrRkSOnm+9pBQAAsGhgwHiDbNiepQ0TPu4cADQTZ5+lpyGcAADggaOllqcqF5u4/ZapBcrr/lFumsEhzHoDAAAAVhitd9sBAAAAADxAwG0HAAAAABABiCcAAAAAgAhAPAEAAAAARADiCQAAAAAgAhBPAAAAAAARgHgCAAAAAIgAxBMAAAAAQAQgngAAAAAAIgDxBAAAAAAQAYgnAAAAAIAIQDwBAAAAAEQA4gkAAAAAIAIQTwAAAAAAEYB4AgAAAACIAMQTAAAAAEAEIJ4AAAAAACIA8QQAAAAAEAGIJwAAAACACEA8AQAAAABEAOIJAAAAACACEE8AAAAAABGAeAIAAAAAiADEEwAAAABABCCeAAAAAAAiEFI8Jah/b5YyCb0bSNh4HhIZymYzfHZInPipxvJrKQnKZKOVKdW/l7JyQtR2sGn0vFQ/7W3kvJZSr/3kmvfzvxUSmSzt7ZeQ6G3f2DkRWajr4+QjddpLqkmi0Gg5AQBghRF77LHH/q2trU3v+pPIPEVP3MvT8PiMDvGnVjwRCLv6M5TJ8JZ6iIqFKbqnj9GqddTDL3pXmHQcGaL8pJ2WdAhP0bq/FWiK7Pj3qCvTRaUChzknMtIJ/Ggb/UDyCtgSM3lyko5CVbkYV9gqWmcVzl0mG4nbn3DVNZHKUFepQIWZRHU7GIhIeGrd36jgTdiv/QLbIEEz+UlSpU+kKNNVokJVfpZASQTVYT7Mt/34PkiZdWBWreuhnlVTfH6p6lxpsx9t+4GnDazNugfq5RcO1/3tpK0P+l0f1ca7qN8oT9W5VddHnoEf0bYfBJxTsvOZoURPD62aqr7HIz+HPgTehwAAsEIIYXniziqZoMnJSb0fRHA8eWH30whduHBBbSMzvZSN/GdxRKbzlNP5+W0j9aqz3Jkeq65/Lk/T0zOO6Fg+iNDYS3vVJlYnYz+boU4dy4/psZxT/1x+mm+Lyn6z7gHv/X3hwghxAUNYfqYpn7PPqWzB5ZqmMZ/4tc+p0KznsLMzQYnOWq0OAAAPNvXFU6qXeilf/+UcFC+Rod7UJI0YByZHRmiS47fUVdJKxFLidOa8VXVACerNyrEAd1Cis6rDT/RmWQj08pmtI5FKUmKGBYTeXzQitx/fP4ZQcG25scUVgz73tyov76dSrfgDwXQzRnA5Nus5VOnw/5fz8wsAAPOkjnjilzO/KSfzY3o/iBrx+C/UxOQkdycmvD+ZkEO1cXWyWepN6E41jMhI8F/VZgdtbvMd1zFpWhl4q1KMtkUhR2MupSLt1Ml176ReT8+jLCJiGdL7fkT5i1+sDN56Z3vDWBBtbAHjv83LcNhg+6mxTUYZ1DgxG3WvyD2i932Q9nuwYBGemKHpMGp4Ps+hQ4r6s0kqyrXJFSnZ6rFiAACwRKk95in1BG3rKtLo57XHQNSMJ+M2+AXvGuPCyDif1ENFa9yE75gdPo/y/JIeoXw+z1uRHkp10dQffkPDhYf4r3qJHzDmSdLrmqI//GaYPlfnerY6YzpqIuXyjDfJpLgHmZmsM2ZHXE3baNXnv6GR/N9o9RNZemK1Vf9wY544X1YsrB9d430UPu03M+muc/GhFPXEC+5rFDjmaYaFsPt87+YdSxOaRtuPxdGPugqu+2H1E31qDNxMood67n2uxOdD1o3hM37Jar918ZKnfSW/DItZqyzOPRmWe1NUSvSzmDTvcb7WuzJ8nUasdvIdSyRjt7jcnHelLWQs1wxtsMc1Sbtw+u7rc4+Tk/FMUkd7/BdRRsZP9XTRKhXfZ8xTo8+hxho7toryF/5A43JQ8smXqOdHu6g3apsBAMAyp6blybYm1fvDNmw8LzOh/mReYnitJlXWExmX4rU4iXDqJxqxx6ZYcYrJbGgLTiLTS535HJ+fUsIxEokM9fUS5UejX6Om01D7zR9pvxTnLeN8lNvJRWXsUa6BjCflupJpJTWvdS28Y55YbKn66/3ABLzWIu3WrGO5DKLWc2hb+/poVJfPxMp3lI9WWQIBAOAB5qHvf//7/9ne3q53DbjDzWY7aZRfmDVfyPXi6eN514tXxEQvzdidpMTpIxrNGZ27uGGqlIV0NnwO2fGnqddMx0blWdu1J26yRjpKC2usSbCLSJez0eS9uNpQ2o7Fqtmefu1no9tixq8zlzbunaGcfV6IdnPTaD0baz/pyMX1aGNfQxXemWexMcPpqobwuR90+7naUh30P6eZ+F4fzzPgh/f6aMQlm5qU6+m5F5x8+C7h9u3MG9e8qt5CiOcQAABAFYHiSV7QvTP1BUaYeM4sH/0m9+5Hfmk78QPE06ISojNWHVm1SPEXdD6drBKWYtzwdprVnWx/qobACeicF5dmixlpP7clSImtZFHXe4WIJ6bpzyEAAKxQ/MWT6tybYHUysDpyvSOuG/OtXuulrfNw/8W82DRmOREs68lMRfg46DRnzLap0cGaHatP+7kFQgCB4snTKTedxttP8FqgKogbySyzlY9XRAh1rVURqaTn02K+97cl6vw9sLr+nZ7ro0RzgM9WluYYJepT+fiLJ6Hh5xAAAICDr3iSF2yzrE6haJZ4UnEXyu3USIcb3JlbNChaGu30FlU8NdJ+1j3nspaYqOsvs8GipNt4WUxqiqdGCbw+ATj3QbB4qon3Plqw5wkAAJYX1QPG+YUp68Hk670Bw8ZbSPwWhqy5LfSLfpomi9PcJ/pZHKQT5/Cq6eQALBJL/nkCAIDFocryJH9By8yaetaksPFC4f2L1yTEX7/zG/zdCJYFKdjtVKdMAXVquB612q8WNS1PQS4lCzXDrGGVN7/2U1aeUG67MDTR8lSrQkzkNltsyxMAAABfgmfbAQAAAACAKkJ82w4AAAAAANhAPAEAAAAARADiCQAAAAAgAhBPAAAAAAARgHgCAAAAAIgAxBMAAAAAQARqiqc9m7+hE91lvQdAbTLvXaXsC2m9BwAAADyYrAjLU7L7Np3Y9g2dsbfNt2lLhz64gki9dpX2DvP22k4dUoud1C9x9bYgomjHoJXfe4d0wFJnJ73+4R9pZPQEZXUIAACAB5+FWSSzY45OZIiOf7YIi3FK3pvLdPGztXRtVoctIxIvnKPs89XCZfryGRr9+VD0laBFoOzI0YWfX9IB9ZEy9NEA5d4p6JAWkj5E2VeJcs8N6YClS8/hs/RB+h3qfyV8WwIAAFj+PPiWp44yJWdjy1I4CdPv7LeEzuUBurBtq7ONfpGmvmVjoXlwGS8sgKAEAACwpPCxPJXo6LbbtEXvFb98hI5PxPSepus2ncmUiGbb6eBEmU7w76SEz8bp1Jhp4XGn5YbjDnNcvSdsydyio12VMVbFqXY6NdFORVP42Hkz18a+Qxdpjo52z1Gyw1NWZXHicGvPhZx3akrvdHAZM3I+iywVwELry3a6OBGnoto3KdOezG3a7ZRR4sYo2RVzWdVC1SMKAdaizHvniH6xn8Ye5+PiiiucoQvaYlOxWBUo/xzHsft4nVbucpb6+Bzra2wFmvz5AI1c9hcCtS1P4t4bdL6DN/3u/mALVfoQ9b96kFLakDbNgrBIg9R5eSvnbYXZlqfRT1kcPq/LV7hEI78YoElPsqnXzlH/jopVTlnj3h2iaTOe1Fe7KSd/vpXydIjTPUgJPq1mWUMglqeTdJx+crrxNAAAACw/arrtkt0sAmhttXgSlCtOREyMLmrBJPFPbGQhwaLIJTxCuO1UXh0sMsYqoiXZJcJIu9x0mM2WzDe0p4PLpQQbCxMRNptvE409Qhe9Yqs7RgcD82bRxOmYwkbSlnof5LJUsIRg8su1LITsMpZpS/dtFkpxJ/2o9QiFr3hKs3gatMST9N0B7i5HYNn9uxYT0yxI8rYgSbMAepVFzKf+YiKs2652vLQSWWSKtDSHvcrle9cjnt5jcWMIJiUEf3hJ1c12U6q8Hh+iUW4TJ2yHCKM0i0U+T4fZyHiv3sc5sS8uaXenp/0aAOIJAABWJvNz23WIFadiaSpOrKWPZ8vUF3kwNgufrphLcAhisTk+QbQnaMbfFAs7JZwEFnGfeYRTKNzCSbgmVqIOd55JsW4py5ZZxhjHfcQQZg3WowESLxyi3i+GGuz4WTiJwLDPVULlDNHzh7QlqhVYFqKZL4wCFwo08pwhnBy4PEb5pt8ZoDztdCxWklbvDwsu4SRMXx6i3LtEvUGD2z9lYeeMEyvQmGmRAwAAAEIyP/E0G/eIFR8LVRg6SpTkzTUjzt7EJegRMjbFOw3m50Jccbeq89RHbaQMdfNrsB6hEIuRMfut7/EcC4EGBypfzlVZZqgwRMVC2hAozUYE0RB1vmrX4Rxl3xv0z49Flbt8HoWTzlJneidljfZwNnFFPu5fiZkmjk/Kvn6WPnixQG/D6gQAACuOpTNgfLadjg9/hw76bS73WTMRV98t2kKevH3HO4WkVfXwDBgX4RR5pt1iIxau5+w67KfcL3KUevVcY4KtcIZyRnu4tkZFZQRyrxygn7ydphcPt0xtAgAAWKIsDfE0G6drVGrA3TdPOkqWcPK42cjH9VecjdGWddZA9UAWqx6B7KROv759R9YZ4O2QPkTJdKFqUHZLYTE1+UWaeo1B36Eo5Ph6mW48AAAAYOFYOPHEQmWPLSo6ympG2hkZgK0CYnRxIka7N9+iPcYsNWtANsfTs+uaDguiopTLydMaAO43S6840U7XumRwuFE+qYdagNNedHOR6iEUxmkmvZMyWlDI4OmsMQvOzU7qNV1masD4Tpr5+UDLrFkywHvva4fcgofzTe0oUDFgll8wBRp7t8B1OEcZl/BKU0rlE2YRUAAAAKAxqmbbqZlmXXrHy5SegWYsF1BZcsC9LIFrOQAmKcLDGUvEokVN34+7B2t3zKllA5zVv2V9Jh3PJrB8smyCOaPOVUaTGH1sDizneM5SC4xVLqKjSkB5llMQocXl2+2MXdL18FquQtQjLGqmmWeRzKAp9okXBl3T+2U2Hb16lXr5dJmmP7njKvXv4GOXB+ouVSCz01RcP8SFqF1jYeNZM/GGqPj4IUqy4LHKWKD8uwM0ZuerZwJaXKKRbTJrzr0UgtTDnJlnLn2gxkp9OkQj71TcdoHlM5Z1aBTMtgMAgJXJwqwwDsADCFYYBwCAlcnSGTAOwDJj/PQ7lOs5gW/bAQDACgOWJwAAAACACMDyBAAAAAAQAYgnAAAAAIAIQDwBAAAAAEQA4gkAAAAAIAIQTwAAAAAAEVgk8ZSg/r1ZytT9hH/YeG5S/Xup339pbYUcz1YlmqBMNnpejZ9Xn0Qmq8uZCm6HRIay2Yy16KSNE9bcskl59tZq2FC0rr3mXW+/tgQAAAA8LMpSBUoUdObpwkjVt/1d+McTIdHv+9mR6XyOcmPTShylJi9QUPJyvHfGiltBOtw+otEcmcGqDL3+3enkiOThf15oVIfd6+mwJ2nkwgjNcN59NMrl7OQ699JMzicPOV9lP1b5tIoTNkmphstmCZCAqleYzlPOzDvV7y+wnHjzbC/f9K32mgxZb7mmVrt6Dvq1pSL4nrPQ+es9AAAADzaLIJ6sTrkzHyxuLMLGszA7RD/xVMsaZYkuqtup+3e68xQDXqQD752mHBe+kl+1eAqqjxJ0M80QT9WoPFnMusRSGETwpCa1CG6CeOqdMcogwiZFky0XTzoPHQIAAGDlsvBuu1Qv9VK+viAKG0/T2VnbRCKi4sIFa5M0RTDZ+5VONEG92b20twFXYXNgYdHHImmyUulEb5bLU231cOqTy9O0WHWMurUCERz9qWkWFb2Ujei6SyQ6aXpmRu8BAAAAy5sFFk8sDnr5L/j8mN4PIky86nFAM9M+ZgYvqX5lsUn09vq4YaYpnxMR4m+xqCfQ5odYZLKULOZcAsgSeYto8RBLz969lE0WWaDlKMftM0JWWLjxTwlKJYmKkyGuTcPIvcDlqXJ/+iPXMdHZae3o+qkt5PkAAABWNgsrnrQ1KV9PCYSNVwNxMUmHaPbvKowDxGqTy4srzG/geBApSonoSqZ8OljbYhUlvQpi1RFrlwinKldSPVgEiGVHpICVTpNEgC0qxEWmLFwVV5Zt9bJFVE0NJddyJu8Ro/Nrr2pkzJG2wumQQBIZYl3O5eLrKfuTI5YFL+z5AAAAVjwLKp5sa1K9DipsPBM11scQW04Hr8LEqqPH6+iw6THLojMjbrEQFpREppdS3NGOzLAYqIpuW6xMF2A4RNBlWaBI5x9ZOEm9uDDT053UyyLEqlOTRIAtKmqMb3K3sQ8yhqifaKQqQuPtNV9SvSws5TpOplSbhUdbtwK2UEY4AAAADwQLN2BcOtJsJ42yYKnZXdaKp47VtqpIhz6Zqj3bLjK6THlxn5m/rYPNHTAeAbE0KXdabpp6zQHlUsYQA6cDCdHObkQMefJQaSSpWDVDcJ7tNZ8B43KuiDnnOnrK55wfTbgDAABYWSyYeBILS/XyANWEjVcLScNfPFnjioKn3/uIANU5qx7XSa8iWqSTbY54UmnWXBfAUzYlBFjE6TDrfLFghRARDSJ5+M5S8+Ipm5smiKcqM0/9pQrs9nVZKE0xJfsQTwAAAEIQe+yxx/6tra1N77YI7pT6n7hHo8PjdE8H+RI2nuqAn6J1fyvQlE/ERCpDiZk8TVZN8LpHU4U85fN+W5EekkFNRTNNyWcbrfrcLcTuTRWouPoJyvaUKD9ZonU93vOiI2n6l0u2GW6aLioV7Dy4XP1P0L3Pf0OfT6nT1fkzCRkMP0P5qVVkFYnPa0LZbFat62EpWaRCjcREuO5KsbD8DQsS32ir5tdeM5M+7TNJ6lKvWhdQ7xQ9sa2HZkzhJEhaMyna1Z/gqFN0zzmff+soAAAAgJcFsTw13+rUqPVCzotqeapHo2WJgli/AhbJ9GOxLU81aWF7zbfeXsuT7M/XfQkAAOCBo/XiSXVA5hihAMLGU8xHPDW744Z4isYyEk8AAACADy2fbZeQRX7y+bqCKGy8CpXp7r5b4PSn2uc1Z+o8AAAAAB5UFuHzLAAAAAAAy5eF/zwLAAAAAMAyBuIJAAAAACACEE8AAAAAABGAeAIAAAAAiADEEwAAAABABCCeAAAAAAAiAPFksGfzN3Siu6z3li8PSj0AAACApciyEk9bMt/QmW28ZUo6pBYlOipx9QYxEYyIrcVoo7svPUrfnnyUprMxHeJP2HheSvus877dF9choCa7TtDI6zv1TnhSr12lvcO8vRb9XBCd7Ot/pA8Op/UeAGAxWH6LZHbdpjPr4nRwLHyHmOy+RUdpLR2fiNb5riQWq43K2QTd4f8SudrCzTfe+hjdza6huU26zDdL1H7uDq2+ae0qNq2hb//xPj16PozgXsmk6fXRs0Sv/BO98nsdZJNOU+b5QerdoTvswiXK/2KAxgrWrmLHIO3dkaMLP7+kA0DL6DlIH3z4OL3dd5xyOggAsLDAbQeWKXG681KCSnSXEse+pUd5S3BPUnrpUbqzSUcBoek5fIKy4+/Q217hRDup/71zlKQhym3bShd4y73LYvu9q9S/Q0cBC8v4GcqN76QXYX0CYNFoqeVJ3GxHu/jH1Fo6PluioxtL/BIWYnRtbC2dmtIWA7EmiStutp0OfmaVRSwhJzaKlSFGH3/2CF2cVcGO5en415wen+ObnofaVhVx792mLXqv+OUjNawvZdqTuU27u2zrB+f7ZYySXTE6rssdBqddNNfGvkOnZufoxOY5XR/GaAvqkLpyGTusXZqN0ymu7zW7TRTh65HkNnS13Zdr6SJxWCOWp/UsYvavpvL6GLeOUKZ47i6tzpU4ZTflTWvozr64Ee8OrSYO81iUwsQTl5zsV1mUxNK0j1hQ3bHy15anxJ/b3Gmev0NrrlfyVKxvV3Uprbd2Y9fvsERbQ+U/f8txrTChtC/BAq1Su9j1u7QmN0cxr8VLuwvj57/l8nPaWWknjp+bVvVQdTCEnsRb81U7Tb/E8XQY3bxLj745p342K18/Xvzwj5TNHaCfnDbNSZZLrp8Gqi1KYml6jVhQDVgfUdaWp9zlLPW9tpOsL0QWaPLnAzRy2Z0mpQ9R/6sHKaX7/unLA1SkQeq8vJXjWmFC6rVzLNAqAmH68hkafXeIpr0WL+0unPz5VsrTIep7/iAl+LTpd/dT7p2CVQdD6Em8kS8OUfY9jqfDqHCGLjw3pH42K9/IrPtn+u//+r/pe+v0/te/o//77/+L/vq13jfoOXyWPshepp88e4bGdZgv3YfprbdepG7+OXyyj04OW8EAgPnReredFkZFFgOnxtr5/xJYZgFxm/bMGp11B4uHDFWJkD2bbxGNecSTSi9OF20BocVFcspfMIR1SYURWUkWGqcm4vyyF7ge3Sw6uuIVoRMWVQ+u7/BanZaFjD/aYtZDtUu5UlcVJvWdo6LZLga16qGOcXmda9HBgpDroISZiNw6bVQNi6b1ZVcH7idslNtt031ac0539trlVvou/2aRYnfq4eKxYDvZRm0skPyctzJGqpzTgkeLidjNEq0+x/FVmiL4WBRdN8VEjNNcQ2SKKs77zn7uXu20GFW+9SxauG52S5U3iUB5mFa/WV0eaYu73+X0vuI6nec68X93X+J8zk1b7kWv2NNIHUpG+Zqer4lyA71AhSqX3U7qH87SJAskvw92Z967Sp3vasGjxcS0dulNinZI8/mvsij61BQTaU5zkMgUVWkOe/UckZ0Wk3jhHPU9PkSjLNqUOJOwHSJQ0pR/rro8IpB6H+f0vrjE57DQ4Xwy73E+v9hvuRe9Yk8jdUga5Wt6vmFZd4S2/+t/pb+YYkmJqSN0+9//J/3FK6DUNdtBuWcP0Nu11BPEEwAtYYHcdtxZs7iwhJMgliLe32hYWiLBwukzQ0woSwyLl4bTq0+ym9NW1hxbOAlcj4lHogsnYaqdPp4t0R7DAiVCaUsH180QMFu6S8qq5rIySX05zm4+Fg0WShtj3HbGtZjlfUm/YuuIiFs4CWJ5in3XlAIigMrcyRtWkpu8z0KFZY0OEELGEyvXzb9XCQabNhY/YgmrwMJJBIaTZonF2V0iscjoIMlb/fuV0Q6c95o3TasTl28ThxkCRohdn2ORw4InaEC7iD4lYASpnyFgrt+l9ptxTlfvC+vbqbSey2wIu6bna9LzOPVQgca9nXC6hzoLBV/hJEx+WqBOFj4VWDiJwLBFAwupkV+cIXr+UMXCw+JCmPnCUBacx8hzptUpTb0/LLgEjDB9eUi5DHtfMPM0+HSAckrACAUae84QMHxuvrCTek1XY/oQJdNcZkPYNT3fkHxv+z/TX71WJrE8XRmn/8bHqhgvcE5p6unR+0FMnKYjT/fR07xBOAHQPBZGPE2ZgsOGw2bL1Ge7oqLA6V3TPx1m21lgNJheCJIdZSreCeikGiJGo1MxFkeWS0aQ30lX3UrU1xWjSVM42Ui8rpLjpgtFR4mSLJaq2o7L4ptHKLhj35ewZrXZ2/42txRbHw8QO2V6+Cv9UwgbLyrX71eneXOOxVSM7msXnbT1mjfvUnm/XY8ETb+0xnHhKaR8vE2bdbU3cQm6BFuFGIuwYMpK7JWyFQFeElFnlrkl+XrxEU9RuZyrFlqFISoW0o6LTgTWyHND1PmqnqE3fI6y7w0ax5l0lkXZTsqq455NXIKP+4uYGRZhwbAIZLGXYiFnkxI3m1nmluQbhn+m/5IZp9s+7jka+z/018z/oO/pXQDA0gADxheR4tcsIFnQ7FGCj4VfF9E1Dls+sHDyDNpWW+6+tna0CBYFsfUPc77+3N8UiygcNGKRetOuxzQlzt2n+/u5fqaAuumpq7kZbsooxFgoxda30V2VDwu6TfynxZ89abUgXzc+VozCOM2kWfjoXS+pH6YbEw5ikXrOGnx+Ydt+yv0iR6lXz7kFVOGMM0C9avOOvwrJ9OVLNM3iKKPy4XrtIJrkMBctyBcA8OCxMOKpyx6cbMJhHTEarWnxkDj6p4mfxUW5vOql1zjF2RhtWdeMTspgtp0uTpU5Xe7ou7j8al8fU8RpdEqsT3rXRNrAzwJXi1kRa5yf3q1QplQjFrv1cUs4edxJ5LUSsSjxFzsx+ruMZbIJG49jtF2PqwHgVWxaQ3Pi8jIGeNOmtuo0lWusTG1+biwbLk/bV+Iy07Xj/Ti1GdaqJnFzjssbo5Lks2k1lVgoucrfqnxtxr+gcV8X0CUWFzupXw+MdrFjkHrF5WUM8KYd2WqhpVxjhYorzw8WU5NfpI2lEHJUpJ1uMdUMCkNc3jQlJZ8dhyjFQslV/lblW5ff0f8bE+uT3jURq5NYn/SuQ0+ar1h9a2H3gQ/pk09G6ZNju3QIAKAZLIx4mi3TUZlJ5nTQMmB8jmjMGCzN4qRihSFKspg4Ycwec8PxNhuzz9QA6hIVzfSaTHGina7JLDVnph0jQqT7tlXORsQHI5am5MY5OtrN5fdxb17jfJP2gG4bqW93mT6eiGqlitHFL8vcdsa1kAHj0pZu+RMOZQFqq4gLTqOUXeOeLaYo0+qcWKnaSWZ9KdbL/hq+kmbMsPFYVso4KBZK0+K20mEyS0/25Zi7NnErDSdNGTDeRjEjngzI/nafCCodIHC8+5vKFHdm5Un5yjT3UsKosyD1lvMbtxqKpamcXU13snGKXfeI0Rbmq1BT31nncIfsRWbLTbJQyorbSocl9L4cM8cGyQDzXtMFpwaM76QZI54MyN77GgsXMyuOl9pRoKIzK69AY+8WOK1zlDFmvSlrkTq/8cU4xdKUeP4Q9T+/k6Y/zXnK37p86/HXK29R53Zjpp0gA8a399BfrvxOB1To2bWDesYvq+tWi21PiSIep/ffr1qDAgAwDxZmtl3IpQVEJDjLGczG6WOOQ5lvaDd39DKdf3SdsfRBnfS8ywG44PPtRTbDxlOIuGPRt5sFhwULvimZReg3pissLCy33VLixbUkg4kSh4aAUgPk3YPIo9QjaKkCtTSEt8718AgYa/o80R0loEq0xpgRF7QEgVo5/Hpldl7YePZMvKBFMp2lAGTgdJ2lCtRsNrpL8fWrlQVIHWFx2C55G/EUniUNJF5c1bti33Ly9mIsPeBGZvuJC5TzDBrY3ZJ8LWpOfa+zSKazFMDlgbpLFajZbDRExccPKQuQilcoUP5dTq/OkgYSb/LTIRp5p+I+8y5D4GAsPeBGZvudoxSXLR80sLsl+YYgwlIFQUtLuNAz7ej9Z+nI2fkOaAMAmCyYeIrUIQMAFpgaK4yDpUXIFcbFZffWUzk6cuQ0TegwAEBzwIBxAABToFdeuUTpbOtcU6A5ZF98gejtd+p+mmXi7LP0NIQTAC1hYVYYt4nqEgIAAAAAWGK03m0HAAAAAPAAAbcdAAAAAEAEIJ4AAAAAACIA8QQAAAAAEAGIJwAAAACACCySeEpQ/94sZSqfWg8gbDw3qf691B/0QS5GjmerEk1QJhs9r8bPq08ik9XlTAW3QyJD2WzGWmzQxglrXdmsetdu5ypS/bRXnSD16Q/8ZlrDzLfefm0JAAAAeIg99thj/9bW1qZ3F4ZE5il64l6ehsdndIg//vGk491F/ZkMZTxb6qEiFabuUSLFHeBMniYDkpfjXaWCilthFa3r4e68WCAzWATMj7b9oCov2aw8/M8LjXTYP9pGP3ClnaCZ/CSV1vVwbaVOqyiV6aJSwSePVevIyn6KnENO2Awl5lM2hQiRH1FPydueUu8eWjXlDhdhuqvfrIu1qbbi2mQSM8RV4/pYdax9B/ggAmxXvyd9nVbIess1fWrd3zzXn/FrS0XwPefKX8cGAADwYLMI4ilBPU9k6F5hJFDcWATFm6HJfJ7ynq34UEoLDX/xZHbqqQT3k109TudniS7yFUH3pgquPLqm/kC/Gf5c7Vvpz1M83Zuigk5fbcWHKLVqij7nxFfVEE9OfXq6aNWqLurRdVH1LjVTPPmLpKDwmUmjHl1T9IffDNPndlslmiCeJI3OIuV0uvk81zGieKq0q+dgoHhKcHmJ8hdyNGJfJ9cG4QQAACuJhXfbpXqpl/I0wh1oTcLG03R21na2TI5coAsXrE3SnM7nnP3cmPPZUurN7qW9DbgKm0OCMn29LEAqlU70Zrk81S4upz65PE1P5yln1K25dJI0bWfCv0FExC1eewEAAAALzwKLJxYHvSmazI/p/SDCxKseBzQz7f5Gui+pfjVOJ9HbWyVIWFJRPiciJEeOnjKoJ9DmhzVOJ1nMuQSQJfJGqOmaKCSJDLcTi7kZ3/ayRZxPe3V2UiLBwot/WgKLt0gDpKIg9wKnn+3lVqyPXMcEl08hbkA5N8L5AAAAVjYLK560NUncNjUJG68Gdodt9tcqjAOkw8/lO1WHWz1wPIgUpUR0JVM+HaxtsYqSXgUZgyPWGxFOFStYSAyRYqXTLBEgYo7rkyxSbmSERnIz1Otpz1pImbhw/H/DStZ8s5hmkkZsK5wOCSSRIdblfDnFzctMjlhlC3s+AACAFc+CiifbmlSvgwobz0Q6aLNvtjtsK8wSAv2dlntLwqbHLIvOjLjFQigCywLDImKGhV1VdNtiZboAwyGCLts7ozr/yMJJ6sWFmZ7upF4WbVadmiECLKueiLkLOX0dpse47UaID4QQUAlKJblOIzOUlAFmS4hULwtLuY6TKdVm4dHWrYAtrKgEAACw/Fm4b9upaeCdNModcM2OvVY8day2VUVE02RqLwudJo7/0WXKi/vM/G0dZGHWRzTq7+prJWopA7EM5aapd28vzeR0GaSMqkiTlFqEskm5+miUxaBY91gI220lLrLUJPGuOzwKkgaLzZwt6pSo0WnVq7ec208sVO3rmKSi3WaCc3404Q4AAGBlsWDiSSwsvTP13VJh49VC0vAXT9a4ot5A9SUWJK/QkM5Z9bhOehXRIp1sc8STSjO4YIynbEoIsIjTYdb5YsEKISLCovKobVLxWvyqBIgjmDiS83ue4qmqTOK2q11vu31d5VVpaTEl+xBPAAAAQrAw4kk6pflanVzUFizB4qkWfmlaYqszX52W6ow78ywEZpoinmojAs6wLAWUS+rdTyN0IZ9ojniqiV8ZvOW0cK4Hl27e4qkWgeKpWgA7iICyLVkQTwAAAEKwIOIprDUpbDyr425EFFgdfjTLUz0aLUsU/EVJIIEiopn4C7iaNMPyVIv51tsrnmQ/0uD7Ru4fAAAAy43WiyfVAZljhAIIG08xH/HUbDEB8fTAiicAAADAh5bPtkukkkT5fN1OMmy8CpXlAXy3wLE6tc9rZKkBAAAAAKwcFm62HQAAAADAA8DCf54FAAAAAGAZA/EEAAAAABABiCcAAAAAgAhAPAEAAAAARADiCQAAAAAgAhBPAAAAAAARgHgy2LP5GzrRXdZ7y5cHpR4AAADAUmRZiactmW/ozDbeMiUdUosSHZW4eoOYCEbEVjPb6O5Lj9K3Jx+l6WxMh0QhTnf4XDm/8TQWl9I+Xf59cR0CarLrBI28vlPvhCf12lXaO8zba9HPBdHJvv5H+uBwWu8BsLJZfotkdt2mM+vidHAsfMeU7L5FR2ktHZ9Yfh3xQtHsNipnE3SH/0vkGhdkzUhDsb6dpvcTJd6c0wHzZH2M7mbX0Nwm3VY3S9R+7g6tvmntKjatoW//8T49ej6M0F/JpOn10bNEr/wTvfJ7HWSTTlPm+UHq3aE77MIlyv9igMYK1q5ixyDt3ZGjCz+/pANAy+g5SB98+Di93XeccjoIgJUK3HYARCJOd15KUInuUuLYt/QobwnuSUovPUp3NukoIDQ9h09QdvwdetsrnGgn9b93jpI0RLltW+kCb7l3WeS/d5X6d+goYGEZP0O58Z30IqxPALTW8iRutqNd/GNqLR2fLdHRjSV+GQoxuja2lk5N6b/cxZokrrjZdjr4mVUWsYSc2CgWhxh9/NkjdHFWBTuWp+Nfc3p8jm96HmpbVcS9d5u26L3il4/UsL6UaU/mNu3usi0hnO+XMUp2xei4LncYnHbRXBv7Dp2anaMTm+d0fRijLahD6spl7LB2aTZOp7i+1+w2UYSvR5Lb0NV2X66li8RhDVqeypvW0J19cW4dtUfx3B1aTRzmsRqV9iVYYFTSj12/S2tycxQzLTYG9SxP9dMTF+Aabhk/SrTm2B2OUSFM+cQlJ2WqsiiJpWkfsaC6wy2q9//xPiX+3OZum/N3aM11T33Wt9Od/auptN7ajV2Xcq2h8p+/5bhWmBCq/VQ5rFrFz3/L14HTzq6mMqcdy02rtlR1MISexFvzVTtNv8TxdBjdvEuPaktds/L148UP/0jZ3AH6yWnTnGS55PppoNqiJJam14gF1YD18WZtecpdzlLfazvJ+jJlgSZ/PkAjl91pUvoQ9b96kFK675++PEBFGqTOy1s5rhUmpF47xwKtIhCmL5+h0XeHaNpr8dLuwsmfb6U8HaK+5w9Sgk+bfnc/5d4pWHUwhJ7EG/niEGXf43g6jApn6MJzQ+pns/KNzLp/pv/+r/+bvrdO73/9O/q///6/6K9f632DnsNn6YPsZfrJs2doXIf50n2Y3nrrRermn8Mn++jksBUMwINC6912WhgVWQycGmvn/0tgmQXEbdoza3TWHSweMlQlQvZsvkU05hFPKr04XbQFhBYXySl/wRDWJRVGZCVZaJyaiPNLV+B6dLPo6IpXhE5YVD24vsNrdVoWMv5oi1kP1S7lSl1VmNR3jopmuxjUqoc6xuV1rkUHC0KugxJmInLrtJEXJXA23ac153Rnql1ape/ybxYBdqep4q3nTpdFh51DeZN0sA/T6jfdIsamlniKlF4It1249ESMtVGbR3TZyFivck4LHi0mYjdLtPocx1dtw+fvZ1F03RQTMSXwyBRV3IZ39nP3aqfFRG0/EUh3v8vpfcXX5jxfG/7v7kucz7lpy73oFXsaqUPJKF/T8zVRbqAXqFDlsttJ/cNZmmSB5Peh8Mx7V6nzXS14tJiY1i69SdEOaT7/VRZFn5piIs1pDhKZoirNYa+eI7LTYhIvnKO+x4dolEWbEmcStkMESpryz1WXRwRS7+Oc3heX+BwWOpxP5j3O5xf7LfeiV+xppA5Jo3xNzzcs647Q9n/9r/QXUywpMXWEbv/7/6S/eAWUumY7KPfsAXq7lnqCeAIPOAvktuPOmsWFJZwEsRTx/kbD0hIJFk6fGWJCWWJYvDScXn2S3Zy2subYwkngekw8El04CVPt9PFsifYYFigRSls6uG6GgNnSXVJWNZeVSerLcXbzsWiwUNoY47YzrsUs70v6FZtDBEQolbkTNawQN3mfhQDLBh0gcLxNZVcHLMSuz3EnzR125EHhi5Qei5ryzb9XCQabNhY/ZY5TgYWTCAynbUosMu8SiUVGB0ne6t+vjPbnNlzzpml1arC+Il6VgBHkOhkC5vpdar8Z53T1vsAis7Sey2wIu6bna9LzOPVQgca9nXC6hzoLBV/hJEx+WqBOFj4VWDiJwLBFAwupkV+cIXr+UMXCw+JCmPnCUBacx8hzptUpTb0/LLgEjDB9eUi5DHtfMPM0+HSAckrACAUae84QMHxuvrCTek1XY/oQJdNcZkPYNT3fkHxv+z/TX71WJrE8XRmn/8bHqhgvcE5p6unR+0FMnKYjT/fR07xBOIEHkYURT1Om4LDhsNky9dmuqChwetf0T4fZdhYYDaYXgmRHmYp3AjqLhojR6FSMxVHFGiK/k666laivK0aTpnCykXhdJcdNF4qOEiVZLFW1HZfFN496rI8HiIkyPfyV/ilIPN6mjVl0ziYuLZfgCMFST8/m+v3qtrk5x2IqRve1i06u8Zo371J5v51ngqZfWuO48BQNli/GIiyYshJ7pWxF+JdE1Jllbkm+XnzEU1Qu56qFVmGIioW046ITgTXy3BB1vqpn6A2fo+x7g8ZxJp1lUbaTsuq4ZxOX4OP+ImaGRVgwLAJZ7KVYyNmkxM1mlrkl+Ybhn+m/ZMbpto97jsb+D/018z/oe3oXAOAGA8YXkeLXLCBZ0OxRgo+FXxfRNQ57ILlZGWBdtZ1vYEbaYqTHoiC2/mGWO/7c3xSLKBw0YpF6085vmhLn7tP9/Qm3gGp2fZkYC6XY+ja6q/JhQbeJ/6T5syetFuTrxseKURinmTQLH73rJfXDdGPCQSxSz1mDzy9s20+5X+Qo9eo5t4AqnHEGqFdt3vFXIZm+fImmWRxlVD5crx1EkxzmogX5AgBax8KIpy57cLIJh3XEaLSmxUPi6J8mfhYX5fKql17jFGdjtGVdMzoLg9l2ujhV5nS5w+3i8qt9fUwRp9EpsT7pXRNpAz8LXC1mRaxxfnq3QplSjVjsuNP3FxMx+ruMebLheHFqM6wt82TR0itR2/W4GgBexaY1NCcuL2OAN21qq24b5RorU5ufG8uGy9P2lbjMtGWn2fW1uTnH5Y1RSfLZtJpKLJRc5W9VvjbjX9C4rwvoEouLndSvB0a72DFIveLyMgZ4045stdBSrrFCxZXnB4upyS/SxlIIOSrSTreYagaFIS5vmpKSz45DlGKh5Cp/q/Kty+/o/42J9UnvmojVSaxPetehJ81XrL61sPvAh/TJJ6P0ybFdOgSAB4uFEU+zZToqM8mcDloGjM8RjRmDpVmcVKwwREkWEyeM2WNuON5mY/aZGkBdoqKZXpMpTrTTNZml5sy0Y0SIdN+2ytmI+GDE0pTcOEdHu7n8Pu7Na5xv0h7QbSP17S7TxxNRrVQxuvhlmdvOuBYyYFzako9Fp0yrc9zJv9ROMqtKsV72ZYabaYGReGWaeylREQQK7rizCeUCikYD6TkWFvnN8fZxvJNrdCnDpyez5eIslKbFbaXDZLah7MsxdyvGrbZw8pUB420UM+LJgOxv94mg0gECx7u/qUxxZ1Zes9uvgliaytnVdCcbp9h199imVuarUFPfWedwh+xFZstNslDKittKhyX0vhwzxwbJAPNe0wWnBozvpBkjngzI3vsaCxczK46X2lGgojMrr0Bj7xY4rXOUMWa9KWuROr/xxTjF0pR4/hD1P7+Tpj/Necrfunzr8dcrb1HndmOmnSADxrf30F+u/E4HVOjZtYN6xi+r61aLbU+JIh6n99+vWoMCgAeChZltF3JpAREJznIGs3H6mONQ5hvazR29TOcfXWcsfVAnPe9yAC74fHuRzbDxFCLuWPTtZsFhwYJvSmYR+o3pCgsLy223lHhxLclgosShIaDUAHn3IPIo9QhaqkAtDeGtcwiClipQq4NfN6b1e6bkixssrqa9V+wz3mn0Lsy0hBDp2XjLaE23Z7FgWoDCpicCscYimU4dZOB0naUK1Gw2ukvx9Zwvp6eOcL7t0oZGPMV82u9mZekBNzLbT9at4jyDBna3JF+LmlPf6yyS6SwFcHmg7lIFajYbDVHx8UPKAqTiFQqUf5fTq7OkgcSb/HSIRt6puM+8yxA4GEsPuJHZfucoxWXLBw3sbkm+IYiwVEHQ0hIu9Ew7ev9ZOnJ2vgPaAFiaLJh4itohAwBWAjVWGAdLi5ArjIvL7q2ncnTkyGma0GEAPGhgwDgAYBEp0CuvXKJ0tnWuKdAcsi++QPT2O3U/zTJx9ll6GsIJPOAszArjNg24hAAAAAAAlhKtd9sBAAAAADxAwG0HAAAAABABiCcAAAAAgAhAPAEAAAAARADiCQAAAAAgAosknhLUvzdLmconzwMIG89Nqn8v9Qd9GIuR49mqRBOUyUbPq/HzGiDVT3uzGc4xYp5ynmqQVEPtGZpEhrKqfCFx4re4XA0R/bo691XUdoiKcx9EoYX3qVPfBvNodXuFprH3zZKloftkAWj0ei9UffCeXQbM433WpPfNosy2S2SylO3M04WRqm+hu/CPJzdAP/9bzXQ+R7mxab6H91Jq8gIFJS/He2esuBXkYvQRjebIDFZl6PVv5skRycP/PIvgslpMUz7nc566uL3WxZ3OUy43Zn3OQR7O3hnen6SUN0/zHJvJEavt5LzUJP8mLk8vzfjlGRKXMDXLJkgZVLGMMCdv+2IY7UV2/Gnq9SuXX508WNdA70ShqlyMK6zWdWWca1Gpq3NfTaaq2yEk9e83/uGTd3BbTdIIX/jJevWph+RZ9ReJTtu57j73pYHUrY9GPc8d43ffKOo9P3bdmkPY91IwDT7vDZ7nehZNzOfee59EJqhsAW3ve59Y2O9n3+vtW1bJ23gvBNanwXY3nxm8Z33eHRV837N1zwu630PiTd9uZ0Xw+8z/uTDK4td+DbAI4kkqnaXOfL1OL2w8C/PFLI3nFU+BLxrGeqipbufi//Kv1SnJQ52iyUgvePcLw/VCr/VQezEfpiY91KoNqXIDe/d9b8r5PtTe9JpFVbkYV1it68pIXM+LXNpjvuLJJFBs+ORdv63q1KceVXka97aTdyvEU9Tnp1GivW/8aUV5g6+bc78FXVC/+yQKcl2ySSr6vS9qHdNEut6+ZXW/C4Pr00i7u9PGe9aT3ryZ5/vG5/5yt0OU9D1xm1TfhXfbpXqpl/L1X1Bh42k6O2vpZks5X7hgbZKmCCZ7v/JwJ6g3u5f2LqZpM5Vi4Zd3bojpsTxNSpi1G5pEopMmJ0M2Xhj4huvlh3PEuCCTI/yy4uu0bM3A8sLZK9dbb1Xqus79wG3cqX/aJHqztLfOX3FhkXs60alzMMsa9FdAXZbA/b1Uifi+aS7SketrW7VlKcAQCeYD3rPzR0SI7z0r2/zu21RvL1F+1CWMqtvB/30mIquZZQki9thjj/1bW1ub3m01rAD7n6B7+WGanNFBvoSJJy+cfkoUCzR1j89IZWjV1OcqvvxOzPDD4Hcud0K7uKVXda2imfwkVaKsonU9XTT1h9/Q8OdWml66en5AXaUCFVwH5Tx+5HQ53CQolclQpsbmLWdiQ68nj4e4Pmla9TdOf1WKMl0lKhRmKBGYp5CgnidSVCro4wk+LzFDXF0uT1clPApdPfQD/rtuxNWo0tjcJvd0HVatI6tYU+QkL3m76txDXatWcXL8m9t71b0prs896vIrl6SX4YfFdb6xpR5y5xUFKRd3lhdyI5TP561thu871U6qMjXuB7k/03RvahWlEn9zrpXcd53FHP3m85K8mxsvm8Avpv4nuH34oVf36cyku5zqPjDS92t7F/Xv75pIe7nyNO5t5zrWvi/l+elZNWW1r4jBXf2e871llzwSnue0FYR9L9Uj+vNuIedxX3EhRyP2NXZt/u0p91tPT091PvZzUXXNIiLXJF+inh/ton5vHj1xKtSxrLiut0nQe6KqrNIuxnshsD7R2x3vWX2e0Oh7Vs7rmqI//GaYPo9w34ZB7u3qvta8H4LfZ3IuP0yUGwkoS913ZTgW1m0nL8wwZuRQ8dxmV1GbtqtOmfe4cQTTV2uHS1g+YY0tcfzwfGFqmwEtsZby+p/VeRVlW0mvMapN3e70Lf93HXOytF+KH+JO/mvaPk/5i+dhTlZpetxcjLSp4zrwM4dWnWe082K77fwsOI5fPeh+sO4DUveVdW2SLJik/k5bzNttV8lD3afJovue83s+pK0CLF5h3dI1qcpTyhjBbeeUz2esTOB1NvLQIS3Brz0XFP1u0Xt+1H6vBNyrTa5XoBvOF7tO+np7nzfve9R7PIiq929j4D2rowmBz18dnGc6mIb7Q5V2Y247iVdrzHPD9fWwoOIpk90bakxBuHjycPrfoNWNpx8M8j54+gFXN/xM4MUQbJ/4CF++6rQ954W4qdxUBrP5P9Q6/U5+QNTLsNZD7dMuzoPVmofaaQ+/m3IxHuqWYd0vlnDSQfrekvt1MtUM8WTek1Ym6qXB955z70qbLnRnX5WnlDO8eLJffPL8VI3TCbzOui30nh++A1kjEva9FMg8nnc/ookUwecdJDR6nzSjPvq5D329fcvqeZd548yjnHjP6miCX3pLAe/1Nd6Jrvp5Cq3eNQEvDfW+mGlOfRdOPKmG6KRRvrNqFrhWPG9j+iCNI51YTeUZFV2mvN1R2L+tg4EXsSGqHgKjk3JeHkEPtZSlYglxaMZDXVVvwfMCkTjem1LyrrqT9UsszENd53rPz9JntZfzV2MVtTu55hNw/RhbfKj7wrkPvA9/C+tTladxXzrXPeC+VPeAaE77+fEMNPa7bxYKVZ4Q76VWEOL+dlO5frU6CIV0NCzi/e+TVmO+F4z7RB8NfE9UldXzfgm87xtA0sJ71iLEfeh6z87jvn2QWDDxJA971V8gPoSNVwtJw188NdK5yI3rtjYoK5TjSpE0/R4wpu5NFpRf5Qa3LV7uTtPvodZ1mzHVuaYZDzXj6sB99lV9vQ91LZz4AQ/1olLjutoEXN/5CboQOPdBlE4kRH1q4fty1i4Z5zpW35fq/uUHzmUhUmlpMSX7Ue+bJtKM942bgHdMk9xNkWjoPjGoeV2C7ier/i5hEeZ6+5Y1pHgKeA4r4D1rxV+K79laBDxLDjVEmbrnavx10YTncWHEk7q552l1chH04FrIzRbd8uSXpnXx/Ez6lYettrsvmBp1MF8G5kUOfKitcvpZLBRNeqgF9SDb96TLjMrUeqj1tXX/RbXYWO3WyMNpiYKZSofgoNP0e7lGwPUy9+LcB952brw+88K57t77svoPDwezDrXum1ai78nmWZ3q1NcUECbqWC0zUvB1q/muC7xPQlLzuvi/v6Q8vmK03vUObAOj7g3Vx7+cCnX98Z5tGLP9fGnR+0ZR47oKte6VWu0XgQURT4EPlIew8eo2XCDWzd/cziXkw+lLxPwCH+o6NPGhrkmzHuq67eal0Yd0fvdR8DgZ6UQ9roqI1BRPgTRan3niXPeI96WN975ZoOsf/n0Tklov7Lr3TBC1r6nUoalDFEzqXocGnzvv9Q5LUPs2u5x4zwYQpR2b8S6ynpmGLU9Bz2Kj95+H1ounsBczykVv+MI044J6qZFmky6Sw0p5qBeMxu+HRbU8BdKK+zsEznVvknhaCFpyPzZoeapJ7WvacvEUeF3mca81er2DOsRm3z94z4ZD5dUCce1gvUsbmswRdK8ITbpfWi6epBMIM3MkbDwL3UHVksxeU6ei/nnRx6vUeInUvbki5rfsH+omtkVTmOf9EFCnZtTDEmc1W8vnxdSK+zsEznVfPuIp2vsmCgHXoOExFjXeL4yIp5oeP9/7JCR1n9kG0270egd1iHXLGfG+x3s2HI1ex9DM430m16LWg7FsxjwBAAAA4MFhIYXaEgTiCQAAAAAgAgv/bTsAAAAAgGUMxBMAAAAAQAQgngAAAAAAIgDxBAAAAAAQAYgnAAAAAIAIQDwZ7Nn8DZ3oLuu95cuDUo+w3H3pUZrOxvQeAAAA0FqWlXjakvmGzmzjLVPSIbUo0VGJq7eVJCaiImJrJbRRObuGpk8+St/a20trqLReH2wipX06/X1xHQKawq4TNPL6Tr1TIfv6H+mDw2m9BwAArWf5rfPUdZvOrIvTwbHwHVOy+xYdpbV0fALWiSCWVButb6fp/USJN+d0QBOQNF96mFa/eYfiN3VYo6yP0V0WYnObdFvdLFH7uTu02kx30xr69h/v06Pnwwh9UJ80vT56luiVf6JXfq+DbHoO0gcfPk5v9x2nnA4CAIBWArcdWBl892Eq3/z7/IUTxenOSwkq0V1KHPuWHuUtwT126aVH6c4mHQU0nZ7DJyg7/g697RVOwvgZyo3vpBdhfQIALBAttTyJm+1oF/+YWkvHZ0t0dGOJkupIjK6NraVTU/ovd7EmiStutp0OfmaVRSwhJzaKGylGH3/2CF2cVcGO5en415wen+ObnofaVhVx792mLXqv+OUjNawvZdqTuU27u2z3Fuf7ZYySXTE6rssdBqddNNfGvkOnZufoxOY5XR/GaAvqkLpyGTusXZqN0ymu7zW7TRTh65HkNnS13Zdr6SJxWFTLk1hXxDV18y49mnuYpvm3apmbJVpzzsfCs56Fx37DVVYVj4+f5ON6zw3HPcZx9Z43biw3zSLGx+2oLE6rrXJ5iJ//ltZc5x92PQSpi7Z4lbOJyliq63eUFUlccnf4vyqLkkqDWFDd4RbV+/94nxJ/bqM7drvwv/HzdzhPT2m4jHf2r3baJcZ5xWkNlf+sy6cp7UuwQKtcn9j1u7QmN0cxr8VL10Xqt5o47SzXn9O220jVwRB6qh2+8rST0Q7NytchZH1NXvzwj5TNHaCfnC7oEDc9h8/SB9nL9JNnz9C4DvOl+zC99daL1M0/h0/20clhKxgAAKLQeredFkZFFgOnxtr5/xJYZgFxm/bMGp11B4uHDFWJkD2bbxGNecSTSi9OF20BocVFcspfMIR1SYURWUkWGqcm4lRUYVyPbhYdXfGK0AmLqgfXd3itTstCxh9tMeuh2qVcqasKk/rOUdFsF4Na9VDHuLzOtehgQch1UMJMRG6dNqpCudja+EeZVmshZImOckVICCrew04cK0zE1GqKnZt2u7xU3PBuO8lPBI2veLKRzj37d0cQeFFl3sRih4+bLWCHW+eJYGujNpeIqyAD18s5tyCLsUB06qzFY/m6KSZiSgSSKarWc9j+BJGdFqPquJ5FC4s2u3zlTSJQtCtSh9mIQLr7XU7vq/t8jtQpxuXjfOy2VuUzxJ5G6lAyytf0fHk/TH1dKLfcC1Twc9nZqDg7KPfsAXq7lnqCeAIANIEFcttxZ83iwhJOgliKeH+jYWmJBAunzwwxoSwxLF4aTq8+yW5OW1lzbOEkcD0mHokunISpdvp4tkR7DAuUCKUtHVw3Q8Bs6S4pq5rLyiT15Ti7+Vg0WChtjHHbGddilvcl/YrNITrr+YoYoiiWu0PtN2N0X1sWhFK2zRVHIZYn7qTnsn5SZGGJ5e5SfP1quutyvcXpbjZG8ZwWXNzJK9eftVdFG4uBMsepwMLJHGOlLG13icQio4PkHlL/fmW0/80yrXnTFBIsQDZxmCFghNj1ORY5LHiCZhpeZ0GpBIzA4vZNQ6Rev8vXiOtn1pdFa2k9l9kQdk3PV4fWrq+Hnsephwo0XksUjRc4Rpp6evR+EBOn6cjTffQ0bxBOAIBGWRjxNGUKDhsOmy1Tn+2KigKnd03/dJhtZ4HRYHohSHaUqXgnoLNoiBiNTsVYHFUsIfI76apbifq6YjRpCicbiddVctx0oegoUZLFUlXbcVl88wjLzftuy1GVEIvTfe6EH3bF0Vy/T/FNbY77bfGwREMpWxHCZRY5pZt3aXVQp14PqZv+6XBzjsWUKSxZUL15l8r79Qy9kwma9s4CXB9nURZ3zxS0N3EJugRbhRiLkmDKSuyZ9S2JqDPL3JJ8Q9TXlzriCQAAFhAMGF9Eil+zgGRBs0cJPhZ+XUTXOAwsDrb1yRoPJDPqLKuTIxFYFMTWPxwo9O5vitURDgGIRepNa/D5o8emKXHuPt3fn3ALChZx9gD1qs07/iokMRZKsfVtdFflw4KO6x3/syetFuQbqr5VhLAqAQDAArEw4qnLHpxswmEdMRqtafGQOPqniZ/FRbm86qXXOMXZGG1Z12T7yGw7XZwqc7rc4XZx+dW+PqaI0+iUWJ/0rom0gZ8FrhazItY4P71boUypFlnsLErUdl2sT3rXRKxOfhaaRaFifSpv8rM6WfWQAeBVbFpDc+LyMuP7WdSUa6xMbX5WOBsWF21fictMyzbej1Obyw3aFG7OcXljVJJ8/Orbqny9eOvrZfwLGq8nnnrSHKO+dar7wIf0ySej9MmxXToEAACiszDiabZMR2UmmdNBy4DxOaIxY7A0i5OKFYYoyWLihDF7zA3H22zMPlMDqEtUNNNrMsWJdroms9ScmXaMCJHu21Y5GxQfYmlKbpyjo91cfh/35jXON2kP6LaR+naX6eOJqJIjRhe/LHPbGddCBoxLW1bsKy0hnrtLskil1x11Jxuj9pyPKHUsIvKbO/h9Cfr25Joqh2Czsa1PMnMwdt091keQ2XJxFkrOzEKmrPflmDt+XA2Wduos9d3fRjEjngzI/nafCCodIHA8cXPGnVl5ZSXq5l5KeAQGt4s6v3HpKZYmcU/eyfrVt/n5hquvB7UUAVGaBVIQPbt2UM/4ZRWvFtueEgU2Tu+/HzTyHAAA6rMws+1CLi0gIsFZzmA2Th9zHMp8Q7u5o5fp/KPrjKUP6qTnXQ7ABZ9vL7IZNp5CxB2Lvt0sOCxY8E3JLEK/MV1hYWG57ZYSL64lGUyUODQElBog7x5EHqUeQUsVqKUhvHWuhZ5RZlHSSwnIjDQWDDrUWQ5AUOLBEBPivvEOIteIIDGn+FvT47lz13G90+1d6GUFFK4ympSp3TWQuYKaYeedLWjCYq7WIplO2WTgdJ2lCtRsNrIEm1iA1JGbXLYcp+cVE+vdU/wlXly3i01gu9ysLD3gRma/ybpVwe3RzHwj1deg3lIE9ZYyUOiZdvT+s3TkLAZQAQAaZ8HEU5QVwQFYTLzT9cFSYP4rjIvL7q2ncnTkyGma0GEAANAIGDAOgEnVdH2wNCjQK69conTW59t2L75A9PY7dT/NMnH2WXoawgkA0AQWZoVxmyguIQAWDLer0cblcgQAAAA0rXfbAQAAAAA8QMBtBwAAAAAQAYgnAAAAAIAIQDwBAAAAAEQA4gkAAAAAIAIQTwAAAAAAEfAXT7Lo3Ogf6YPXDxK+xQkAAAAAUMFfPI2foZ/0HaBczwv0Ir6fCQAAAADgUMNtV/8L5QAAAAAAKw2MeQIAAAAAiADEEwAAAABABOqKp3RPWv8CAAAAAAA1xVPu7XeIXjxLI69Xf8kcAAAAAGAlUlM8ZV98gejtA9T/yiUdAgAAAACwsqnrtiuMF/QvAAAAAACAAeMAAAAAABGAeAIAAAAAiEAN8ZSmnh4slAkAAAAAYOIvntS37c7Si3SZ3oZ4AgAAAABweOj73//+f7a3t+tdAAAAAABQC4x5AgAAAACIAMQTAAAAAEAEIJ4AAAAAAEJD9P8BtsULS1aMNRAAAAAASUVORK5CYII=;" vertex="1" parent="1">
          <mxGeometry x="40" y="20" width="522.82" height="230" as="geometry" />
        </mxCell>
        <mxCell id="Xce9fqfD_rUZ55vbkONO-8" value="" style="shape=image;verticalLabelPosition=bottom;labelBackgroundColor=default;verticalAlign=top;aspect=fixed;imageAspect=0;image=data:image/png,iVBORw0KGgoAAAANSUhEUgAAAmIAAABpCAYAAACZDk8MAAAAAXNSR0IArs4c6QAAAARnQU1BAACxjwv8YQUAAAAJcEhZcwAAEnQAABJ0Ad5mH3gAACQVSURBVHhe7Z1fjBzVved/ocXEM7gbEY29oVvCzCCk7pUQJPaMFG1sXbshUnjAmpuHEISQwJjgt7zkSlzWyYIvIG1e8mYv2CAh4kseWMs8JNJlGyNbUaQZk0RC2mkpYppB6kECL5G77bHvkLl3f79Tp6pPVZ3609XV3WP8/aA2XadPnf9/vvU7p8584/777//Pa9eu0eTkJAEAAAAAgNFxi/4/AAAAAAAYMRBiAAAAAABjAkIMAAAAAGBMQIgBAAAAAIwJCDEAAAAAgDHRhxAr0fxCnWolfRlJWn9+KvMLNF/RFxbk93oo0BLV6v3Hlf2+ZEq1uk5nJbocSjWq12ucCgPPbXhpU9jiTkNlnhb6uc+Xn/i6tZI1nQAAAMANROHb3/72//j73/9Ot956q3ayU6p9n+7/9yZdWOlqFzt2fyJKHqT5Wo1qgU/lG2vUuvTvVKrwpNttUjsiePl9eqOl/Pb4Ju2Y5Rl+rUWms4ihh/c+EIpLPk4c9vtSIyLh4b30gC/sEnWbbdrYMcu5lTx9kyq1adpoWeL45g5yor9E3k+eW5dKg6SNEdH64Hwwz/pHW9wx9ePdW6pQbXqDWt59IrAepr0PRNyzYeZnlr55KVy3vnRWvhFRHmY6w0hdf3/H/wu0CwAAAODGIOU5Yo6Vptg8Q4tt7WQlrT8HmUTnaIkayx01KVfa/vvirGSdZoPvI45vjmipQRyEFTOOHpLO+Pv6QoRZtUMNTnwvviKLmyp1G704ovLTXuR8dzkMlaQ2VQZIm4qDFumMV5AisuaJJA5xkrSq4JepF7z48ac1hFjEql1q+O6LwYtH8hNuE8F0htJtTWeYcH4BAACAG4d0S5OVKlWpmSyu0vrTFIvxC08iUM6ccT4Spogv97onrEpUrS/QQobl0HxgUTfHIqbdy3SpWuf0zLO88ePlp9GkTqdJDSNvucDipVpp06IvQOe6UolQtAPhCG+n3M3vCVjS2V5cpDa3n77qUIXD/+/3PgAAAGCLkEKI8QTLs127uayvo0jjL7xvqttJYV+pzCtLUqlaDYkblmfUbIigsVtzksTeYDjio7zW8IkpRzCysNDXNwdFKpa6LDD1ZRzFIpVYuPrLh6/bJfkpJdyW6mVak7pvrFE5rQgEAAAAthDJQkxbuZpJqiKtvxhkmWlhwb98p9zYQaxJjaYs99k27UdRITEElcoVlkxBXEtaP+H1kCVIscKJCPMve6ZAhEiJhQt/dcLhdNSrljT2SWeZy58Fim/907luGxY7O73ycD5i0ROhqa99Ybp0qBPa0ydim/1nzE+xlHyXU2acJ1d8c74bZ5pU5LRmqUsAAABgXCQKMdfKlSQ10vozUXujDH3gLt05bo4ImC86S3ji1ll2LE1dWfqzCgM/pVqVKu1FWuyySAx5dy1p5jJnOkQc1qtdWsxwr8oXJ6bTKVKVRYOTJ7HqNPsquyhUmdK8T1B5+8Ni6ZWH8xGLXoeWXbfIAIJWrLYql6z5ibOQuqJV9uCFLY5OvEv8q/iBIAMAAHAjEC/ESjUql9rJVq44f/xb3RAFYmXxW178FrAeWgSENmvriV4JA/ETscGc450TscT+2s0mFefDe7ay4ghG+9KjCCtHnEk6w2kr1eaU5XCJhUq3OjeU5TRX0LqfZBE2Yrpd6lQqgfoQ62VHforEFa1x4jeNHwAAAGCrECvEKtUqEYuYpCkt1p9aNvILg+AnXigYy2PWj21vkOwfqlJXNoDLJadhSZY1cz6XyltWjPwE0laZJ04WNZdEXLJwbRKL0vwE4g2DZQm1IkK53Yx+axMAAAD4GhJ9fIVYsupFWjqzGC/E0vpTgir6WAZZ7gseX5GMLUxxsx+hIcKpXmzSmcVubFryQfZKmUdC2NPlHb/QLOVyfIXQy6elMKW+VPCmpVHSGiUIZcmS01IMHF8hx1lELQ/LG6FLRHNefuz1ofLuBtEOHEFhTScAAADw9SJSiMkkWe0mb0RP688RIlkEhiNgqpGmLC0U+g5zMLGTTFCIJeAJjyELsazkfI5YIkEhJtd9vQCQpV0AAAAAo8UuxNSkV6RmxD4oj7T+FIMIscGESRgIsb4ZtxADAAAAvoZYhZhM5OHT6MOk9eeQZNligstTiuT7nFP2+5mubwIhFlvQzob+voQRhBgAAACQOyn/xBEAAAAAAMibFCfrAwAAAACAYQAhBgAAAAAwJiDEAAAAAADGBIQYAAAAAMCYgBADAAAAABgTEGIAAAAAAGMiUYgd3P0lHdu1qa8AAAAAAEBe3DQWsfKuK3Rs75d0yv3svkJ7pvSPXwMqL/6RFi7w58UD2gUMxgF65bd/oMWlY1TXLgAAAEDejO5A16lrdKxGdPTDMRwcK3Hv3qSzH26ni+va7UZjZoZqT75E1f0zznXrfWr+8nlabjmXiv0v0cL+Bp35xfvaAWRl9pm36O2Z12n+OZQlAACA4XFzWMSmNqm8XrhxRRgdoPk3T1OZTlJj7/foDH8abxCV3/wjze/XXkDurLRMlQsAAADkT4RFbIOO7L1Ce/TV2qe309HVgr7STF+hU7UNovVJOrS6Scf4e1nc1yfo+LJpefKH5Yf9XmC/+krYU7tMR6Z7e9LWLk3S8dVJWjNFlBs3c3H5W3SWrtGRXdeoPBVIq7KEsbtz5UPuO35JX0xxGmtyPws25cCi7dNJOrs6QWvq2mSTDtau0CNeGsVvgcrTBZ+1L1U+UiLLjvP0fNjSJRawF4nF2fPO32PUFrHGuTrNvXiAnL822aL2L56nxXMBUTHzNM2/cIgq2sDWOfc85/UlKp77Hvt13ITKi6dZ7GlPTOfcKVp64yR1gpY4vSTa/sX3qElP09yTh6jEt3XeeIwar7ecPBiiUfwtfvI01d9kf9qNWqfozBMn1de84s2KWMRepqP06KsQYwAAAIZH4tJkeRcLCtoeFmKCWm4UQVSgs1p8if9jd7EoYYHlEzEpliZVXFMsWJZ7Aqg8LSJLLytqN5c9tS/p4BSnS4k/FjkiknZfIVq+nc4GhduuAh2KjJsFGIdjiiQJW/J9iNPSwxGV5U+3s6hy07hJe3ZdYdE14YXfbz7iOUDzF+rUZrFl+5vZtTf/SMU3tHjSwqSjly3boiFm+P4XWGB9YAqTGQ7zJSJToM2w2wunidywmNJTp2nu7pO0xALQ/cPbpf0idmao+UQ4PSK2qndzeJ+8z/ewaOJ4am9yPL98zFlCVekzhKNG8lA20pd7vBmAEAMAADAKBl+anBLrUs8Ctra6nd5d36S5vjfCs4iaLvjEiyCWpKOrRAej3ty8xCJRiTCBBeGHARGWCr8IEy6K9WrKH2dZrG7K4mamscB+bzdEXsZ8RDEzS8VWyyrChPYHLSqyiOrBIkzEiqsfWJQt/vIU0ZNP9yxPLFSE7ieGyOA4Fp8wrWEzVP2Hlk8MCZ1zJ9WyaPUpM06DD56nhhJDQouWnzDEEN/bbB2gqrmcOvM0lWc4zYZIzD1eAAAAYIsyuBBbnwgIH4vlLA1TG1Tmj+/NRvcjy54BUeSydjVjfD5kufFyOE79q4ukITG+jPnIjXONsGhrnaS11oy3DClibfGJk1R8Qb9peeE01d98yfidmamzwDtAdfV74CPLnnfbBVE3dl8VC0oWjhUWhS4VWUo00zyUePuj/spb9PbhFr0GaxgAAIAhs7U2669P0tEL36JDto9viTBPZDnzMu2hQNzW/WEpyTMfrRXqzrCI0pdBKv8wk02EiKXsCWfj/5m9j1Hjlw2qvHDaL8Zap7yXA0Kf4H61lHTOvU8dFlo1FQ/naz9Rm918DCHefmg89zg9+toMHX7GLvoAAACAvNg6Qmx9gi7SRoYlzQGZ2nBEWGApkSzLm2vrBdqzw3lJIJLc8/E+C5UDNK83pfvY/xJVZVnP2FxP++th0aaW/1q95UobLMzan8wYx2M0uDwO+IVZHrROcnpnqCzx7H+aKiy6fOkfVrwAAADAFmS0QoxFz0FXoExtqjcLT8nmd+VQoLOrBXpk92U6aLxt6GyGZ3/6LcncYXG1Juny4nQ239vetlxbnaSL07Ix30if5EMdFuseEJt/PuStxzaLrroszWm3kr6W38y9VLK5v2ouM6rN+geoa/iTzfALL7IIMsUO+6vsb9Ga93Zli5bfaHFYp6lmvL2orFjq/uwHx4oFrPTk0zT/5AHqfNAIpH948QIAAABbDetbk+qNwWl9EeSSfpPQOEKidwyF/6gK3xERTFlEjLf3igWQOtJhwr9RfuqaOkrCO/Vezv/S/lwi0ydHaZhvRvrSaFKgd81N/ezPO36DcdJFdESJscARGyLaOH2PeHu9dD6CFrUU+eiLhANdveMhzj2feHyFeiuRTtLa3U8ry5Ty12pR8w0OL+GYC/HX/uAkLb7eWyIMHk3hYRxH4Ufe2jxNFU5bM2pT/VDiTQ/emgQAADAKRneyPgA3EDhZHwAAwCjYWpv1AdgirLz6OjVmj+FvTQIAABgqsIgBAAAAAIwJWMQAAAAAAMYEhBgAAAAAwJiAEAMAAAAAGBMQYgAAAAAAYwJCDAAAAABgTIxRiJVofqFONfeo+EjS+stIqUb1es07sT4Rz39luOnyUaJafZhx9R9+ZX6B6nJDbPlJGc37/uRSqVanhXlxGXae+sTLh6RrgVQSx4iUkyrfgQnXwVjxlXOG+u+3v4IRsMX6skf/fbnX74Y8Dnzd2nGm/GzldjPadI3t+ArV4ItNOrPY1i520vqLQ0SD16E6TWo0lnt/Vkca0BzRkulWmaeFStuIUypGeaJlcv13qLpQpW6D3cy/0aMaZDW2QbYXz5AvOxKfrcd7aTXi9/89oHSE8sP43BLCF7/Vrq/cpEyr3QY12pVw+XmICKhQ+8wieSXp1Wc3Js4o8dCmRSOsvjHKub3YoG61TlWpKCnnJaI5lZw2VbgTFpuBOsqI5HeOlqiRUHG+NhpFezHUDyLv89pOuA4cxN3SfvPA2p513Xn9Tco5us1FlputvyqSBGdE28nSX8eGP4+dJve/3CvPgrU+Ga89xo0fQ2xnHs7EGe6zEe7WOnfaR9drdxQRZjJqjFMDSxivLUW1Y5W2IjWt41xMOSe24w41B6yD4Fjj6xeW/CSXwyD5CcTfD765T+Nzi2vPQtRYk31+GpMQi+o4QdL6i0Y1HupNYMFrWwMKV5RRMWmEWDC8LPTVMBIYtOGJ39RCLGZCZHGwuFam+TghpjpgmdZsg0bcb2mIy7NXb4MIsSQx4JLUYd1wkju21EOlHZdWCWsMQszXXow0+MrZUv+abELMls9BGHz8GRZpBf6wUJOs94AcN34MsZ15RNVThHtkG3LyNagQM4nsn1FpEPcsQiyWrPf1CM2bql7niQcoJ28xZSrY2+sg+RmgbgaaDwP5NlF1l21+Gs/SZKVKVeJJOakQ0/qLggumyoW7aATQXuQGzuFuPXOon1KpSJ1uV1/lgDS0hYXeJ/SEW6JqXX6LMMlyeor6q0upWqcF65PlGTpj+3AnzTFHW5CYvPs+0WJBBrwFJSjEH4sVqSssxQEQA49N3EGKpa3WSypU4WG2Iv+oS2MMjrX2yGSv/fk+2oJvQ0SA9R75xNyXBss8qsY6vvbydqMx6HyYM2OwiKVVswOqXsGmfBnfU4pNyct9NlO8i1r2ybg06S0ZxRFU5HEKPQW2cvC5xYXv/FZkBVXs9p5opAzjlibVE7PR+10zst89ylzuPHWEa0CEzgAWj7g8e+1gEIuYS5/pN9qb1dxutKng75FP3B6SliiLWLz1biDTf8giZsSl+kC8Rcz3BG6Uj8Lah6LymUAwbAuZyyEFKp8SfXuRGt0KzVUrqp6lb7QXlzheS+EwdguDpsRlMVdVwsQLq9mk5nK7V2Zmvrk85SFJ8PVPy1K4i/KX2iI2pHamcdLS5QdsDstX/5IuV4QYY41tzNf0ynVwi5iq22Kb08MJC4YTlQbV1zMuTUbkaWCi0iRtyB1PE+L35gtfwmPyM8x+aabbxecW156FqDadfX4avRCTDPsG6QjS+ovDVuCMr1HYGlDoPqNiRrE0aY2/91TT994QCc/WqBP3eDgNjlsXN3gnDeU1J26vDG1CLKb82hV3AI/bIzYkfOkK5FkNNj0BnbmTRw1agvptgKVVC1IP2YTYEJFy9vVdIw1e/4gRYl5dWAY27/5g/8qYz1Bax4Dunx0WREtLnA6VkBI7z3Efs4utWCHG95ZKHR2OgxIFvqUlJ4x6eS2Ud9fdFWdu+kL4xo8BxqfM6HhJC3Pdbrpe33V+D4kpr331cNOs8u49KGYdBwLp0uNoxRS2Ue1YpW0Ye8QGq5dw+zHnBr6Myo9C5z/0ABXTbobZLyXsoC7wucWU85AYuRCTN1HSPGWk9ReLrcAZ3+Rla0Ch+4yKGbYQs3bE0TcMLgR/R1M4HUfqpV3JWYilGEj8ZNh8GtfZvHob0CKm8tHHHrcB860GSOuDoytiMgqUQZBy9g2iRhp85WyUv4E76C/yv6GnaO/+YP/Sg72+smGdVENpHQOSBu5qDS6fcJ4qaiwIpi1eiFnQ5Sb57GHr4xa3xDIa3/hUDIkLM/298cpX75FtyCzXrBYxJ85q1y96XXf3QTYyDeIeOx4Mvuk+K8GxxtefEspUxnzpz/6Hxph2M8x+qfpbn4aJxHoJ0l89jVaIqcwUackysPhI6y8JHY5f1EhHNQSUrQFZK0oXbA5vTUY+mah7bZN4TINNjR4gIhOWbwePerJ0O+WWtIipywGFmMKZDMJdPb3puu+JVtdvON2SFkOIpWiffjK0i9AgaqTBV86W+ld9T+ZR7dcmXNVtOQ3QUYOyScwSXS742qUfqdNQGTHx7YPbgljTKkYtK/OYYeXSqP5oWL/ca98EGKrPIJbxaRTtLJGIPhHThnrlOvjSZCwp23HiOLAlypmJyo9Kn56Dze/Oj+F247IV+uUIGakQE0UdXicOk9ZfGtyna7fCgtdpO4SH5z9CiGVFNTxupNbwYhpsLqQIX3WicIfPfRkiIp4eAwwkvgkvkGevXvMQYj0SB1KXgfMdMekEhdgosA6iWoT6ytnf5pQIYPHue9JWYWlhJtfe/Sn7a5+krq888bVLP/0LMacdlLuLtMTheb9WuNyqQYuY4Dw0uBYkORvR+a5/FiR9/QqxERO01jhEPPjEtKFeueYlxCIeylKKiLG0xyxYy9RsW46L6uOe0E/fbvIvB6ef9G2YGHictjM6IaYyMEJrmIGvkwY7QEyndNPit6jlj0pf0bYB2SWPgS5jw2NU5+GBODyo6TBDZvge6l5lAev9LvnNJrQHLAdTILSb1CxWvfKQzczFsgQ9JiEWS5p8O3WRXoiNQaAJXn8LCrHwoO1hCoG4/poD/dSX0y+4AQ36ZK7FZi5Lk7p8QoIryp1R+ZDJsVlU/Tw0Dpn9JoSInSaVfHVpMux25rR7b8nPRKXb8nCrxvXwZCoPAM2SW645CDEVj32bQvKY75C6PUbkqccAD7Aa1U4CY7mHbl+9fhk1HpnhpF8VSV0OqYlOXyyqnKM0QZpx2s7IhFjayTf7JJ2RUAMyiC30AIkdIUg/HSN7BffIGkZSg40baJ17qyUzr86EG964qUksx8EHFCteO8goxAat/77z7ZatvrQikyTn54YQYinx7tdtJ2u5yxaDAfur7GP1t+2MKKFZ5BjWQpv1K+2GtR1GT0xSr7JhfYmW1RuXHE6NHzjkbUzj7Ug/uk/yt2wW7rixZcjtLNgeAvQ7n/TKdXAhFi8eAuWStR2nylbWsd9PT0DlVZOWdA21HEyc8fPmEmKxiTdI6y9PJM6ojjyO9FjJoyNlD0N1wGr/FjH11CfLwO2KeqL2TrPvamuU7b64+hgmXrz5WsRSM7R8R02EQ54go/CVc4b2OK72EUTSIRNGHvtURIhV2urFlznuJ84kFD6+QvWnSMOUkQ4Or+6FwyG1m7TUJJpTE5x9uc7t42GrXBrixpZhtzNnDOrLIhZDnkLMaSODWcRS47ZHfRlm8AeGkQixkeG0m5tKiPUad3zq0vrLlbiBPbFxc/POe4+UlTwarNPw4iwosXmJKAv7PTL4Bt9oCrs5E0tgYhhXmXvtYIxCbCj5jhNithcKeljfMhwUXzlnaNPe/WMWYhkm+Ui0EMtvgusfse5ZxUwq4san0bQzu0iN2CMWQ65CTGHPf+5j2Aj6hRJi8Sb4Pusyj3ktKxnnw8RxOpvgHelmfQAA+DrgWXvzEE/jFmJqctkKln+QmUSBMKQHWJALEGIAADAmQpacPJY6U2G31AzFCgoAiAVCDAAAAABgTIznj34DAAAAAAAIMQAAAACAcQEhBgAAAAAwJiDEAAAAAADGBIRYgIO7v6Rjuzb11Y3L1yUfabn+szuoUy/oKwAAAODG4IYTYntqX9KpvfypbWiXODboiPjVn5tJmPSLCLeboYw267dR5+U76G/u52e30cZO/eMgPHiMFl85oC/6bad5c7O1+4foO//9L/Sw/uzbd492Hz71V/5Abz8zo68AAKB/bszjK6av0KkdE3RoeUI7JFPedZmO0HY6ugqrSRRbqox2TlLnMaLSr69phxyQMH92C2379VWa+Fy75cIMvbL0FtFz/42e+z/aScjQTvPmZmv32/e9Q9+lf6Lz5z/WLkNm9hC9/du76bW5o9TQTgAA0A9YmgQ3D//lFtr8/D9yFmE8Fz9zjOorr9NrpggDNwcrp6ixcoAOwyoGAMjI0C1iskRzZJq/XOKn8vUNOnLXBpXVLwW6uLydjl/ST+piPZBlnPVJOvShkxZ5mj92lyyrFOjdD2+ns+vK2bM0HP2Cw+N7rOEFiLcMyFLOFdqjr9Y+vT3GgrBJB2tX6JFpd7mH4/20QOXpAh3V6U6DVy6ai8vfouPr1+jY7ms6P4xRFjQleeU0TjmXtD5Bxzm/F90yUaTPR5nL0Fd2n26ns8Ru/VpP7ruN/vaTCaLPr9MdjVuow99VyXy+Qbedtliedk7Q1ceM5cCQP/79Zf5dX/lhv//MfvVV0G+h0aFSw7IMpyxh25x0BZj417/RbR/xFzcfguRFW+I266Xe3rOPrtId/xpO2eHf/oHqjcfp0Vdb2kXTTztNVb9MWn+aJIvYnhr/7rVlbjOXJun46iStmeGpOLldTm0a7WWSzq5O0Jq6Zsz+u7pJx9z8JqQvijt/9Bf6To2/LP+czn/xA/ruvoc4F8LH9Nk7/0R/XrZbvGItYjseou/847NU3HFPL6zzJ+iv59/jlq+p/Yoe/tFDzvcvTtDv/tcJ9VXC9ZY8OU2/e+c95zsz+8xb9Hb9HD3641O0ot2s7HqGTpw4TLv464WX5+jlC44zAODmZjRLk3qQXuNB+viyO8hv8iRwhQ6uG5PEFAsRHnyDgubg7ss8+AWEmApvgs66g7yeoMqX7OIj7RJNGsFWZtFy3JuEOB+7WMBMT/REU1pUPji/F7b3JjRG9mvtMfOhymWzl1fl5kyOa2a5GMTlQ/3G6fXqgifYg5wHNbmLYE4ooxBqGfFW/rJJ27SocgTMJpVYOHmhKX+3eH4cNxFm26hwukPbTNHW59KkxHeV/7MKMRcRW/X/8ERWEJXm+75ScZol4Lpb71NLU09RK7gsKaRtp2nrdxjtYEr6ZE9Qlaev0ZFdHMeHHId2k3otTxV0v3VQDxIcrm/ZVaVPhGrBS6PEcewufkgJtPFUaFF0hQXRn/73Cf6/ON7DIu1/0r1f2MVW/NIkC7AdH+twHJTgI7+wUqKr9h6dZxHmCTTGdXfFmYdqA/up8ePH6bU4JQYhBgCwMMKlSZ74Waj0BnOxDPD1XYYFqC94cpPJwg1PPXmzEMocXjLlXRy2sjIZlgDJx+rt/Ysw4dIkvbu+QQcNy5hMZnumOG/GxLln14ayonh5FSS/7OcR/q0/WHTxxHjWrIt1PXHyb5nZyTViCKxC4ypNfl6gr4yN8Bv1W31+FGIRY/F0rT6+fVQuhcZ1mti5ja7fpx0UE3S9XqCJRoQgnL2bZqlFK5ETcHI7TVu/ubeD6YJPhAliETu6yg8Dvg3+fhEmXBSrGQv4ECzmzTSurW7nNr5Jc64Fr2/eoz+JIPLEk1jETlB337MsA/vFL8IEsYhdmfZv7r/Cbp/teJbuFYucx0N07757lP8QKy1uATM0O6uvo1h9lZ794Rz9kD8QYQAAl9EJsUv+Ad+B3bIO0hxe74ldsz7JE8Agg348sjSzdjVsWchOgZYuFXiC7U3y8r3sy9sGzfGE2Q5MhArxN73hLUWmYmqDyiy8QmXHabHGkZbPv/JbtEKiboK+um+TbvH50Xz0FU3cd2vEcuQo2aBtLAo36j1RvVnfRhufX6dtsnwZSYwQS2ynaet3CO2AP8eMtyu9jywr+kSWLMdfDvvRv/pgYei3zA3YX5b/zWeVcniPBdUs3blDX6bmHrr3R+94b1eqzz+6S54m79Ffz39Md7LYc9nO3+/84gT9dVk7AABATmCz/phZ+4LFKE+IB9WkzJPzNNFFdgPjwbWKXVVWsYJnDYuXEymsIVsRFoRHL3yLDtk+3pIji7Ddl1nkBfz6rMI3AizCfvoO3Ukn6Py/PEC/cz/m/jAD1yqm9qnJvdoaZvMLAACDMDohxk/s4SdoefIu0FKsJUb86K8mNguAWtZLCi87a+sF2rMjZ7sNT4ZnL21yuJucJ06/uta/KSZo6ZJYQ/SliZSBzeISx7oIP45PX/bYpMqQLIkOG3TrR2IV05cmYg0Tq5i+HC89q9jmfSmsYSuf0EqcEEtsp2nrN/92cFGsbEl1zg8JSoQFljBpSH0sRO0HFovVQ7R9xwp9FlhmjGXHQ44IeycgvHx9zaRnFdteS7CGzc5wC4hbnnbY9fhv6fe/X6Lf//OD2gUAAEYpxNY36Yi8EegN/LJZ/xrRsrGJl4VOzzrkbBw+ZrwF6If97TbeHuP75M20NTO8nFlbnaSL07Ix31i2EVGz64qTzoxCRixg5btkkzSnnyfUYPplP07Z3UzvIvndtUnvrvYrXwp09lOxchh1wXlQZTnoMlICE43rJAeq+g5Qlc369QJNNiwCd+etdN31u7NAGz8p0d9evo1bznBxrWLyBmjho434UlHHFxDN8GRsJ7mdpq3f3NuB7C3bfZkOmu1Z+uWuy2rpUeH2Sc+Pbu/m273D5ItZ+u5PWQx5y5CyWf9Zond+3p916ouPqcti7N6aux+Mw9n3K9onYWuXIK5VbJ+8MLBst5wJsw/up9mVc6odxLH3+6LWV+g3v8E5JwCAHqN7azLla/wy0XhHXPBT+7vsh2pf0iM8+cgRD0s7jOMwEsILHhHhg+93l1/S+lPIpMQC8hFvDw1PVPLKf9Bi0BcsUvfK8k/gmA4TNYEbk7Bs0ub8mhu3+8lH1PEV6riQYJ7jMI99YNHhHC/hP1bCOyJCSDy+oscmh33VPQ6D/y18dJ1uY8FW0H43fnKHXkK0YB414UujySZN/jrwtqbG+tZnBLbjC7y6SNFOFSnqV5FzOxDrnLx12QuP06eOsDD8cFvxjqNgnCMuyHmw4ro+foHj12+IOmg3bgHmcSrSf49HWqAsyFuT//Xf6Pz//QF9l8WQI5jCx1d4R13YMI+a4PBEVLnC68ryCfrTeXKEHr1Hf/6Xn9Nn+jcX59iKFTrPv0UJscjjS0z0G5P0mx/Ts28lKDYAwE3FSIVY6skdgDEjf7ty46OIc8lCRJysDwZDCzHzaIlRc+9P/0J3Lv8o+qT+lCfry7Lkie836NlnXyXWsAAA4IHN+gAE2TlJGzudvWLpaNFzz71PM/Xe35oEXwN2PEt37nD2ikVRP/wU0WuvJ/55o9W3fkw/hAgDAFgY3cn6Lv0sewEwMvzLqS6+ZVUwMkLLjYHT7IeH/AHxX9Gd+srls3ceoD/j6AoAwBAYzdIkAAAAAAAIgaVJAAAAAIAxASEGAAAAADAmIMQAAAAAAMYEhBgAAAAAwJiAEAMAAAAAGBPRQkwOKlz6A739yiG6Ef+eMQAAAADAVidaiK2cokfnHqfG7FN0GH+jFgAAAAAgdxKWJlu0gj+LBgAAAAAwFLBHDAAAAABgTECIAQAAAACMiVRCbGZ2Rn8DAAAAAAB5kSjEGq+9TnT4LVp85YB2AQAAAAAAeZAoxOqHnyJ67XGaf+597QIAAAAAAPIg1dJka6WlvwEAAAAAgLzAZn0AAAAAgDEBIQYAAAAAMCYShNgMzc7iUFcAAAAAgGEQLcTU35p8iw7TOXoNQgwAAAAAIHe+cf/99//ntWvXaHJyUjsBAAAAAIBRgD1iAAAAAABjAkIMAAAAAGBMQIgBAAAAAIwJCDEAAAAAgLFA9P8BzSEoMrL+5LAAAAAASUVORK5CYII=;" vertex="1" parent="1">
          <mxGeometry x="740" y="90" width="755.24" height="130" as="geometry" />
        </mxCell>
        <mxCell id="Xce9fqfD_rUZ55vbkONO-9" value="" style="shape=image;verticalLabelPosition=bottom;labelBackgroundColor=default;verticalAlign=top;aspect=fixed;imageAspect=0;image=data:image/png,iVBORw0KGgoAAAANSUhEUgAAAw4AAABwCAYAAAC3gidhAAAAAXNSR0IArs4c6QAAAARnQU1BAACxjwv8YQUAAAAJcEhZcwAAEnQAABJ0Ad5mH3gAAD+vSURBVHhe7Z1fbBRXnu+/iRdI++JO5JhR4iY2toTUVlYkWWxnI/DOmOYleYDwkMmQiVglmFyQ8rLzMNmAIBcsYDMP2RckchMT7qIEJpMHBh6Sl2mcWUAstjNs0Ea2hOTGDu5Eie0bbMZWnHXu/f1Onao+VV3VXd3u9h/y+0gFrtOnzr+qOvX71vmdU/c89thj/w+CIAiCIAiCIAg5uFf/LwiCIAiCIAiCEIgIB0EQBEEQBEEQ8iLCQRAEQRAEQRCEvIhwEARBEARBEAQhLyIcBEEQBEEQBEHIiwgHQRAEQRAEQRDyIsJBEARBEARBEIS85BAOUbRuS6ApqncDCRvPQ7QJiUQTHR0SJ36suPzKRLQpgYQqTI5y+dXVCYuiKbFw9cmU30Oh5ycvRV4nS4ymxDb/9vypUez1E2vFtkKOc91H29Aa0+FhKfl1Pj8Udd/6/cbtrRqtyPYLRb4+jvvOVvo3A9cvU65C+4156FPzXDexVr9+YB7KlZNSt7MgCD9FKh566KH/pf92EW3aiMe+H8DFwUkd4k+ueNx5bm5tQlMTbbF7kE6N4nv9G1asQiP1V64wfog1AQMjdlrcmW3EqrEURmHH/x41TTWYSVGYcyDBHfkzbXic8wrYopMDcJIuBN+0o5gcGMHMqkbqiNNIja5AzK9cjF9dnbBJRK0/so8LQ956x3BPjrRXOOX3RPAr8xwIez2VG+eajE4a11kQ/KDdjFbdlrF7fNrJw6rGJlRNpvLGC4Tvgc2t6n4ZoLZfzLjub9pc95fv9eNuT3Nzjo3G0FQzg5RzHPcBz6Dt8YBjZsz7qBErRrPv8YL7IR/YwNq4aqz48+plIe5bv9+4vdW9MEPXrn/75SWr3yZcYSsobZVxQH2i1Hda/amdAtevccWoLpf7WD4Xz7Q97tNm9nWUL79weK9v1/2f1ZaevoIM8BU1jc6x1nU3x77eh8Kuy8LaWRAEwY+AL0dbbx+qBs6iZ0QH+RIcjzvdVvTgrP7Bu68enC1Ab7IfE1aI9bCJjWTiqPRVJPTDjj+B+LY4JpMU5hxI+KVXLjiv+ASSVE7uuFvQi2R/FT043OVSdaa+2MtID7XXpF3eEcTsOpa84Eb7ZRo5662Ti4kBJLkNS9qeYa+neSLrOstP5jyX/epyrmU+D4uVrPtZX1fga5uDfK8fjuNz75rwuYlPWtegDsqJkw/fR9nXWFH9kA/Z9S0nJbxveT8RpxR94GMGqpBQ98Jk8feo3/3kCiuwPlSunnQtWqsGdLm8x2bwvy/98iuMoOvbVV67zfVufuZeLjd2mUbotuuhf/0oTTsLgiDY+LsqxeKIgzqVfA+QoHj0sIrTQ6PH+GGkhzo2ir/0h0Kp828h42ckU7doPIFtPp0zC4SzZ2lLDmCCHzL8N21527Ws8ENGl8tvK+hBGJKw15OwNPC5v9V1RfuxWKBpOwfY4LLdKMy/81CqfkilQ/8vaP9V5H070e/0O6GPKQYWCtu2ZbasNyZRxBP8m33uctSHylXooEdJCbi+BwaotUZITKgyUp+ufzFhIeNqB9rK4f5l5WMJdRZ/rZSPv4vkIm5nQRCWJD6uSvRgbn0M3w9czDNknSNeTSMe5w7L9QP9HX0cNd/rofCgYXN7aFdtjahZsYKSo78ba7Di+1GkglyVOL0merC7jjc2r4tCUVhGS206iUuDVko81FszegkfXxylznwBXJVykmvInt9EmW4jegibDQB2lXHauwRtFup68off/NmuRWl6oG9sa9XuHTFEJ8coTV06u9yGiw8/XC2XBo/bh3bPSIPSo2N80/MQ6BqicLdlTpcmqkPrxja0atebGJXjvthmNJKwctpHXxtj9zVm6huj8zNG58eTbKw1Qe2TcduIRe/B2CSdMzOe3Tb0O7tyTHI7trbhcSpDGPerLLh8jSswarg8KBy3Fwr1u+bpWgh057PJclVizOu4Bo2PU96f67xd95HH1abYfsgFndtnGjCW/BgXU/fhscRjuK/s7hxluG+Na8A5hsNL4arEadD1ezbZQ8b1gLVN0n1vXwuqPjUYvURt+Lm7Tpl7VF+/+npULjRUHusZ8D1GA66ZmkY6lzNe18A5uioFXN+qr7fz8rtuqI2feWyGDPUkeux2SN+DeJt9zXC5SJSouuZ2RfPDbCvrmfO5Olffj6ZUXmOrNjq/e+/rubazIAiCTbZwiD2Gtpo0ej8PepBqcsUzDQiDaMzo0Pw63qwHUBr3xPQDJ3UP+GVm4BwHTq9mFJc+vojP7U7b3AINg3BYHW8TlqeSrmHxjEGZY44DGzD6QXSP3YE7D/iFEA7W8LV6W9Wj22cyhs2bY5js6bEeevTAs9p7bu0W+noKYHKEy0ZGCD8sl1M6l+j8fs5lHgOaWtAa1f69kyNOmdloYuwH6j2xRncb8HXG6VXRNXqJHvKcXnqGitqG+H3uB65NbuEwiRF9naXvieWIFyUjNA58fona/XMVPzV5DxobqHymwcbXMovg5ZMU1Spf+r442uL3uc4HX5OPrRjAJbpf7Gt+DKvQ8lgjXYeG0cNtQ7+xYOARgdiKSasd6f6677EWaw6RX3GDoOt2JtqK1ph5j9M1tbmJDNKeHAY5Cwc2VCzjxdrYiJ3EanseAzuHZxm+loGzgs7n6Pe2nzadfjagXfeRx/Atth/SWPf8CgycvQT1noDzGZhB4zObEfcYZqWlxPctnfcE1eNz26BN83VI1wgbxk4bzVE4OOdTb3we+bqzLgb/+rChXZNy9ff29TgZpevk+8/Vm/17rAr5XKOUb2sMq5bPeM6faaBnG9F5Cbi+H2trxCp73oKfQON24D7FDOPrq7EKk+q5wOXyF1BhsPsz3vzqE/j7nNtZEAQhQ5arUlM8RkZQ/iHssPG8TE4UesTCw2+9E/FJNeRbuI87Gb3UVhMTVfQgi2KiP6mHif2HukPDxoBnSDx7SyAe9boIEGw8TtADxDUST/tURopeUoq9TrIZgfLbdhKawAgZT5PxAP/tvJBRQw/SETu9iRH09JI1WnR6YahS/05OGq1BFepJ+rmvUXmM8k3095KkrlWTLi3ovNaSAKADzbadGOkHXVrqWvMl3UtGp30+JtCfa75BDtQ8HbQa15oxvyEnE9TupssE1VGVQ+8HJhBFldV8Gu2CUeR9lKsfYsHAdWLfeat8Jla+vfQrxyl4Ba0FuG+jsVqQtZipx0Q/pUFpkZ2o4NEIlafeLxTbfce7Oeey+OssF1ES1zHKu2cybrmSuchcZ8XMSwq6vp26+V13VJZkutZ9fhO1SJeh7oIgCAuFe3I0P9QSVeilh2XOfi5fPP37gOuhy2/LjImRHEfNxTKMSn6AZTmE8gOAjgkzOTpoEqBmYsA9WjAfsBGSqE0j6S23U//STo5mkROfzFfPzJtL59mu2p6CeoBW+xwUPPnPQ77rJCxcNmeipRt2HXPaTrepd1KxKw4TNj0DPo9hJkfnjReltm9p1QJggnTDJAZ6DQHDhKlHvuudjTlP/fjaiI2EMe5LgHN9m9ePpw/wg8+Nz+ToTNk5DRKjdt/i5OMzOVq1URH90AJQzvvW75p02pONY3UvzGFytMJy4wwWH7of91RP9Y/GQXYfrcJzTdo1z23Weeay+ByzlFF1LOSlhru9i25nQRAEDy7hEO7hFS4exynFaiYOTvwA4TAPeDvfbDwPR/VQpweaDrOO55EL/bBT9VkI4cBYRkhGpvGbVMPAKvT8+BC+LHm4m4SDFyUk4hihPB3xEKYeRZwfPh8/KeFAePsd734x7VgOwt8rRdy3HGYa1ua+cy/MVTjkotSGvNUGpoBSfat6QcP1Lk1+6lrxvscy8X2xUpyAKpaC+xtBEIQ5khEO+mEy59EGA1fH630D6veAs/E+6JYEXqPIeoAEGjIDUcPgKd1DNbwBkodc5ycMBVwneVECjAzprLQsI5KvExWuy+w2uL3nhYOs9LKWMMxR5rIJByLrnPnWwytqCjeOOJ9SCgdlrKm3lT4J+l4/XqPXRBtUVR7hoM5VgPXGhlsv0KLy8RcOTNH90DxS9vvW1Y6G2CiZcJibwayuJd+DPcIooF9lMtfjPLw9L+q6KfyezUeh/U34dhYEQfDHEQ5hH1xlf8Ax/FtY4aDiFj+EWzp8DNRcOPVfOOFQ6EOnEEp2nTBs3MSr6Myl0dtL14tKMkrBLWQIJw0Dwn0OeBJsSytfG34jQTzvZCTjJqTf/FNEX8MpbFvliqce2lVp9Az0G6MLlC9dv67rRl8buYUDoepB90lPL/ozCSLGk8Z9DHo+J/MmHIpFnevSfcchL87xOr8F6k8W7L4tqXAorh/jurtGgUzU+Sh0nkDpDfQsvNeNw9wEVKEUci2Uvp0FQfgpYgkH1WmEMNTDxgtDYMdLlDKfeUOEg0Opz582bpIjMRICMW3U8eToXjJy3GWPNrWiJa7jaGGAFmoTCuAJjyMx/faZJzLmSU89aANedptvrsPGs9p7AOmqOGpjUV1GMiQGDMNfixoL+y0gX1uZN/Vq4qbdsNTWLHicSdOU3kh6AD39mZYPLN8EGf0ecVIId6VwWCAW7L4V4VAcgdfNPORtIMJBEIT5RgmHsJ1PSR9YuR7YqhPL/dZvISY652ZpCgf/YesMLiM1JCW9ThjHuCnKohHKRFmuHxEOOiSYkrZ7SYVD7pWZcvXZwXUqxoVmoYVD8e1QKIX2taVtZ0EQfoq4JkcLwqJEhIMgCIIgCMKCI8JBWNSo4XXTzcY7uVUQBEEQBEGYF0Q4CIIgCIIgCIKQl6wvRwuCIAiCIAiCIHgR4SAIgiAIgiAIQl5EOAiCIAiCIAiCkBcRDoIgCIIgCIIg5EWEgyCUga3rx9FZP6v3BKE0NJ26gsTLDXpPEARBEOaXAoXDDPa0jeOE3u5+w+gJjL10DF/q7esnHtbhQmkJ285yPvz5qd2Xi5fYoSvYdpG2Q5t0SC42oZXj6m1eBEH7YSu/Ux06YLGzCUc/vIye3k4kdIggCIKwcBS9HGtt/W3swUrsH6rQIUuHH57Yh68fzzY6l938GA92f4xlet+EjxnDe3jo2lc6pMw8QEZy+zOYekCX87trVLa/YHrb3yFy8gQqrdDS88Az+LodeOjsxzpgfgnbzvN+PpYIS/m+VFROo7MJ2P9ZRAeUn+jLp5F4Kdton+g+gd4DXYV/UZqN8/Ykzh64oAPyw2VowT4k30vpkDLS0IHEQSC5o0sHLF4aX3kfv294D62vh29LQRAEoXz8JF2Vll07jEe6rwE3T+CRk68624PfPYyxbc/oWAuIMt5JIFx7L1M+EjT/3b4TUzqKIAilYeK9Fywjv3sfzrY95Wy9NxvQsmTezN+9DKbmQUwJgiAIoTBGHGaxtekOttTYbg4V6BuuQG1Nhe/bv5xvNitnsKdpGrWVs6hVAZxWBOeGliOt9g0qp1XcZv0KPT26En24g9pvq3F81ApThI0XljU78WXDXywBYTCxbR8ZEIcR/U4HaHK+4dajAz888DB+UAFfofI/P0b02rXM6AXn1/6E9fd3H+MR/UbfNfrBQobKM9W+D/9N4sZbBstVxzPioPImQfGA3lcjE/S7faydL+d57WESJE9YZfTGU2kHCROKa+Zp1KWy+1VE8QzGnuD6kyj7z8PuNspXPg+lGnHgNhxbkxlVUqNJ1z7GMjPfQuoRCnYZuoNmvZcevt99f9TcwYmmGSrccpynuFuoQfk6Pv4t3y8zdK9U4Pxn9+McnYTmpnHsqaFj6Pf9U/R7Hf/O0L3UT8eM+o8o5BtxaG6i3517nPOP4PhQBGk+8QWUzyZneoyTZgQ7h2bRqdIhKI/jVI8+Jy1327mhuBf5fjcodX8QMErQdOo08MYL6F9Dv7P7UeoEzuo39ZmRihQGdlAc277VaSW7E2ihY6IqMIWRA/vQ0+1vBOcecWCXpsOwP6A+cfKF4JGJhg60HtyJmB5AmSAxlMZhVHU/RXlbYfaIQ++nJIxe0uVLXUDPG/sw4kk2dug0WtszozFqFOZkFybMeFxf7Zo1cuApDKCD0t2JKB2Ws6wh4BGHI9iPX71TfBqCIAhC6dDCwXpo1w6TkeAY97Norr9DRsFy7CxUONCxtZUVGeOBUIYQxd/Zv1yHMLMqX5iGEImNPWSMYMg0AMLGKwBf4fAwCYeXCxcOdNwPD3zlMkqn2o9RfEsI2CiRsOaacgMy3aHscEtM+IiDINTIxMOImoa4FjHLzDqoeGwgf+3EVXk+/jUeonxcrlkFuCpxHSeo3pYY4Dp52i9s+QzyCQKbXPHUbw+w21lGuP2whkUBleVsdrvmrUcRBN4f7IqzftoSBEPAnvVsLJNh/NlKpFfdRqd5v2mjO01G9/F+2xin+5IE/tYp/3sv132pfqvktDICvraGDPD6WZyj/JVhXkD5QqXHcJosHkh4nNNigY/trKvAfhIErpcJKm4+V6Uy9Ae+wqGBhMNhSziw3Rrg4uOIC9u21Yb0BBnjA7Yx3kDG/0Ey4D/1N6TDuirljtegBAZMgdJAYQepfCc9wuEUGfaGWFAi6BcXVN1s1yyV15ou9FKbOGHtLAoaSCjRcTrMhud3xNdQYjcvaBcvT/sVgQgHQRCExYVyVaqtnybRwG9HzRGBCvQN3e8rGvLjFg1MH7+FpIe7G2s/PWUYOfT38c+8D/+w8ebGD088g9vffVyEsegWDUwlv9225ydollFYJRnTE2t0gOIJTDz+sIqv4FGL774KNYdh6oknUOl9e8/G77WvcZt+c/EAlcmIu+zae7j/u4cwbY8EFMtNMt6deSFfkWGeMbYLKl/JIKN/zdcu0cDwiMNDpOEmgiZU56hHyVFCgAT01HL00vXLIwhsTKe/9RmRU0a78QZfjTjQfh3dszokHLPYWkP3jGHkMzxCwAJhqzmhOlT5CkiPoQvaTodJD63E+alZtIS50LOYn/4g+nIH4je7ijR6STSwcW0fq4z0E8BLHXoEohxYIwOTN40Cp1Lo2WGIBgcqj1G+iff2YQCbnJEKTiv+i5RLNDAT3V1IngTiQRO5PyVR48wLSaHfHIkRBEEQljyWcCCDPv3X7DeUxcNuT7edVV7UZrsouLCMotomO95tdPIbzixjImy8AuFRB2OVnrEH/kLGo9t1KRxkrLbvc6XFLjCW25LJNUT/8ysyqDPzKFisTLFYuakDQvMEpslA/hs/4/bmX1C55u/cbkdksLsN4dxv9MOy7P8GpVNg+UrFA9TutH1tngvznDzwkI7oJrge5SFbIAQw6i8m0oUa3ZV0/9HWad6T9sb3pkfU5y1fgemxCDFdnFgAFU+Z+gMeKTBWOWpZkyQjuMhJud3JrDfySHUhnWowjPNSw2KgC1UH7TqcRuLUYf/8SFC4y+ex7hsSqGrYhITRHs7G7ldr/CsxWcL5CImj7+P3u1J4V0YbBEEQFg1lmBxNomH9bTQjgv0Xq7HT3vzmNzDs6/yZHe9+7O9fjhYSHVlGQNh4heCZHM2iweW2Ewp2a9lHRvDHeMhI6xFzfoOBPeowpkYd6Fg92uDE/e4rNVJRFqP6pwIJMde5MLeihOFdwpTnnjQ3HmEolFKnVwjl6A88k6NZNBS8otJCwyMbO+w6vIDkG0nEDp4uTqykTiBptIdrK1ZQFUDy9Rfxq3cbsOuVsiktQRAEoUCUcOAh/+ZV7INcAipnLNFAD3KXUAhrCbN7xBSJj1WeN5ZewsYrNw88YYkGr+gIdHPJjDqw3332aMM1RG4+hGmXO5MfHI/f6utdE36bz2/19e7CsEDl++4apUv5ztUFa7FQ4zdSx2/0K+j617thoPulj44rzjXIh1KnN1cWrD/YhCo/u7Y94UxmdmjoQG1DKmsCclkhITFyswFxY4JzKFJJ6r9N1yVBEARBsIXDUAR9NTwR2njoVlqTozt5pZNCjAMSIWkSD1udtHQ667N9snmC5AljZRQFHdtSU4G+bzOuDGHjLQhqhOAJTDgr+DxMomAnvt5GwkCHeLFHHXjC8rKb2SMTld0fAzzB11gVKJNuZuUjHqn4gcKcFYsYnnz8xEO4/9oc3qxzfew0efRDuWHtDKxPEGUrX06+QpTnUGzbZ5wThtuP6qFXUVoykDG8h+8d59rnydHTamJwaHcnRQXODVVgy/rbxr3J8P3J91ehLw5KnZ4B9x92fbkfUm6Pd5z+Y8H6g9QgJhs2oUkb0zxROGGsduRmE+Kmm5CaHL0JkwfoutRBpYYnM2871OE29infWHsK6YDVnIJJof9kiupwGk0u0dGAmMonzAfuBEEQhLuNzHKs/LCmh/EWxzeZBAAvrWiMHDhLRPoxaqyYRCLEWXaRsJZo5BVaWDwsd5ZWVKuygERLJRkBZHyo+CQ8zg+txDljucmw8cJirSjkmbjss/ymWhkp6M2/XjpVsYYMemNOg7X0J9Q3IX7ANfdSpprAVY0c2GB/2bOk6ImsSb/KEA+zHKvCLgsdYyy9ykuRPmiMevxAx4w59SFhpOpD+eo0A9uFl3z1rsaUr3xE2HYOfT4YdgdTH9DT+zzhXNfDpqB6hCDv/fHtjGFQW/cB9DFq6Vb63RLY+h7hVZVWLVfh1nKoDE+ONlYTIkLflwzdQ+Yypnwf9an7k+LYS6cqQpSPo+VKj/FJk0cqzKVX+/rdk5pr+SWGUV+r/+B5HSqg5P2BWlHI8wG4oGVEoy8fdi1hyqsm4eAVxOlwXop0pP0KWtvpt+59eZdj5VWIVFw/2G1KuwOFjWetuNSF9JoO1JKxb5UxhYGT+9Bv56tXfLK4gJ42Xh3Jvdwr18Ncgclc3lXNjfi0Cz3vZVyVAstnLF1bLLKqkiAIwuKi6C9HC3NjYtsxTN0s5lsBwk8GLRzKPl9AEBYp8uVoQRCExUUZJkcLeXmA34RfQ1REgyAIQiCD77yHZGMneno7kdBhgiAIwsIhIw7zhts9yMbrJiQITJb7kdflSBAEQRAEYZ4R4SAIgiAIgiAIQl7EVUkQBEEQBEEQhLyIcBAEQRAEQRAEIS8iHARBEARBEARByIsIB0EQBEEQBEEQ8rLkhMPW9ePorDe/VCswTaeuIPGy+yNWgiAIwsKz8cQEOv7xR70nlJ8oWrcl0GR9fTEHYeOViGgTEokm/VHIAoi1Ylsxxy1WimqHKJoS29Dq/6l+RbQpgUTWyeTj5vEcF8ISPa9LblUlFg7No/dj/1DhX4i9m2HhUPup/9duFzOPrv0Iz1fTH+Nv4cCNK1agsGBUv3YVazfQH5f34uqbSStQEIQ5wcIh/u8r0fVvd8kg/+ZO9CS6sz7Mlzh6GbtSLy74l76VAVk1gLM9IzrEn9zxYiQqWp0vqmcYQc/ZHvrXAxuBAVbtxEASyf4JzhCJFqA32Q/as+Dj4pNImmEq7zgmk0nwYf5xmKAy2kxgwE4jiwLrF5Yi2yHWGiQK7DpYAqBq4CyCTiufzxb0Wnk48HEqM5928LRzKVHiKO4jCoz2DTyvbvzr5UNgnhlGeoLbLyyyHGs+KqfR2QTs/yyiA8pMQwcSp3Z6TnwKAzteQP989MWc/0EguaNLB8yRyCNoX/1PaK9+xNqfvoLuG2+he9raVVT/BocevCLCYbGw4Qie3JgU4SCUFDaeN67RO4pl6EpEMKr3lgRrvkfHie9hfmKFB+4v7VyJS/PxPR7Ofz/QtXOFDlgIGnC0933g9Q14/U86yKZxJ37/4Rq827IfC9d75DcwLXLEUwZYLdJ+BmWu3zSBhp6PwTx34RDDSKGG/hzrF5aC2sEh6Lz4hecRThMD1GYjiC2EcPBDtW0VBgoUDkpUoSevEM7drqVD5jgsNlJdSLY9hbNt++jCuoAe9fc8iYY50Yi2vR/ik0+Ool6HAE/h+XVv4VF8hGNXn8MB2o7dAh5dp0cZhJy8+HYv3t77CuozDSoIS5ZLO6P4l0QUf/wz7fw5Qv//gI0/t35bMtxcQWKH6xHBAAmfP6q/50k0zIns/rnY/qXxlU4kBt/Du17RwAyeQHJwE3a9soBus7E44nR28tlYoeMJ80wVqqL0bzSMAw+/vT+Ls0FbmQ3oeYHEQJyVEV2vi8XdquQjDs4Xb0dXYv/UDPbUzaBW/VKBvv6VOD5quBjV3MGJphn1Z19/Nc5hGnvqp1FbCaSHTXckSqftDpr1nvs3C++Xdjm941PT6FxP6ekwTEWwk0cOKim9Js5nNlO24QjODS1HWu0z7jzdLMfxiyvRp/eY5qbblH9m7kV6NILjQxGkvZ+KDs0mtF5MYEQJiCA4zmFHbU+czOGq1NCB1oM7EdP9+UT3PqrrYVR1P4Webg5xp+WGBUxwOerbjuL1vZuBi6/j6JE/YUiHKzck+Lgg8QjDWpCYeAvf2PsPXsGxsafwy7VP4Wcq0pf44sa/4sPxL9WeQ+SXeH7tc3hUDwB9M/4WvsBv8LOx5yiuFcY8uvYtEid6lIP4Zvwj/OHWH/CNd6SD8mO+uPEcuvFL/HL1c/gZpf3NyG9I5HyZcaXScLwPp3+JV9dRPB2G6Y9w4Pof1J+lyteCH/ZHsbeNmvaDd3Hkfb8ndYHUJbD2t0dQXaf3h5O48bu9GB/W+4wecbh+ieK+loDV1IMYf3MfblweVHsOdbsovQ4nvenLlBaOIHLpSYprhTHVr53B2g2Neo/jdeHGmXcx7c2X8mPG33wSt0Bpb+9AhNKePrMd188MZlypNBzvxpe7sO4YxdNhGO7C1VffVX+WKl+HkPWdd+y+lPu4oVl00t+qb5uivor63T5PP5Svv2KX0C3UD2f1dTwCa/epdn9aED/i2eQd4BAJCOrv//nnf4N/ObRM/6b5OYUf+EH9OUDxLuF7PLvje9SsocfKKcPdJ2y8NT/g2f0c/qMeKbgXA6dW4NK/LcuMdhhpsTj4F/1Gv+Yf76Bjh56bQGInU1ZKM/nfGFACIgiOM03GqYWrTF7WUNmpjHE9IjNKeQ1Q+9T8WQstT1puWMAElyOofy62f9n14WUkksHuSI2vvI/fJ7rxq+dPUK+Rg/pX8Pbbu5SQuXikBUcuWsFzowSjDQ5Bb7Nzuf9YBL4h9nsjPOcRh1yuSrlcU4KOnaOrkkFB7aCxjhnBCBXMPZJinbO4Mp6958BTFzXSYKfNx+UacSi2/Yqg4BEH4zoAH5tnJEiln8NVydUuxVMeVyX9EEvTg+V4v/0wmqWH1R1snSJB4WP0b62kMPWQo/gUd+t6erj0349zngdebT098JCdhkLlC+ynB11GAPjNiyDBQPmZRr0SHpTuzv7lOkQTwlVJlamS65oRHrU1LIJmce4zt8AITxjhkCH68mm0YF+AcGhQogAH9pFI0L83UNjB08BJWzhoCnBVqm97Bb/+9S604U84cvR1XMw8kYin8PyTT+G/SBx8oUNM2td9hJ/d0sa+NqS/0W5MX7CRHaHj1/4Gq8ZNQ/oRSvOfAFNQRCiMjHXYaRE/W/0Wfhkhg50EixImHFbNxvlqdF/PLg+Lg/YIpTf9H3QMGfmUT/s6zuc3lkuVV+houA6PGuUreb429Zux9/Wjqp0/oAf8+xdzPo6DIaN33W8bcMsUCkpIdGD6d9txyw7ThvQ0iQonrhYckcumId2ItefpujIFRR2F/fYMcCZjSEe2k/FeRwb7m0kyhXTYBjbOqSyvsuHthsXB6kcovS8v0DFk5FM+q49RPnYZVfmA61v2Oukxq49dRbVRvpLnG7K+oSBj7hM25nJQsDGl+ip+EVOBc1oscN/UWVfh6hPD9Vf84mQGvZ4XJBbcP09jpJi+TRno0C5KuY3v+IEJbKwnQ3uIDONDKyj+j9h4girV6X7Dnz8eCYY192LUc8yzJDVN0aJEwj8sU25ApvuUHW6LCYswwiEDp/EsKgOEA4spKu+hShIJttihsP30DDxlCwdNAa5Kuftng0L6F+WK9DJSfm5KNipOO5LPv4h3cyRVFuEQ0vUjdDxNaB9zhW2MagOc8zKd973Gm/f3IEpk9M0fBbaDLQwmtdDwGtmBYs/KhzJxwvl8JWrTOv1cwqGMBBrx4eY4qDrQb24RZ9W1yp4r4iWHICslZRQO2Qa8/TA65wlXwmEq3ITnnMJBPdBuo3aoGsftnl+9IaMHou8D0CBIIOQVDrPYQw9RfuC660pQO3T+j0ioemVTSuHAaXVgMsw8iTDCob4RL/76KH7Nb6qOvE4dvs/TIfJLvMrGtn4T70UZ2fhXy+jWhvmHXpHBaaxbjT84BjuLkefwzXWPYe2ChMS655Shbhr5Csrn1cqPDCFioQz4aVOgeGGD/q2M0GF02bqdMpcjXzeZN4fv4ugH72AoyBAIgN++V54xBIKNHmFw5jRow/wGGeYu45qFx7EGFW41P4mJ8yQ6XvVJ04EM62MdylDPOmWUzzoy7F1v9AllwA973vS7YIP+DCKmsa7LdsspcznyDVPfBUT1dTPo+8x84eJ9CRO+v+K+1O/lTf4+MRivwa6M/iH/N/G5fjMJG8+FrwFuvdVXoyGOse4XxpRSOHBa32M0zDyJMMIhTP/sQ6j+hSdFH23AuzlFwSYc7e30nwNRZnjVnfyjDTni5Xtjm4XP6AMbgzEyDtFKRrDHwPMz7HyNR+NNMwd64xRbTvXWeo71C0tB7RBkEJvhfN58hIPOxz2qYYoFLUh0pUs6gpALdY5M4eODz7m3BEOUdFWAOCAC4/hdX2WgfMJh1fLst/eE38OIhUPLt4axn4PcwsH6vbOG8tYPNf+RBHqYNt3BFmOoHlOcXuY4h3wPSfWwNtyhvIz6jGKEopTCgWig9A4e1q5KKUykUhh4g9L2Rs8nHOy3REN/wu7drxvD3h4KFQ4Bk6PZYHe9gdcjEZar0pf4ZvpWZpSCUQa94UbkxWf1Jjbg/9bj6uSFy/tq9X8YLkkeN6wy5ZvNZux9+yja6gfxwe7n8X5o8cBGbwJjXjGg8PzmFRIGbLBn3sATLtenQUwPpzwjGh43Ii8+qzexAf9gHtcfHk1Yt+GC4ZJ0FWthpFWmfPPWdyEJ6KtcfW4B/RX3pVv/er/ql5XrErUmp53O0b/nhI3eEz9gwDSQeQRix72et/kWLAjijqtOMPnj/YiNB6aw8efGcqg32YD3jiJYBr45uhA0ClFa4UAod6pp7arEoyMVuNRJaXuFRD7hELZ/DiRP/6KEA2mCnJOfF0g4aEOtlwy1nEZT2HhFYRr8/Ldn4rKfYVeMcFj0FNEOeQkYcQglHOy/7Z/5GiizgNLXWaHCYU6EqFcuQRKWu044WA9G+63bLPa0cX5m2taoRPPUStdQPWrouPoiRhz078f5gaqDSoO/cGg6dRp4I3vkIK9w8KKERAdGKC2XeChkxKGOHi6BQ9sFuiqFFQ5elJB4Dv9FcSwXJ0uw/IEM/Kw3/wGEMuCVMPh7fKFGO9hlisvlGYEoR74GcxtxKJNw8KJdn8YojuXixO5R1FRk4AedQi/hDHgWBpswrt7+swsRlYvnO5gjEOXI14u3vmEpm6tSCOEQtr/iEQjqx/fznIn6WRIMtFG/OlIfvr82UUa4PV/Ahf+qRKURDuy2dAfxoQj+eMic00AG+A4/A9wcYTDmY2Sl7S8cOC+vKxWTVzh40fMyBigtl3goZMQhZ/+czVIfcWDf+Kw32z6EipfTsPUxRBWWYVubNtJmw1B50Wjj0S/duQiHvIZigMFb7HGhKLIdDNQ8hyzvLcPFxwW31WJ1VZpn4TBPFDC2WyA19qRoEwqrrECvd+i7lExFcG50Fs2rZpUYaFb7+jemcgbN/ObMFA1MsWWaWo4+qleLmki4hEhdwMjNBsTbi1j9YmgQ7x95Hrs/SKHu1x8GrMxxBf81zka9NQnYBQmF9sgVdJsWbPVTeFT/6UDG+KORW5nRBD+mKR8y5NsfzCz3+gX+3pk8XTKm/0DlfQSPcj7Vz+HR6Y/c5S9Xvgz7IPMKKL8GLnG7HylUNDBJjF1O4EFjYrHDhgSqLyfdgoLD9J8OZIxX16UwlstAHqZ8vmzEantCMu2PkyHxoJ5MXDKG38Wty42o5nw2dKB6uIv29W9MufL14q1vWC6+jqefbsm5lWayqIdC+qtR6iN5AYlV1qTrXtWvziDmmR8Wlvg//KgmCPPKSubWdYp+M0cDSgkZ4HGsQJcpGpjA+2cZLp26F3GeZE3iIn5zBS7lES5l4eYyDAyR6CmmXUL1zwaF9C+DNzGIBjTmutwbGyhGCoN59Er9i7zKU29eAR0KMtLisRH05rMMw8Yrglirx1hmRthfH2jN95GvaByJbduwzdlyT9h1mOhH0m81IbUlMRBUzWKPC8Gc2kEZ+ZawyyoXH+/7sT5LUNCPTvtlREM+LNERqq2LgtM3z2tmCzOtZbFSPuHAb/t5SNx5QPHkaLIA+318a0tM37fLUVvHk/1mkOaHnw5XTNFDj8TDVsdNicpVfyf38D3Ht+tBD1JekeRE2x0dvwLnhiqwZf1tI02G06V4etWohYRHI7Yd6nBWVFI0bEKsPYW0PVnahH5rsuM2NCB2iI6/eDjrhh+6+A6O7G7B0YsNeP1tfkBtNpZi5RWD3sIX7N/vrJTEk4Wtff7N/Wb+KbSvs12QCDWS8Pf41ojH7kKH1rKY0AEMxfvb6i/xxZg9T+BLdN+6pUYqnG9HKMjoV8f7CJmQfDF2BT+LPYfnVz+Fb8YzE6AtypNv24tHlesBLpGhufv14idGE+NnuhDZbqyoxPAb8+0NGDnjHV1IYPUxI656s74J029m5gywu9CTr7GY0AEMxXtwwyDG7cnDZGbcOpNC7NgZj3FNRr863lrNqBjGLyWpDB1U/gSmSfi49WXp8w1X38VOIf0V950zarW6vm8rdL/KK80tL/zlzxpeMeheDNiTfw1G/7wM+IcfPN9GKBE378UoiYeMAf4j4v847fMthgyj/7YCA/xm/8APGP13j+AoAzwa8c8HMisqKVjw/Ny/vfg353sYa6g+B+j45HRWffL1z0zB/YtabpUeCyQOgmjc3I7GwW4VLxdtG/m+5FGRuQ9LxOJxYGAgr6EYNp4iy5i3t4y/vAn7zvuOYrDRnMuI5d+9RrLaQrwh57favmXkzb+cimKPC0HR7cBEY2RXDfgLOzq+ZySK2phf4Vg8GG23GN7g5xRnAfMscp4Xv00LqWKPK5Kyuirt/5aXPQ1ejlXNP/DrvT3L/AXGY3znEFguSs2U53nXREEND8E75bKXIoQldHyWWq2l+GY9rPj0UDXTrSShQsKo2RYYJFD6dLyCYFehU94PwJlkPgYXO3QFre062Ev3Ppw9YH3V03Jj6kJ6TQdq2xustHmOw8l96PcRDtH2w2g5tEmXIYWJ7i70nryAiZxeUHppv7okdu9+J/NCL88H4NRcAf3l6HzLsVrzIj7CF5Hn8Cilp+JNs8H+r+jOs2wrx/ti/CN8eCvjDuXk7cVYXtWN5aL0KIuEoAnaJcvX8jWuGy5uInQgSgAEL8eq5groL0fnW45VrVpE19V4XYd686/iDQ+SCNmHW15Dus69jCnHG1dLo2YEi5O3F2N5VTeWi1I1lW0kaMJyCfMtqL7zDfe5jtFv92HuJaX7TJfNkP2Ve86Y7lcLnbdlLnXKGMuaspvRs863HKxlReEKMzCWSWXcxxp44nH+LALsR8jon1fgj6eAZ5V48F/K1HKrqsj+QJ2apxEsOky3q8DyMUYbWG5MJFbqSTyQwFFpk+C5dKoSl3yEQw3V51mnPiSMVH1I4HjnQ7jw9s/F9y/5llvNt1yrQs/FwAfPY/f7c7x32GjK5xLChI3HcNyCXZVCkDPdHORyVSomvWKPKxWB+fu4Odkodyc6fwW7UOU6Xz7zL+aTJeqqNO9zHARBEARhMcNfuY7/e4ErNf1kmPuXo9lN6e2NnpdMRcL+7GGWSg0bT8GGbTnmAJRDOBQzGbbY40pFnnYobI5DPvIJh9yuSmVdhUmEg4EIB0EQBGEpokYVfsSlkCsm/STZ3GmNOrxujWrbJI5exq5UntEGQRCWNCUXDlluRUUvRyoIgiAI84G1mpL3y8z8Rep8qzoJgiD8lCjPiIMgCIIgCIIgCHcV4sApCIIgCIIgCEJeRDgIgiAIgiAIgpAXEQ6CIAiCIAiCIORFhIMgCIIgCIIgCHlZcsJh6/pxdNabXzwVBEEQBEEQBKHcyIjDIoOXsz3RRpvzFdj5hL80q/On7e4XaAmsPX8VT+pt3fZGHS4IgiAIgiB4keVY81E5jc4mYP9nER0wDyyCD+jV1t/GHqzE/qEKHXJ3E9l+BmuxD9fPDOoQQRAEQRAEwURGHARBEARBEARByEv5vhw9uhL7p2awp24GteqXCvT1r8TxUeMNNr9Z1y45ff3VOIdp7KmfRm0lkB6+33jbzS40d9Cs99y/WXi/WM3pHZ+aRud6Sk+HYSqCnTxyUEnpNXE+s5myDUdwbmg50mqfcefpZjmOX1yJPr3HNDfdpvwzrj3p0QiOD0WQntIBhaBHHPZ/y+XM0X6MqguVk9pMMUVlo3h93nzDxtPkG3EIVd8w7WxfA3xuhmbRadc3T/mCqH7tKtZuoD8u78X14QTWbk/AGisaxPib+3Djsv+IQs4RhzpK57cdiNQ1ZtI604VbZ5J0xWo2HMGTryWsv4e7cPXVd9WfnK7jAkVluvpm0vqbqX8Fb7+9C/X058UjLThy0QoWBEEQBEFYjJTHVUkbg2kyBo/328bkLBmbd7B1KtsYZaN/ayWFKWOR4lPcrevvAP3345zHcMxp0Kp8gf1k1GcEgDWhunnUFBtkyFJ+ppGrhAelm+UeFMJVSZWpkuuaMYhra1gEzeLcZ26BEQqn/ZbjnG08a8O/1qyHKhvlYRrY2lhPm20XNp5BrnYOX9+Q7azKxwKywikj59FZV5F1LkOhjfhpMuBv/O5d+p8DG0lUHMbqYX9xkNtViQRD3aBOx0IJFLiFgBIJGy7gOokGR1AQdrgtJhxEOAiCIAiCsIQoo6sSiQAytjNGI78xp/06YwTAhEcolGhgyID8zN+gzcloBOenZrDVGHlgo7S5kgxwlwHsNmaZPn5bXlnMZGASOTUVLiOa4Tfw+4dItBQ9wZjKzEa4XU4tqmC0X3P9jBqFcOIwHI/quoV+swkbLxyF1LeAdq7kUaJMGdNDK+lczqLFHiEpmCRusAHvGPs84tCF6e0detSgENyigeERh+lH3JOppylsvK4Dq3nEwyGB1dsbKb5HNDBD72D30y14mjYRDYIgCIIgLHbKJxxG3YalBYUFGIPpv/qMIBRMBXpHK8hQzrzv5b9rqSzut/5k/DbddlYPslcx8hU0+aik42jrNNMy0yxKjBBZZSamImRY2+03gxYy4Ec8hrmCj62Z0W5WYeOFpKD6FtDOPLriKuMcr4fLhhuRA4UNN+DBOr0bmkasfu2Ms/qS2n67yUeAJHHrzCCqt+/S+zza0IHq4S7cuqwDBEEQBEEQlih33eTo9LckTsiw3aqMazKya4A+CsvAblC3yViOYP/Fauy0N9f8hgIhg96VlrmZLjl3C6HqW4Z2XhBINBw7g2p04fqWJ3HV3s5c8BEmmVEHNc+Cj9WjDX5xBUEQBEEQlhLlEw41fm+W+Y10BXr93n6XCjJqz43OonnVLJVhGs1qX//GkKhQxqzH1QbFlmmKRwZm5uBSE4DfSIByu7Lbbzl6R3k0Qf3iho91RizCxgtJ2PqWup0LZYM9KdqEwupSGPO4HeWkLmGJhjc9Ixhf6v+zyIw6RDbkHm2of/FDfPJJLz7Zu1mHCIIgCIIgLF7KJxymZrGHVzRyDEyeHE2mV38Rk10LhEcYaut4su4M0mQYuw3XCmtEwlkRiMpVf8e9+pIXZwSD/+Z6sPvNHR2/Qs2f2LL+tpEmw+lSPDXptxgoz/XGKkhUBl5hKW20H88XqKWyO3EYjlc/i/NDmZGOsPHCEbK+xbRzKRluwNpjZLw7bkk8OboDeHNvYW//hwcxXbcJqzfY8xkone1HsO5Y8FwJe9RhHU/Q9nWZsmjbyGkO4oMP/mQFCIIgCIIgLGLKt6pSiOVEvUuoOkzpZVM1gfGYUZ+VkMhI3dPGbjIVOO83yZrK5yz7SVhLicISOjyp27PUai3FN+thxSdBYqZbSUKFhFFmuVOqr45XCE5debL4PC/HWlA7h6lvmHbWK0hZ2G1PZTWWwlVL65qjRvngVZU2JnH9UgJryXi3rqTs5VidpVv9MJdOpfRYBNhX5PTlLtw4AxImLB6SuLFlL8b1bzbWMqwpXKfffIWDXlEJHzyP3e/7LxErCIIgCIKwmCircLgr/fuFxY8WDq5vJswzq49dRfXl7YFfomY3pbepjLt3vwPSUoIgCIIgCIueu25ytCAsOHW7UF1nzXUIYuj95/G0iAZBEARBEJYQ5ftytI2vK5EglIcs9yPv15rLRgJrzx9Btd6zGX/zSdyQpVgFQRAEQbgLKI+rkiAIgiAIgiAIdxXiqiQIgiAIgiAIQl5EOAiCIAiCIAiCkBcRDoIgCIIgCIIg5EWEgyAIgiAIgiAIeVlywmHr+nF01ptfLBYEQRAEQRAEodzIiMMSJXboCrZdpO3QJh0iLAV4udgnz9P2WkKHCIIgCIIgLA2WnHA491k19g9V6L15oHIaneun9c480tCApkOnLXHA26nDaGrQvxEjB57C2QMX9J6waKhrxOrXzljigLdjR7C6Tv9G8HcdFvKL1oIgCIIgCMUiIw6Lkk1oPXUatehCso0EAm3Jk0DtqStobddRhEVIAmuPnUE1nbfrW0gg0Hb9DFB9zPNROkEQBEEQhCVI+b4cPboS+6dmsKduhgxgpgJ9/StxfNQYLai5gxNNM+rPvv5qnMM09tRPo7YSSA/fb4wsUDptd9Cs99y/WXi/WM3pHZ+yRgus/ImpCHZ+FgEqKb0mzmc2U7bhCM4NLUda7TPuPN0sx/GLK9Gn95jmptuUf2buRXo0guNDEaSndEABsBtSK/Zljyi0H8a2QyAxsQ8T9n57EsnuBFoObUJURUph5MA+9HSn1J5DQwdaD+5ETI9aTHTvo7oeRlX3UxTXCmNih06TOMkMbUx0n0DvyS5MmMmpclguUjzyMYAOtLy0E1E6bOLkC0i+l7LqYIgcjtdzswOJUxRPhyF1Amd3dKk/S5VvKDYcsVyFhpMYIWM/VgdMX96LG5fI8KfwCAYx8up23Bo24jLDXbj66rvqz8j2M1i3vVH9bX+dWn21Gj5fqlZpgMTEXrrC9f7GJK47+TGDGH9zH25cHlR7Lupfwdtv70I9/XnxSAuOXLSCBUEQBEEQ5pPyfDlaC4I0GerH+23jeZaM6zvYOkWCwsfo31pJYVNkkHN8irt1/R2g/36c8xjetfVkoCM7DYXKF9hPRn1GAFgTqptHTbFBgoHyM416JTwo3Z39y3WIhl2VOE0WHAGoMlVyXTPCo7aGRdAszn3mFhj52YTWiwmMkDgY0SEmTaeuoOqkNva1IT2RuoCBNyg+280NdPxBEgSfmoZ0A6V5GDAFRQOFHTwN2GkR0ZdPo2VNF3pJsChhwmHtbJw3YGBHdnlYHMTXUHo3L9AxZORTPk2nKJ83XkA/Z+MVOhquQ61RvpLnG4a6XVh3rEMZ/TwqsPbYEVQjiRuvknG/gUTBhgtukUD712nfdFqzw614JALOJzBG4mDc+tnF6mNXETnzJAkD2tFiZJqEy63fUXwWKHV0/G+PIHJ5O5XHIx5EOAiCIAiCsAgoo6sSiQAytjPGOY840H6dMQJgwiMUSjQwFWRwZ4uGvIxGcH5qBluNkQc2/Jsrl+OcS2i4RQPTx6MDlcWs1kQip6bCJRoYHnHYP0SipdAVoBoaUZVK+YoGZuTTFKrI6M9AooGNa9tgJhHR88YJ4KWOzJt9MqyZyZuGVU159OwwRxsaEP9FymW8MxPdXcpNKv6ymafBp/uQVMY7k0L/DsN4p2MHUpsQN92rGjpQ20BlNkRNyfMNy3AXbvDoABnwY2TQj79pGfHTly+4BML0mS6M13VgtcvdKIHV2xsxfsYSFzy3ITKc8hUNzNjlQUQoTgYSDSRSlGhgqAw3ftcFbO/QIxAGQ+9g99MteJo2EQ2CIAiCICwU5RMOo25D2oLCpmbRUql3DdJ/9RlBKJgK9I5WoLk+Y/bx37VUFvdbfzL2m27jRNt4ZmuyXaoKpJKOo63TTMtMsygxUgDd7G7jIdWFdKrBcUticdGzowtVB/VE64unkTh12PidaEiQINmEhD0Z29zYDWqNvwE/SQIkGBJAJHRiJGJsYuxaZJa5LPmGJ9y0dzLyzwyievsuvc+jDR2oJuFxi0cQiuFyMltkDL9LQqIBDxqTqQVBEARBEBYLd93k6PS3JE7IkN+qxAmJlBqgj8IysBvUbTQjgv0Xq7HT3lzzGwpkypOWuXldn/KRGsRkAxn9etdL7BcNxRnNPBKxw5pofbbtBSTfSCJ28LRbPKROOJOxszbvfIuQTHRfwAQJA2tFKKpXOzBCYS7KkG+psUcdrEnOjc5ogyM8hgcxXdeAar3r5cENjZimOIIgCIIgCEuV8gmHGr83+PwGvgK9hbogFQIZ8edGZ9G8apbKMI1mta9/Y0hUKNHgcS1CsWWa4tGMGd9RlOK4QIb1JrTqScAu2g8jzm4+xmRmtCeyRYZyB0pl3Jf8ICExcrMBcXtCcipJ7bHJLSRKQaqLytuAWs6nvQMxEgmu8pcr35KTGXWIbPAbbWB3J2uycxYbjiBWR8eb8TckskVG3S5U16UwZrsvaepf/BCffNKLT/Zu1iGCIAiCIAjzT/mEw9Qs9vCKRo5BzZOjp4F+98TlcsAjDLV1PDl5Bmmvy9RUhTUi4ayAROWqv+NefcmLM4LBf3M92M3pjrMiE8+f2LL+tpEmw+lSPL1qVCHwqkgjJBIS7Kqjw6J6n38z5wLwZOq46XakJkdvwqQRjycfbztERrtpnFO8WHsKaWf1pRT6T6YordNoMlY3UqME6vjiPzTHIwzRlzrQ+tImTHya9JS/fPmWGnvUYR1PbL6czHJzUnMkSCTw7/Y8hYje59/c8RNYzROybbckNTl6E6az4gFtG3luxCA++OBPVoAgCIIgCMICUL5VlVYtx/5vedlTe+QhezlW7xKqDvayqZrAeMyoz0pIZLTvaWN3pAqc95tkTeXrNOY0WEunwhI6Pkut1lJ8sx5WfJ6voQIsKkmokDBqtgUGCZQ+Ha8o+ANwLx02RgSslZPsCcDOcqfd+/Iux6pWLUIX0ms61Jt/FS+VwsBJSi/Psq0cb+TTLvS8l3EZ8i616mAsr+qGV3U6jRiVbSBoEnNZ8g1Ar2pkkcSNLXsBXkp1A4uD7bh+OaFWXIro38y5CNYyrKnM0qpe+ANw20nIbdAToXnJ19/ttZZ2JdSSrezuxKs5hVmOVa+ohA+ex+73xdVJEARBEISFo6zCoWD/fkFY5PCyqtV+S6aWCXZTentjErt3vwPStoIgCIIgCAvGXTc5WhDKhpqDYM11mC+G3n8eT4toEARBEARhEVBy4cBuRcqvn0cd9JKkgrBYufy/f9R/Wfjtrz1/FU/ydqwDx7/6Z7Vvra4U7niTQvcFQRAEQRAWCyUXDn39c1yOVBDmCTbSN/zPex1jPWj//3zVgqtbnsRb9D/v8//8Beiwxxe7LwiCIAiCsJgozxwHQVjk2Ea6zWLfFwRBEARBWGhEOAiCIAiCIAiCkBd5pSkIgiAIgiAIQl5EOAiCIAiCIAiCkBcRDoIgCIIgCIIg5EWEgyAIgiAIgiAIeRHhIAiCIAiCIAhCXkQ4CIIgCIIgCIKQB+D/A6KXXLHL1C60AAAAAElFTkSuQmCC;" vertex="1" parent="1">
          <mxGeometry x="40" y="440" width="837.85" height="120" as="geometry" />
        </mxCell>
        <mxCell id="Xce9fqfD_rUZ55vbkONO-10" value="" style="shape=image;verticalLabelPosition=bottom;labelBackgroundColor=default;verticalAlign=top;aspect=fixed;imageAspect=0;image=data:image/png,iVBORw0KGgoAAAANSUhEUgAAAaAAAAC3CAYAAABUkorOAAAAAXNSR0IArs4c6QAAAARnQU1BAACxjwv8YQUAAAAJcEhZcwAAEnQAABJ0Ad5mH3gAAEQoSURBVHhe7Z1/bBxVlu+/rBWDTWyY4PCCm3HSPYrkHi0/ExuhJGjsDiPBH2QCT2ISIaQQh0kk/hjpacISv8CGbMLCSE/zB1KyxE4kFBL4g8kkf4A0TMcoIULYgcwwo3E/RbhjgzsscTLENjY4z7vvnFu3qm9VV3dXd7rdiX0+qEhX9a17b1VXnW+dU8f33nDPPff8NwRBEARhhvkn/a8gCIIgzCgiQIIgCEJFEAESBEEQKoIIkCAIglARcghQPVrXxhCt16tZCVpOqAj1UcRiUfqVCiTUirWF7Oe0U49obC1aQ3p7UIrt53VKfTSGmN9Nk+c8+O/H53yW3YMzdd1eI6R/11n4W+YgaxacOiF1CRzpHdZb/AlazkuoVRup4d6C9xXcOOdSM9x7BM4p5Ru5BeiL92NUb6I96KGhlf6fibMv38jNY4g7+1k3RrPPjaH2GbPbGUaIytUljD5oXP0cTRh1E779zISvtxb0Id6fqxShDFhzDkM0ikQ8jnzVZOUq6896HHnOg/9+/NuonXza49+6GWNXc6x5yXY9DaP3SC/93wNfW1meUEYTcevY/M5DxjXJeI7Pt0w5yH4P2bjuQ8bvuPV9QD+g/l35Y7bfMk3g++AaJ4sAWcbGz4i4yVGunr5rbkFzSN+io8NI9PW6Tyr/IKFhEaCrQBl1mCJu3Rh051u/ia9BC2CUCr2RnXb8Bcjbz4x+5zG8NpnHWwy5DHYp8Ks/j8GyBTnjPATZj895tuMJ8FtfDdzfWCNSfvXn+k5TkBCXWYDYc3c/YA0jTgJaaD0MX6eh4Tz20+grNV6QAJXmPqg8/iG4UDOakcgjPkTWcnRRkBFqpO/iR47gCC3xBNBYTGhGyA7dpM0k4L2uH8BaD4XKcaKtBw4rPGB+zoNPP4d76cmYrp+CQg2qHvo3yH5swNauxVrfxd+TKy/sDVj3gu+S1WAWu59QKP1x65yqy3S4l/4NWdebDyyc/teWtZTVzhVyH1zjVC1atOhf9WcNGZbWe/BD4iSGx/QmX7KXC7WuRnSsF+/RL/mD3vbD2DCSY/VopV8mldDb60N0AseQQhQrV7fi3mgU0WgI9WMXqU57Tw2d9NaVq9B6L5eJIkT73RRajQiJnNl+qDWG1a33qjJWuRtwcWwEP5jV8ZMHtcff148lMEZ1r2xdhXup7tANKSRHflBPGKtbrTrscsM3kFF7lMrpbdHQDUgkR3SVpWm3IG5ciEjkRozQ+XT9BPq8JvjEcBm6WFPUz3Tt9QhFGzCVTCJrk1xHwxSSrv1uxEKrMtqvAZF7qe2/6LaddsZQH4ngxhHjd2mI4F42pK4LhT7X34uGH3Q5336a0EPNo2FcjL+Hk8mbcE/sHtyk+qG/9sL1NYzgo/dO4i+JBBIZS459rxrzPOlNDvzEvhqt9jVEFmSMfz/72og04MYfRjznnfHsR9de+lzlao9/6whdJ3Z7mYu6ts2fphC4r4kpRB41j0kvkWok83heDZF7EblxxLpWTfyuB99r0nMt+5YpBLZrEfpNepFge0V9yOgb8cNI0ueaspcUbgjlub8Yo6/0A9IvzDaAP2b7LZkC74NrnMwQXFAXNms5vlFCGPaL/RLs5jrhGa6DfuFRHZ4b5oroR2ltaUVdSseCFZzoQG5pbx/tp7fV07aWGF0daTdXufN1CfTRBmfPUBQtzXVIxDP7wyLTXEclx1K0Dx8HP9Ub7q/qHzLccD6GRqN/JW+3ADJdcT7/QUJw3rAOP2knUE9ejeMdeN/TECy09Qnup/07k7dl1+WEgzwhOD6PPqFWdR7GcsT8NXx+Y3Stud8nWMdQZ78z8ML15XxHw93Nsu9Vk+339Pw2apN1jTnHluP3MvdT56QxpX+f4q+fUqPuhcDvJuzrkK89On5tDxy815/3+2z4XLeBcd3z9jWeeQ/nhn+PZox6732//uu+0g55Q3BF3QfXOBkC5BKIHGQtp28gdVJ9cF2g3pvPRhmPOvSpi4Dhk5wvjk2CRD86G/yMItROrJ5+aM/OLgPoC19IHmOq+5Zw+lyOdgtDiZBxXQdLQijuHRC3ZcW2PTen005hAuTEyX36ad1w9TmFIkiZkqJ+/9zC5sZIRvA9px7x8Pu9fM+fuZ91ndoPDhkvv8vB1ZwHG31cvfQIlXE/ZDsPGefPcy37lgmOupeMB7qMe7Xkv7+FfR1buM/VNXkflAi3AKmTaxr+LOQqpy8cPsl+8IlyCZCPYWL4hnJuSkZ7RlZOwyh5TWNpr4nJd2H4ZNu5DGAW1A9LT5oca2e8F2i52i0Z+veoqACpc2SKNuPpg28/iyDf75FB7my1oGQYKl/4mLN4QL1Q4WmF35N/XgGyP9tfV+Y8BMf8/T3XEuN3Pfhek57rKMt1Gwh1zjxJE7o++/6/KnL0LW0Xs3tAsxGXAAW7ifKV87mYDDJCcEEFyIsSpGYMUxkrdFe4AQskBK6LkkOB1K+8HkZuArVbKnz757lp/chys6T77vmdnXZ8BIjg/bxPlhlCXuB5vJbg4wly71BJOm9m+FOHn/Ra9t/rGg3B5fzdsvXL8tjMMLa63sxoiF+9vtek51rOYeTzYXsRmfiJs/d39OKzT46+zVUBSich0A/ees8P6Ds5kPvlXd5y/HK5Fa0h/RLchH6AVZEx9a5E7csv4eyXsKqAhtq4Jwok/pJOYsjgB9pj4b1ovlG/vP9hCjdF6InvYvAXcvyeJu8L2B9GMFV/L8Lczo3NaK1Loe8vxgvOcrVbAHzxPhqZ8n1Zmj0JIduL6RBu4JeaN3pe5vLNs9ryQLn/KllE1UOf+YV4ioqodnySEIix4QTGQqudxI7QmMczzJuEUCBswMyEkYxFH2dJGrPOScNUMkAiyRiGXS+sPde+73ngfcYQWp1+0R+pThqGLF/SA99MnnZKRc7fzb9fodZHEb7oEeuxYSTGQnR91Ft1ZUtCoGsr4vkd66nESAmSECL33IvqZBzvnfyL8fskkLohgub6i57f1vs7mgsnIfj8Hr79p6V+DMmpBvqlgiQhzC4cDyjoE1ywctbTQd1wr/Nivp4MWEtrCGMZ4Qe/JIRmumHi7qc9Mvy9iX4j5EblYp6neFVfHRK9fehPFyQj2ULCkfnHsnwsgTwRVS89q46GPMkRmnK1GxDr/BT+x8A54WMq5EnSeWL194Dy4uyv2+P1soWQSu8xBL1/mPTTbokaz3k8fC9mj0hcNXl/pyJDe97rISiFXrc26jhy/D1TRl8sG0dSkYXCjjurB1TW+6DyWAKkDtIbo/chaDkmzx+i8g2rQt4kUvHhkBInq+QobTKy3Qjrx6EnkbpmNFJ9qtwoneiEafA11EcWMLtZLjecSqC3P91jp20vo2TE+QrIwAq9kVRm/3HL0m4wZqUAXS3qWi2DYczCnBagrL/bVQh9sddDMQKkHiCNG9N4b+u+Z81waWnPa1YBmuUoAQp6Q5T+xhFKgRIg39h1moIzo2aDAJWyvjwUKkCl/b3yCVCuJ/Uirg0TPs+zwQMqmPzntZCMtDktQPqzIMwe8hrGwgyEIAilRwRIEARBqAgyH5AgCIJQEUSABEEQhIogAiQIgiBUBBEgQRAEoSKIAAmCIAgVQQRIuKZYs+wSdi6e1muCIMxmChSgKWxZdQndepnNhmKi7XV8uYGWtvv0FmH2MXeu50oRevljrD1Jy8vteotwdbTjlXdOobdvJ2J6y/VM0X8H1Lj4MrZgPrYPVukt1xm33oHR+57B5SV3WOvfnsEtPd2o/9ZaVSzZiC/Dn+HHPWf0BoEZXfs6Lt+qVxRnsOhAN+bpteuR6/56rp3Eziiw/dMavWGGCIcR3bALzW1haz15HImXOtGftFYVbbuwti2OIy8e1xuEYok8exBvh/ej9YXZcS7naAjuPlxc24kJvEeG8zn8mJZFpDETZFgvLtFFhKzUH7HO2W3naOVcN/17H0blvM1B2tH65iE0ogvxVQ/iCC3xAyTmb36M1jZdRCg5A0lT3a9vDA9oGmui43iswQ5DVOH0UBUaG6p8n6pyPjHWTmFLdBKNtdN0cTJcVw2ODlYjpdYN6MmNyy6vtVZTI/NxGuNovLAAe0asbYqg5QLA4bWL6M70bNjjoRvHeZrXHtCi5P242HYfrqhC51Hbs5+M7nm15nDro1TmUUxoz2AeGeZabMSVpDbUmom2ThI57XUR8869h9vOvId5Xs9Lh/5qe55DPaju+x7FFap73p93kViet47BMPpc7rZvH8XXa6mc3oZv38OPj7ynPpaq3TR34OKGToDbpeO8Ok+RQ2HjWK7XUkO3uK+rhnF0R6foIKpxjMo+RtcA//57LvB1NkXXWBWOfXoLjk4Ay6OXsKWB9qHvt0/Q9038PUPXYD/tM+Lv4eTzgJZH6Xvn3uD2a7BnsAYparOQ/tnkrI9x6qzBxsFp8m70cVAbe+g4Tjt1uc+dGyp7ku8TgxLeRxxea0VnpmfDHs/LIFHqtMZj0x5QvCeGlpfb9fBISQy/2IneHo8xDXegdcdGhLRDNdrTSTZjF+p6HqSy1jYm9PIhEjldiBjt6UbfgS6Mej0vHfobfvFBJNCBlg0bUU+7jR5Yj/j+pHUMhlhyud5zHYi9SeX0NiS7ceTpLvWxVO0WC3tAu7Edv3xjdoiQFiDrIm4copvGEYlpLF88TjdJNTYWKkC0b2NtVfpmIpRhoPIb+6v1FmZatQvTMJBobaGbE4PmDRG0XBDI+9lwP2pIZPQ96ILDS1fOaNHQBnnet2dQTxdaLRvrW2n/NhKWc6ZBZmP8DBljQ5hupW1k9GHXRVy5j0TgVjL8ZKjtcNWVJWzk7yCvIrM/LDKjt1J91P5tPSQW1M7oWm5nlxUq9Aqmho9hwuhfydtlXG3nPqeFkPW64hDTsklLWAaBLcvY6JKB/XQ+UgsvY6d5nWrjnSLjvaffNup0PdMD1poJ/2s21/WsvqvlutIPUI0NZMgXT+Mota8MfAH9C1Qfw3WyCJGAHdWiw/vubKKHQhIW18OcKpsvBFfK+4i8n5MxDJPI+I1jGiUvqO6AFg1tkEd1eG6YbWeY9t9BwvKhaZDDVOcuwBSmMG3bcQiw6yLqnzmEliVd6CPhs0fyq29jIx9G4unM/rDINC+h+s4dp31ILKid6JvUzkvrrVCh6p8hmBo+hkajfyVvtwhmmwCpEFzjYvJW1FOn6aHQE+PgLb7ikx+3+DCn+emOLnY31npqwrjp6fOeT703Q9ByASBhuPIteTF61UsNCciVH6U9BX6/oYy0bXi1Uca9hqeBRer/86heB/p825G0+LBIjS752iUCDHsiHP4bJTHw5dx+LFIiwJynvhgiQPve8q0n/EWe2MSt1GdDHEveLjERJk/p3Gf6+zN03qgf2eoqFUpQ6AGGvIA++t3Zo2GjnLrg41kr4294FMoDovUmutb1lmBMY00DXWuGWDDssbDQrDETFwL1r4D6GLpQ7XqY1OB8HJuYRktRSl/C+ygcQV2SvBi96mX4wyTqSDzSkPiwkbbtJolR70vdwIYOY8BYq/zYOcO4Uhu9T5veTxjNP0u6RIAZ7elS4b/mZ8w2DT7sRFyJAJNE/9OGCNC+iWQ7ms2wIXlijWHqsyGOJW9X0AJEwpD6LvPJr3g4nHfZyS5Six1CcGEZiUbyjqxy9HTHT44ZN1fQcmWAjGxGM9++R4K0CJPOi3gSpSPv4YqdObehE1+v3eiE4xTkOV2h5Wv1vWfh8N6tloh5mfcPQ9QyOK8Ec+K+R/U62RMOmZl9Lke7JHKjS87jljPpkFtt8gx5VeXPGMwUmiyM+ItSqlDjXUvXLS07zWvZXvia9jxU5e1fgfWxmJmhOxbS4qngfdQTzxSrZBdSybATbmOR6n26C3U7dObcyUOIkceQ/p4Ix0jY2hFT33sWDu8t8ReCsZzvTUhISTBDJIY2IQ6ZmX0uS7uFEXvlIN7elMS+WeL9MGVIQiDxWXYZy0FPdCcXYKO9+L3/YTimTU9gVjnywujJsIXEK+OmCFouH+SZzCMvyHVPG0wuuSOP0c8Ce0b65fyPD+wi7+EzTLZ1ukWIhMtOeshYinx/Mo8M/zwSmFHVzh3Uf0sMXJS43Svk/Vyhti6vdYsZi53Vj1kGeTaua9lc2OMplFLXVwiluo+SAxgjDyfbfDihn4WLM77sGZHHwwkNR1atR/ylOEI7DrlFKNntJD1kLN73UQEZ7SHPhgQmqtqh4yJvaJi2uShDu4UQf+Ep/HJfGJue9Re76xElQOySL1/IseYSQE93SnzownYJTjaL74XDF/SUumah50nQS9ByGVjhIk4qyGDJRlzm8JWRNIAl92d2XYW5vkaNEZLKgASp5ts76KLWYSlar8V9htdUIkhc6s+RoHI7S6hfal1/x5ShXSXSf96VIWaL/kw/i328labBz+NmD6OKrhu9GgS6zk7TfsWFvHwodX1XS9H30XEy0O1o1S/bXbTtQjOHr4ykAbTxjMIeVJiLvI+czgm1cy5spHnHya60uwWpFJA3lugJo5HbaetAiMTG1f9ytTvHsQRosAanGzjhwLgIa60khJ2cYVPIzUJiliIRWuPUpetZlhl75xeq3UZGjoL2bWmowukL6VBD0HJBqeWEAhKbrzkEpbdd0ev8nfmuhJMWRs1wGj3ls3jNM8rxS/4vjQw4BZWbXHKevBHbmzqP+jNfk9fQiVEjG429lgm1f/HhKxX+upeTCqhf59zvekrerhJf87jSsDeGJelzWlHIqG7ha865ZjgJYVK9gA8cxlNU4ehgFR4jrz59TTN8XfN1WeiDW6nrM+D7zj5evn9VGHzcue9KfR9xFtswiU2MQ1B6W71e5+/MdyWctNBshtNUEkI7xoxy/JJ/7ctk/E0jT+VCbUmknGy5JPoPJKmuQ4ga2WjKa1H7F/8Hr+zx1G/oQOuGdox+GPf0v3ztzmXSadh88dLF+ZgTgyYh4dRQw5NxUlz9GDEy3EjMnLRRwkox5cwgFqFqJzVUZQORt3S6lm4KuhlVeRKwY4PzcdRIlw1ariDy/CGqk+Z8rjtvGrbKMsN7qGXjTPWpct/yO5L95I14DDWVMdO1uVytSolOh8K8KdYO5N3YadVurJToCerbLZ5kAYdStKsy3wzBonNjh/Dc+57BbQVkxOW9ri5MGYbZun6g91Ep2/S99YCjry3OgltYrbZbadAMJyEY2V9E4OuZoWvPTF/m6++0uq6pjJ0yrQjQPy6Wqz7Gp072nMyU69P97uSBRn6INI7Xuu/4vZfaUJ77KM8fojppzj2dedOwVZYZupBaQp4R1afKJZNIHKD68qRrc7nhD7vQuz8dCvOmWDsYadVuOAvvEHlq1Ga2ZIGytBucWZqGLQizCC1AZX+fIggzjIyEIAiCIFSEgTf2Ix7ZKWPBCcK1SEZYzRtKEwThmkEESBAEQagIEoITBEEQKoIIkCAIglARRIAEQRCEiiACJAiCIFSE606A1iyTqZMFQRBmA+IBXWNwGrE9MvLMw39pb4+UfH0K/YLnP8EDx2h5vpR/JRHDUq5TL3evi+jtgiBcDZKGnY/aCsy1fw38Jb81bIv/BG3XPCt244GVcXzyalxv8Kdm3WFfMZk81YWzr+7DpF434X2WohOfHx7QWwRBKBbxgIQ5y+ThdZZIndqGTx57wFnODoWx9PVNupQgCOWi5B6Q85foPDVxvjn5jQEXeWDFo/TMuYVnZ63Vgzg6T9/uQRjd31l4/wJeDdQ4YU2TbLVPTNRYM7zW8iCV3I4ekJH7NlSDo645i9xtujEGldTkneO/ELQHlG8wTYU6FmPE8gnqmzGDpkPQcpp8HlCg4w1ynu1rgH+bwen0ILZ5+pcT7QF9/lEMS5+PwfJdB3Dp1U6cPeXxXLJ4S3e+fhh4bR2+GtIbNDk9oCZqb2sHapoi6TYPd+Grw/G0N8Xt2eHBoS588tw+9dHljbEgmv1Z/Cz27t2ExfTx5O4W7D5pbRaE653yhOC0UQk6Jz+Lx5pa2qaMDpWnsmuW8dz1t3hmg8xjGFW7yJgvnxMXlo+YokUGkdozjaUSMKo3I+wVIASn+hRkjv+gOOevGkdtI6wFpNE8DtU3asM01Nrop8xzF7ScQa7zHPx4A55n1T9+EKly+sht7GyqyvgtA6GN/ORQHF+9tg2XWESUOOxGzal1bvHwFaAICdCuwgWI9qtpGqB29SrB76SWwi0oSmxWHMfnJD5mmM/ebouSgwiQMEspYwiOxISMdtr48BM8rWebk589JiU+DBmiT/0NY07oKfwYeV1rzLHAyLgtryVD7jKkbqPInOand2cqikIgsSxkjv/AUJ/ZmNv91OIM4/wtXzylvCKnDMPl6Fgfo+9sgpYLRiHHW8B5Js/M7GNqcD79lgVOn+2CxOc5LT4MidHZ17qAdeSh6E3ZqKEyoS/Jc/GIT37c4sOwBzT5Y/d7pknadqmpA3eu0BsUMdxJHtClwx7xYQbfwOZHWvAILSI+wmyifAJU4Jz8qe98PJqCqULfSBUZ3PRzJX9upL64vRAyomqyrnTGF3scvsKYD/IkCprjPygZfSbIozztnD9rIrFhj4FX8L4NPDMtE7RcQAo63gLOM3t7rj5e5fVwKo5L+qPD0D4SpDBua9LrNuwFGVluS5vi+NwTkgsGeU7PH3bV9cDWdh/BI3EkD2rBuvR7Jha9BUMkeqf0BkGYA8y6JITUBRI5MpDWzJBkrMkbOk3b0nB47zIZXc+8/K73PwVSyTn+K0Gg4y3DeS4XniQEFh+/DLjccNjuMBagC58bdX1y+LhvXbYXtFR5QbSv9n4Kb1cQrl/KJ0ClmpO/UMg4Hh2ZxnKe475hEsvVuv6OIXFSRtETQkKxfaIn97LM8e/nmahwon3+qsnbY+9GfeOG93U8qKDlAhL0eEt9ngtlRYzEwEPTJixoSuJiwaG1ADRxeyQ+XvH6Uv+bQdoLqlmR2/tZ/NQ7eP/9Pry/bbXeIgizg/IJUMnm5C8c9ngam/il+BRSZGDdBrDK8pCcDC6ei3/cnS3nxfGo+LN3rv1yzfFPbS4zstaoD5wRlzLOH79PaaS+O2UYLrd4GsfI07AJWi4YAY+3mPNcUmLkkewmwdGrKgmhHZOvbiuPlzE0gMmmdty5wn7fEyFx2Y27X8/+zsn2gu7mhIlT2b2uVSu5zgG89dafrA2CMEsoXxbc1czJT16LSpfWZC3H+E44RuK3isM/VTjml8xA/XPSfQkrhRiWYHLyhCfFOt9c+wryTnLO8R8Q51g5KWOG07ALOs9BjjfIedYZfxb2uae+GinwKqXe9GJzoLLOOKx1alveNGxX6rOG/zbIm+Hm1OmHmTK9ggTHaY/q4j9oPQwsVSIUx9nHtmW8l7L6kMTn9J2vAOkMOLz1JDYf9Mu8E4Trl7IK0Kx8/yEIJeTO1z/BAm9quAGH3/aujGPz5jdA2i0Is4pZl4QgCNcN6p2U9S4oG4MHn8QjIj7CLKV8IyHY+IbIBGGuEsPSY7szEiQuvfoAzkoKtjDHKE8IThAEQRDyICE4QRAEoSKIAAmCIAgVQQRIEARBqAgiQIIgCEJFuO4EiKdWuB6nip6tRN/8GLFnwnpNqDT8d0UyZbhwvSAe0Cwn9PLHWHuSlpfb9ZZctKOVy+plRoSlbZfV3psdesPshkdVUKNk25PS5YRTttMja8+IsNgjg8uMsMIMIGnY+VCTpeWekK7U1D9zCLENmcZ/tKcbfS92YVSvB4aNfFscR148rjfkh/vQgk7E9yf1ljIS7kBsBxB/uktvmOX4ToKXm9wT4ZWYpk24eyvUhHmCUE7EA7oGGd2/3hKLnk4cWfWgs/SdC6NljngKgiDMfso3EgIPpjkxhS1NOQbTNAai5AEnj4JHsLZG0E4NmVNouwendH9n4R2BQQ1gOUHeizn6sj3IqRqYk9uZTvdtqAZHeYBRtc6423STOWApj5C9xRgd2hp405wRtkCyeC3RNw8BL61H/xL6nsNqyW4c0Z5D2nNKIvE0lbGdF11XvCeGFtqnXm1MYvjFTvT2+Hs4uT0gDtXtQkivjR5Yn91TIu+mdcdGhLRDN0qimsIu1PU8SG1b22wPqO9DEtgNun/J4+h9qRPDnmpDLx9Ca1vaO1Re4QHyCs1yfLw65Dj84oNIoIPq3Yh62i1nX31wDW46FMPSdVkGN2WvhsNqQ13OlNrpwU4HMPycMb239oDyDZZqktsDco+u4DegqgN5N0u3dsAeJXySjusSdqPmI2MkBu0BnT0VTh+vmlHWmGFWs+B56pczArg9AOs+98yw9rkheMSHr0B94JlpqQ++fZUpyOcMJfeA2PCroXd4BGmeuvlTezKy+ehbOO5OIOBheug7Hum4cTEZ8IXQ5W9RoyQ7UyAog2/Vs33IMxq0xmmXyvIEaGr0ZD1x2jESARYtZ4TtiSoc7ScR03Vye3211sjNaXSbalpxEi6nLC9u8eG+r6Hb1Jx4bc8FWKNP6zKlwQjLsXf0dLcrHKc8J/KUEn72lYxyywaQMGmPikVrAwlWUe95SBy0VxY/kMuYh9H6JgkBGX3bi+PydUv01ybhjYj9LN2/OIlR644OLZYWLIrN6EJc18VLH4lYy460GCq058gCV0fH2NJG4qbqXY/Uz3YhWsAhs8FUoTIyoktXJHH2OXuyuU5cXLkr/V6GR8V+rss1ojUbVy477Df/ENe3DvjKro/2hc/o3MHgkbatenKH6CJY+jr9HrpfVvkkan6svzbhaSJIeO3+fc5itHWTFksLFsU7PRPwnf0IVM4z1BCfG/6OBE4J6UoSN1XvOlxasQt3emeoFeYMZQzBkQFXxluvKg+I1psMj8SEPSb+Xq2QQPhNo5AP8jqOkde1xhyLTk3iVq3msElTleGZ8Jw5qaKmz56m9khoSfzMeYfYA9o+CKwpYcZe/TMdaD7XlfZsCuI4GXfDo1AeRjeJkNvIlxbL0o+dMzqcTKKXxMDxfhyoP0b/Rvd3kufS7nhOXFfzz5LoI4/QJbo9JEgHgOZsQvoheXHOe7Mk+k3PsCDIyJNnk36yZ4+FBIef5PWWwoiTcTc8CuVhsAgVW18QrHM0+aUhUkMDSgwyx6Hj4033b/Iw/Tb0e6SnM4/gThZkzwR8k6f2kahBzfDqyyny4l61Z34doHNgeIY2g29g8yMteIQW8X5mN+UTIO9EcAqeQ2fadzbN1Hf+nk1hVKFvpArLF6dvCf7cmDHrJ4mGmlTuUnox5q0piFraj5adZl1mnUWJmoZDSUZWWsuSOBnT4IkELnriZEA8JLuQSoYNI19qWFS6ULfDPgbyuN4kb8WvPRImd/88KhGOoS7cjphxPpyFw4pL/A9ijOotCb4TxtG2obBhlAuA6vPODYShfWTwi6wvECwqXajZamfWkcdlTtpnMpT09M/jWTXFUEPL3UaWnrNwWLHJ//eYJMETBJtZl4SQukAiR4Jghe9I7Mgb4hlS05D4LOPJ6twhs42u9z8FokN9Tl3mcjUjgXuSEFh8Cs6AqzTsadlhv1XrEX8pjtCOQ8WJXrLbFX5zLcUK81yDPS0njLgOn78Wx21bD/uLUD6G3OE311JAhp8wdymfADX4eRTsEZCXUuyL+SCQGBwdmcbyheR5NExiuVrX3zEkTkp8PCEzFNunCfaupny9usrQTp6C/mjSFnO/J2HCHWgMk+dRIichECRIw+fCaDYSCQKRjNPvZYbkZpgVdrKACT/pJ3HR7x2PA5fRH02oPu+UDNb8QPnqKzEkSBe/5HBage+eaL9LrpBc6eBJ+N5/vw/vb1uttwizlfIJ0MS0NfWyY5hJFKKTQP/84j2NgLDH09jEGXVTSHlDgRNVlofkZKxRvxaPu7PlvDgeFX/m4+Dw3biTQcfvlx4jrypdJ8P1UjlXYkOJSQ5gLNzuvFSvb+tAzMhOc9OOZjP8Rfu17mjH2IudZfOqOGlg7csdbtGgdkNtSaSyZN9lJ4n+A0k6hkOIusQrjJBqJ8gf2l4FQ2EsfX2TISYRLHi+A3jVmEp7aACTTe3OS/WaFZtwt8/cPxYx3GmGv5piWLq1HZNmfSWGEwAeeJ5FTm9gqN3bVgzgUpbsu+wM4KvDSYReP+wRLzovqp0gf2jrz6qVXN8A3nrrT9YGYdZS1im5t1/gdGfbE6qCNw07Y/I6G846M/7wM2s5xnfCOxK/VRxmq8Ixv2QG6h9nvNmCY6VMwxJMlf3myXLjjD7jOKzy/D5LbbCoJcEjgV1uCxUJ3WldrlDS6dRpsqUP1z/D2W3p1OXES53Ajo/RTLtzCvJw28dobaPvejrzpmHzqAmqrB8cDtRhrqDlrFTuLqSWkKdFomH1MYnEgU702+0aKdNQ2XXWy24zzZuPw0zZNtO61bujD7vQuz8dgsvaPyNlvSAKSJuuWcfZbboMeQnDr20Dtn6CEBl9zqi7uNJI685Tn5MC7gdnlukwV9ByVip3Fy41dWABiYbVxwEMH+7EV950ckUcZx/jNG13mrdr8jxPWjfXd0mlYqdDcFn7Z6SsO+gUbLz1JDYflPdFs52yCpDMhCrMCrQAyXuN8sPht710rjfLNORzglmXhCAIwvXL4MEn8YiIz5yh5ALE4TL13oO9IJ2KLAjXK2rw0Odj+D+RD5wUY+bUf/yX+tdG1ku7LswNSi5AakSCUqUhC0KF4fcd/+d8C1b86p/UvxyGY2PJ67bRlPXSrAtzDxkNWxBy4DWOsl7edWFuIQIkCIIgVAR59BAEQRAqggiQIAiCUBFEgARBEISKIAIkCIIgVAQRIEEQBKEiiAAJgiAIFUEESBAEQagIIkCCIAhCRRABEgRBECqCCJAgCIJQEUSABEEQhIogAiQIgiBUBBEgQRAEoSKIAAmCIAgVQQRIEARBqAgiQIIgCEJFEAESBEEQKoIIkCAIglARRIAEQRCEiiACJAiCIFQEESBBEAShIogACYIgCBVhzgvQmmWXsHPxtF4ThGuT6JsfI/ZMWK8JlWbpr/6Mhx76iV4TiuWaF6Dl0UvoXkVLdEpvycUUtnBZvVyPwjK17kf4x25a1lXrLUJJWL0Tva+065XSE3r5Y6w9ScvLQdpoRyuX1cuMCEvbLqu9Nzv0htnNHU/8GY/+b1qeeFhvycXDuI/L6mVGhCX6W6u9X23WG2aW2Cun8Paz5bju2vHKO6fQ27cTMb0lFzfcc889/60/X7s0jKN7YTU29gc3yo2LL2ML5mP7YJXeco1wexW+j92Mybt0v76ZQs2h73DTN9aq4q6b8Y9/voIfHQ4iunOH73/9I0zerlcUU6jf9h3y/8JhvNJ3EHhhBV74k95E1D9zCLENmTfhaE83+l7swqheDwwb+bY4jrx4XG/ID/ehBZ2I70/qLWUk3IHYDiD+dJfeMMthI//TP+K9dz/QG/Iz/6F3cT+24sSJL/SWMrJwMx56HDjxH3v1hhkkshFvv7ME+1q2I643lYLIswfxdng/Wl8Idg/IO6AZpRrf/bqezOb3ZDj/gR/RUk+//hQZ1u/u0kWErNz0O+uc3fxXWvnrd/RvNb4PcN4iz9LT2MB+7DPEhxndv94Si55OHFn1oLP0nQujZY54CsIcZaAb8YF2bCqDFzSQDP4wVXIPiENmWxrowwh5HxNT2NI0hUb1TRVO98/HnhH9vMpeDYfVJmqw8dMatYm9lp1NHDarwrFPb8HRCbXZ8YC2X6D6aB/f+jzk9oA4VDeO5XotNXRLDk9pGmui43iswQ7nUbtDVWhsqMJ23e+gcHjtO/ovw7Nhj2cdPQ3bT/PaA6r/2zx8t66aesBMo/owG11PWPH2Gny3/iZMac+gigxzNW7G9N+0odZMrasnkUsfY9Vfv8fN8UlUeT0vHfqrPvwP3ASqO3YTpqnuqvgoieW0dQyG0edyN/9nDUZ/TeX0NnzzPX70u0n1sVTtpqnCd7vrAW6X/gviKW565xRi8afwyzd8bowsXkv0zUPAS+vRv4S+57BashtHtOeQ9pySSDxNZexqdV3xnhhaaB/qJZHE8Iud6O3xvylze0AcqtuFkF4bPbA+u6dE3k3rjo0IaXsySqKawi7U9TxIbVvbbA+o70MS2A26f8nj6H2pE8OeakMvH0JrW9o4Ka/wAHmFZjk+Xh1yHH7xQSTQQfVuRD3tlrOvPnDI7L4ofej/DU5c+Dnuf+hhunuZL3D+3a040689EvZqOKx2YS/e054Dey1W2OwLnP2PJ3D2gtrseEAn/k710T6+9XnI7QFxqO63uEOvjZ94IrunRN7NfY9vxh0LrdVxOq7z+C3m//1eatvaZntAn/X/JH28Fz7Amd9TWfsYNHc88S6dn3RocLx/Lz47sRfjZjn73BDn370XZ7GZ6t2M+dQHv74qbyXWg18+2Y0Bve1q4Tp3Y7v/veZDyT2g0/0LrFAZicYWMtJ7PqX1k7zMR9/C8fR7GRIoFp6UtaZIDd6iyh6zhceE61sMHLXrY+PPglXUe55q7FF9WoDtJCbZYaG6jOUkktt1eXUcZGotESyEaly5awo3+xlLEo2abzxP82SUv4uln/p/9LvvgVg9RmNmf8kY/3oeQEZalVEe1TSm/4f+WjNN+31veF3Ki/gbSLhupiM0oH6o70i4eJ/v/hm4WbU/imrqz/ckCCwQlsHn8JcWuW8m1ecaEhUWDFt8Stmuw10ktvTfTcoLukLfz3PX5SWyEbEI2dmB4MaQQ3YO7B093e0KxynPiTylhF+VZJRbNoCESXtULFobSLCKes9D4qC9sviBXP0Po/VNEgIy+rYXx+XrluivTcJ0Pn6W7l+cxKh1R4cWSwsWxWZ0Ia7r4qWPRKxlR1oMFdpzZIGro2NsaSNxU/WuR+pnuxAt4JDZYKpQGRnR+6Nf4LP/oPV/42Urvv7pa+n3MmTIWXjGrTUFG1cu6wiPCdf3EEiYdH0sWo5gFQqJg+rTvXlCdD/Bfb8iIdD9ssoPYD4/mHthESLhtft3oj+ihMsSSwsWxaXYixO6Ll4++ztw/+NpMVTwuaHvWODqWEh/SuKm6n0C56OvYakWQ5uBP/VgINKm7o9KUcYQHBl5FhhHTNhjofWmySKMN1NN4jMfp+36Jqh+qg9F15efxsVUt/KOqg2hpONgoSzQ++F3P9Pf/BcdhT/zyLOZpjJpyMj+jrwZ21P4hsTrEIuQ4WlY/hKq/tMQ4W+mlfFOez9VJGy0jUTDJV1/JdGIA9+7BM2ARKH+MHkqamWa+jKafk9FXkyGYJInNnU79dnxVsrQLjH1z3QGSXis76fovFE/stXFRJYgQl7IQAGPePXPdKD5XFfasymI42TcDY9CeRjdJEJuI19aLEs/ds7ocDKJXhIDx/txoP4Y/Rvd30meS7vjOXFdzT9Loo88Qpfo9pAgHQCaswnph+TFOe/Nkug3PcOC+ICMpvlkzx7LXozxk7zeUhgfkHE3PArlYbAIFVtfECyLPj5iiNSFL3CGxMDxfhyoP0b/xk9sJc/lYcdzYjFbGh3AZyTOLtElD+jECWBpNiHtJy+Ozpu1j8cztKGHsiT93pFZKUAjptG2oW0T02ip1auFQPWd1h8dyDM5XWx9AWisnUbquxzGrZzw073+6ECeRvU3VbjieAQkSuQZTa/XmXO7yUP6NXkXpsdwezUJWzVG1feehcN7LtFLU0VClp1pJZhTsbQIT7Ewmn0uR7skcixqNfG0z1P9tylM35VN1m3yCBCHkoystJYlcTKmwRMJXPTEMaw/OiS7kEqGDSNfalhUulC3wz4G8rjeJG/Frz0SJnf/PCoRjqEu3I6YcT6chcOKS/wPYqyAuH9O+v/oMrQWZHwvRAyjXABU33n90eHCXjL4RdYXCBaVvZj/uJ1ZRx7Xr8hb8WuPhMndP49ntfBh1NHykJGl5ywcVlzorx5jVO9ME3vlIN7elMS+gOE3RpIQZgoyrFW3/1PWcNGVu6ryGP0ssGdkh+m2jaL+0BVcWV/vFqFv3GEw15Ln/Uk2qtgLuX2eDo+RKJI3xGLgosTtTt81j6SvCpO/dosZnH5kI89TnicJgcWn4Ay4SsOelh32W7Ue8ZfiCO04VJzoJbtd4TfXUqwwzzXY03LCiE/gxO//iEWPv1uc6JFgmuE311JAhl+5ib/wFH65L1xQYkP5BKjBThYwoW21Vejze8fjwGX0RxOqz04acKidxPK89RVPaqIKyxcWZ6AzscJFnFSQwV03Y5LDV07YjPB7t6HCXOR9mC/wvZAgzftPDn9pD4PWqzHP8JpKBHljN/21ClPcDr+XIbFx9b8M7SqRNt532YvKJDQSHVwMnMNAWcIM7eQp6I8mbTH3exIm3IHGMHkeJXISAkGCNHwujGYjkSAQyThSrpDcDBP9uU9ojJ/0BzJezLvhMvqjCdXnek/CLOTkgHz1lRgSpK9HOJxW4Lsn2u+8KyRXQiJhujMKC0+XmvIJ0MQ0tiybNMRkGsujk+QSz0+H5sjAp2qnsEaXaWyYxE4jO80NlVtG39n10X6cEZcy6ysxqcEanFbJFIZnUkvHsXjc6meBoT/OYuOX6qMcgtLbpvU6f+c2odX43gyn3U7itX4eqoxy/ML+H+tYlPQGhspduWsa1U623LR6LzP56/q0KClIPNT++cJX2VHhr9hN+C5WTR6R+11PydvV4ps+rjTsjeGu9Dl1odJNSQPoZiua5ADGwu3OS/X6tg7EjOw0N+1oNsNftF/rjnaMvdhZNq+KkwbWvtzhFg1qN9SWRCpL9l12kug/kKRjOISoS7zCCKl2yvfHvIoLEdz/Kytzy+InuOOJzcC7v0mH5i58gbGFDzsv1edHN+MhIzvNDZUzw1+0332PP4wxs74Sw0kDj1KfXaJB7S6KfoHzWbLvsvMFzp4YoGN41yNedF5UO0H+0NafyOo2RAZ61P1RKcrzh6gFpE03kjF3UrUnqnGMyiB6CY+RceeMur6FRlp3nvqcFHA/OOtO/yFr0HIKFkgSzsdIeCxINEdqsIfKFCV8ef4Q1Ulz5pfxedKwVcYYvkf17eSBUH3qm2/4HQnV5zXUnnRtLletUqLTfpY3xdrBSKt2Y6VEkwyhxpMs4FCKdkmkXYLFWXM6hOfedwo3b+M0dDfZ0k3T6dRpsqUP1z/D2W3p1OXES53Ajo/RTLtzCvJw28dobaPvejrzpmHzqAmqrB8cDtRhrqDlrFTuLqSWkKdFomH1MYnEgU702+0aKdPqndGqTgx70rz5OMyUbTOtW707+rALvfvTIbis/TNS1guigLTp+Q9xdls6dfns738DPP5nJUqcUff1T4207jz1OSngfnBmmQ5zBS1npXLvxXn2tEg0rD6ykGzFWW86uYKz6zhN253mzcdhpmybad3q3VH/Xpw5kQ7BZe2fkbJukvPPE4qk0DTssgpQISMXCEL58B8JQbjG0AJ0Lb3XmLXISAiCMFMk8QLdEOFYmcNHgnCdENv0DLBvf0nFhxl4g+qM7KzcWHAZ4S1vSEsQBMFDRvjICGkJs5frYzBSQRAEYdYhIThBEAShIogACYIgCBVBBEgQBEGoCCJAgiAIQkUQASoxa5Zdn1OBl5s7X/8Ed6+r4LC7QllZ+qsZmspamFWIAGWD/5h21SV0L/MbAWD2seD5T/DAMVqeD5K9H8NSLquXGRGWFbut9l7fpDcIhcBpzvYIyvnhv8hPj7o8I8LCf4TK7f1qs94gzAXmbhp27SR2RpF7VtMgZWYTbORXxvHJq8H/PK1m3WEsRSc+PzwDA0o1bcLdW4HPn9unNwgFUcRIA7lnCC0xeobQEz7DxgizE/GABEEQhIowBz0gnmY724jbPFX3/PTEd9oD2jMy7RowdU+/MTOrwl1nSs2i6h501YHq3BLlaSSs1dQItzeOxgsLqB1rWxA4ZLZ0BX04tQ2fD8WwdF0Mlp82gEuvduLsKe2RsFfDYbWhLnyiPQf2Wqyw2QCGn1uHr4bUZscD+vwjqo/28a3PQ24PiEN1u7FAr00eXpfdUyLvZunWDixoslYn6bguYTdqPnqA2ra22R7Q2VPh9PEOxXH2NSprH4NmwfPUrxXp0ODkqS6cPbwPk2Y5+9wQl159AF+B+rCuAzXUh5x9nQGckQF4MM0LP08PvOkdTNMe1NIYcJK9Fits5pkJU3tAQQb7tMntAbkHz+SpsbN6Sp7BNMfpuM7jt5j/d/eAm+wBfdb/E9dAo2d+b8xoqrnjiXfp/KRDgzxD6GcnzJlUCfvcEDyw51lspnqtkbZ9+7r4WezduwmL6ePJ3S3YfdLaLJQPCcHlC8HxlBKG6DQuvoydDdVqP7/RsPn7LXTr+AsQCRkJFU9J4YziXUvbopeBwcIESKEN6CSJy9nXbOMaIeO7C3cOGaKQJXR15+uHgdc8AqTqi+Mr26g3kYhsJSE45W+Qg4bgcpeLkFDtAkyha6JtW6l/hz0C9DoJhCE6SkxXHFfHZr+tU2010Tl5NZ7etoLFJYyvnmNhc8NifuePqd0vj9M+XE+Ezg31xzw3+Vj1Ct7ftlqv+FOwUdMGdJzE5bPf28aVpyd4DUsvGKKQJXTFQ/jj9x4BUvVZo0cro66mJ/gt6vr9xSNoCC53uZ+QUL0GmEK3kLY9Tv074REgnorBEB0lptEP1LHZ0yeothbSOXk3PU01T8lwP4mumn5bb7NhMV/aQO2OfED7cD0/oXND/THPDSMCNONICC4vJD6fpj2e1OB8HCOPp7hpwK3sOJ7ozoE+7/m0CPFxIGPMxtcxlOyxdGGSn+T1lsIg8WEjbdenjH0XUHR9QbDG/J/80hCnoQE6LkN8HPh40/2bPGxNK3Cb9pxYzO5ckXSJDzN5ah+JH4lutoSJUySOSnyYAToHBYgPc/IFPPJIS86lOINGRpONr2Mo2WPZizF+ktdbCoPEh420XZ8y9iRcRdcXBOucj48Y4nThCzVjqCM+DjyTaLp/4zyFgWtCNp7UbcAlPgx7QCdOkOhmS5joJ3FU4sN4PEObwTew+ap+K6FQRIDyQQLhhOQUWUJrgWAxq0Fj9JKVYbeKvClzkr1iOOU2tBa0bShsGOUCoPq8HgKG9pHBL7K+QLCodKFmq51ZR17N67udcJyLoaSnfx6Pijy2GlruNrL0nIXDik3u+X9sJknwrkn6/+gytBZkfC9E3BOeBYXq83oIHL47X2x9gWBR2Yv5j9uZdeTVmJPEmfA8N/qjhcejIo+tjpaHjCw9Z+Gw4kL/B4wxqle49hABmmk4nEcez8aTvNyC7f3VaIlevjoRmg2wp0UezyeP8bIOn78Wx21bD/uLUD6GuvC5qsdnKSDDryA4BPd+X85l2ypddi7CnhZ5PO/9Gy9P4MTv/4hFj79bnOiRYJ5Q9fgsMoL2dYUIUKUhQeqbmMaahUX+8eoKO1nAhJ/0k7iYM4TEZfRHE6rPThpwaNpEQpCvvhJDgnTxSw6nZQmZZYP2u+QKyc0Q5QrBRX/uExrjJ/2BdBjNFy6jP5pQfRlTVy/k5IB89ZUYEqSvRzicVuDfGNF+PHNoOby1xU+9Yz0s5HmXJ5SOuS1APN227XnUTmM5eSLdq8b1lN+lhxMUuo0MOAX1oaWhCqcv+IT26Kl6r3p6fgdP8ZtRP4bCWPr6JkNMOAmhA3h1Wzo0NzSAyaZ23KnL8Av5u43sNDcx3GmGv1QSQjsmzfpKDCcNPPA8i5zewFC7t60YwKUs2XfZGcBXh5MIvX7YI150XlQ7Qf7Q9hriQgT384t5x+ByEsJm4N3fpENzF77A2MKH1XTUDL+Qf8jITnND5czwl0pCeBhjZn0lhpMGHqU+u0SD2l0U5WmlCw2N8dTWAyrBwi1edF5UO0H+0NafVSv5ehnAW2/JtLkzxZyeD6ixYRxbojq9GlVIjdRgz2A1UpxwwCMh0HcW1To9251ufbrfSh7ImITPxJiQz8qQq8HpWhKhhmmd1l2FY4PzcdTOijNhAaKnscV8U2x+EgcH9XabAtKma9btdqUuD7+2Ddj6CUJk9DkF+eJKI607T31OCrgftL8d5gpazsqQ68Klpg4sINGw+jiA4cOd+Mpu10iZVu+MHuNsNneaNx+HmTFnpnVzfZdUKnY6BJe1f0bKekUpIG16/kO/daUuc5YbHv+zEiVOQf76p0Zad576MiaHMzEmigtazsqQ24vz7GmRaFh9ZCHZirN2u0bKtHpn9G+czeZO8+bjMDPmzLRu9e6ofy/OnEiH4LL2z0hZd9AZcHjrSWw+eI2+D5yFyIR01zNagMr2XkOoLFqA5L1G+eHw2166lzZvfgPe5zyhfMg7IEEQ5jyDB5/EIyI+M454QNcpGeEjI6QlXP9khI+MkJYgzBZEgARBEISKICE4QRAEoSKIAAmCIAgVQQRIEARBqAgiQIIgCEJFEAG6xpG59gUhO2uWXcLOxUUOYyVUHBGgq4TTZe2RePMjc+2Xmuihf8Haj/8FsY5sQ1FYBC3nJbTL2m/trma9RcjJ6p3ofaVdrxQAjzzCI8QvK9eAT7mJvXIKbz/rP1K6UD6qFi1a9K/6s1AEPA/J2Qs/wdKFX+Bsf74hPAbw9QkqT4saUBEfYHDwH/o7fy59ujdvmZyMfED9IqGMAoOfuieWmA2MvPsRUjc0I4QEkp+5pql1kbVcuAHR36zHql0/R7RjJaKxBtzwWQIj31pfjx3/CIkklYmMIHG86Emb5ghhvPLO/0Jy33bEvbcCT+549/9Dz/l5eoOHiWoco9PbshDZy/jwf8/XoOfy1T9HJ5M34H++0oZ/7OtBUm8Tyo94QMIcphmthzrQiI8Qf/DfcYSWeBfQSN5SaxEP8XOdyLM7ERvYj33X41ieA90kmu3YJF7QjDLn/hDV+QtzHpRR5trPGIK/LHPt5yNMQrBrJerIG6lXG0Yw3E2eR1cCo2o9TX37L9Cyq9ko9wfyaWgb/kDikfZQgpTj8ForrR/pTKh1B9p37S6QKP3Bap/XYwnE483uOjv/gF6vVxReqY4lpO3Y6PE/IEXt1sX/ncpa25jQrg4SuXQ4cJQ8rb6ujzBqPn6rflihv+HOf6f+r0QLeWn1VPdod5c6DnUMhlhyud7kSsQOUTm9DcmPcGT9R+pjqdr1Y9M7pxCLP4VfvmFW5h7A1409yK9GT5O/Z2QaW5r0IMHGdPhp3HWmhm7JMgU+QXVuMUagT41we+NovJA5C3Hk2YN4O9aDXz7ZjZyxDJm6u2TMzZEQtAGVufZnaK79vJDwhEdcRtBPHOo7OtDSnkBfpzaYHD7r+AUa2diTobcNY7ByJHofN2OYRGaYd/LA74zqurRoaIM8mkwgQaIzrOpk0SRhOW4a5Aaq8xeAKUzUdisZfdh1Eap/YTL8dGy2wNa3s5FvQGJ9Zn/4XDTT+QG1r46J2oke4na60M998Qqmho+h0ehfyds1iWzE2+88g+QLK/CCnwekxWX7p5mzVzlwmWWTaDREh0eQ39lQrfZL6WIm1gjz87MIEAkZCRWorj32aPO1tC16GRj0mQZfHUMb4k8+hX25FEgEqGTM4RCczLU/Y3Pt58UtPswwP5WT8U7TgOaNI2QotagwyRH0k7FP0XdpApajuutou5/4MMMkIHURs14SHzbSTp0J9JJRxkbD09D1j1G9DvS5d73p/VD/2kdcIsCwJ8Lhv+ZsSRIsnEoEGDqe9YYIqPdUzVSvXmfIE2sMU58NcSx5uyaRJXQ1JjFw1TMZ8IzBaY8nNTgfx8jjaSlqxmArOy41YYgTfeYZiTPEhxlI0hGEEck3B+LgG9h8NZMMCg5zV4Bkrn39r4Y8tsrNtU9P1uQlrOVsM3txQl0a8jj8BcMjXkHLFcrxRGadyY+QSjY44TYWqV4SvjryHKzj6ECMPIb09wT3j5aYeaz2wsfsEt00YwN+FtOGjpcEM9SxUq+T98IhM7PPZWnXSwkEiATCnSqTJbQWCBazGjRGL1kZdqvIm1o2LtPfX0NIEsL1Dnta1/Vc+xzWcScCqMXn/U9JIZEaI6Mb0qteQu0NBRpfDXtG5PFYx9FF3kNCvXdxiRAJl+tYzYXKF8NonM4XCUxUtUPHRd7QMG1zUYZ23QTwHmYaDueRx7PxJC+3YHt/NVqil0WErhHmrgDJXPtuaL9yzbWfEzKaSnw8oaGMXFgy7P6Cwe+P9EcmaDnyVoaP83scn7/vaf8Fmjl8ZSQNoJ1TuD2oMBd5H7k8K+rPMHlJzTHtYdB6ClSXqy8lgMQlcbwBjdxO+0qE1Lr+jilXuzYD5zBwLQqQFxKkvolprFno88erkTAdQX4vjieve5+nyt+2Wm8RimXuCpDMte+hfHPtq6nF+YZ9/x08xW9uTZQnQk/uTmYWiUfHL9xZXIoRJLrJkPN224iS0PBL8Ub6Lk3Qcpzh9QcMk9jEjHAfZ8/xOn/n9sCaqU4jnEZ9ZvEaM8rxS/61RgacgsqF2keQitttj6C/a4Tq6jCOmeHj5v2L/4NX9njqN65Ea0czRo97PcjytatQacx0uGTEs1I7hTW251E7jeXkiXSvGrey3coAJyh0GxlwCupDS0MVTl/IDO1FVrchMtCT+TdMHlatZJUdwFtvXY/55tcWczcLTuban5m59hkWIHpaXMw37eYncdA77aRHBKzUYKBFiVACvUamWrb06thGMqrH01lzQcvZGXLNtlEmT4Ez3ewX7U6aM7+Mz5OGrbLMyJtLsWdE9alyJLCJLqovT7o2lxum4+7tSofCvCnWDuTd2GnVbjgLr4M8NU7CyJIsUJZ2LfKlMTc2jGNLVKdXowqpkRrsGaxGihMOeCQE+s6iWqdnu9OtT/dbyQPLo5ewxdRQk5H52NhfrT5aGXI1OF1LItQwbbU7UYVjg/Nx1M6KM/BPI/egM+Dw1pPYfPBqX3gJc1qAZIZJQSglYbzSdxDIlop9LaNSsJdgX8t25JpXmMNve1fGsVmm7y4JkoQgCEKJSOKFF44jHPNzn65tYpueAfbtzyk+zODBJ/GIiE/JmLsjIdgYIS1BEARh5pibIThBEASh4kgIThAEQagIIkCCIAhCRRABEgRBECqCCJAgCIJQEUSABEEQhIpQPgHiP+zqO4W3X9moJw0QBEEQhDTlE6CBbvyy5SnEI89gk4zZJwiCIHgocwiuFBNUCYIgCLMReQckCIIgVAQRIEEQBKEizIgA5ZwjRBAEQZiTlF2A4vv2A5sOoveV62+EXEEQBKF8lF2ArGHOn0LrC+b8wIIgCMJcZ0ZCcMmBXJPmC4IgCHMRSUIQBEEQKoIIkCAIglARyixAYUQi8seogiAIQiblEyA1FtxBbEIP9okACYIgCB5kSm5BEAShIsg7IEEQBKEiiAAJgiAIFUEESBAEQagAwP8HwEK5Qy+UVPoAAAAASUVORK5CYII=;" vertex="1" parent="1">
          <mxGeometry x="660" y="715.4" width="409.19" height="180" as="geometry" />
        </mxCell>
        <mxCell id="Xce9fqfD_rUZ55vbkONO-11" value="" style="shape=image;verticalLabelPosition=bottom;labelBackgroundColor=default;verticalAlign=top;aspect=fixed;imageAspect=0;image=data:image/png,iVBORw0KGgoAAAANSUhEUgAAAZ8AAACnCAYAAADOvFHgAAAAAXNSR0IArs4c6QAAAARnQU1BAACxjwv8YQUAAAAJcEhZcwAAEnQAABJ0Ad5mH3gAADg8SURBVHhe7Z1/bBRXlu+/PAuDHdz5ZfKIewZwR0jdo80ACe5RFIjGbrLS8EcYJ0/KgKJICZABaf4Y6Wkym/iRbMIj7GT+2T9Ggg0GpCgDyR8ZJvyRSJttHEFQNDZJJpPRup9Q3JDZbtjgkNANdjDPb985t25V36qu7q62uxtsn09UwVV9695bt6vOt865p6vmrVy58r8gCIIgCA3kv+l/BUEQBKFhiPgIgiAIDUfERxAEQWg4Ij6CIAhCwwkgPiHEexOIhfRqSYKWE24IoRgSiRh9S1USjqO3mv2cdkKIJXoRD+vtQZlqP2cooVgCCb+LpsI4+O/HYz7LrsFGnbc3CYXvdRZ+lx4qZrupwWhL4ehgRm/xJ2g5L+G4NlCZwar3Fdw4Y6nJDB6FM6R8EXcBQ8lh5PQm2oNuGOL0/2KcffkijuaRdPazLoqoz0Wh9snb7WQQpnJtKaMPGlc/cymjbsK3n8Xw+daFISSHy5UilPGKljFCOaSSSVSqpiTTrL/kcVQYB//9+LtRO/m0x991FPnpHGtFSp1PGQweHaT/e+Bzq8TdSS6VtI7NbxyKzknGc3y+ZepB6WvIxnUdMn7Hra8D+gL198p/lvouCwS+Dm5CKoiPZWj8DIibMuVC9Fm0C9GwvjxzGaSGBt0Dyl9GOCPiMw2UQYcp4NZFQVe99Z34GrMABqnai9hpx198vP0s6ncFo2tTfLxToZyxrgV+9VcwVrYYF41DkP14zEsdT4DvejpwfxMdyPrVX+4zTVUiXEfx4X4k/O6sqJbM4BCdy9XUxt3oRThTwX4afaUTpirxqc11cGMoH3YLRxFFqvzAMSXL0QlBBqiDPksePYqjtCRTQMdUwjFCaegCjZJ4D7q+AGs9HK7HQFs3G1ZIwPy7Aj79zAzSHTGdP1WFF1Q99G+Q/dh49fai13fx9+DqC3sB1rXgu5Q0llPdT6iG3HCSxjKFHIm5Ob7JwSza4okiu8Vi5X9uWUtd7Vw118FNSNOSJUv+Uf/tgYxKfCWupU4ik9ebfCldLhxfj1h+EO+Ssbmmt13LZ5DOhxCnbyWb0ttDYRq8PLKIYe36OFbFYojFwgjlv6Y67T01NODxtesQX8VlYgjTfgvD6xEhgTPbD9OJsj6+SpWxys3D1/lRXDOr4zsOao8/D+VTyFPda+PrsIrqDs/LIj16Td1ZrI9bddjlMvPIoG2gcnpbLDwPqfSorrI27VbFgsWIRBZglMbT9RXocU3xwHAZOlGz1M9C7SGEY+2YSKdRskmuo30Cadd+C7DYqoz2a0dkFbX9mW7baSePUCSCBaPG99IewSo2oq4Thf4OrUL7NV3Ot58mdEOzoRNfJ9/FyfRCrEysxELVD/2xF66vfRQfvnsSn6VSSBUtZfadNuY46U0OfKe+HnH7HCLrkefvzz43Iu1YcG3UM+6MZz869wpjVa49/q4jdJ7Y7RUv6tw2v5pq4L6mJhDZYB6TXiLNSFfwuNojqxBZMGqdqyZ+54PvOek5l33LBES3yfvaXKNreIKuU+/1eW007XNO2UsW88IVri/G6Ct9gfQNcxv8Z6nvkqnyOrgJKR12C+q2lizHF0kYGb9YL8GT0U5IhusgMcrpkJzybOkLiXfF0ZbVsV8FJzWQK2q6vyHa1pUAjPCOcuHbUhiiDc6e4Ri6om1IJYv7wwITbaOS+Sztw8fhCZeo/oG8t0HXMfIxdBj9q3m7VVDsfvP4Bwm7eUM5fIedQoi8Gccr8M7LECyyoRT30/6eycuy63JCQJ6wG4+jT3hVjUO+TIxfY4VE8tQ/cyytY2iz5wi8cH1l52S4uyX2nTalvk/Pd6M2WeeYc2xlvi9zPzUmHVn9/Uz9/Kk16loIPBdhn4d87tHxa3vg4D3/vJ+Xwue8DYQee97XRl3H8fKhw2L4+4gi5732/fqv+0o7VAy7Tek6uAkpKT4ucShDyXI+X6CJ6+T0Xng2ynC0YYi2W8PJA1wpbk1iRF84G/uiItROIkRfsmdnl/HzhU8ijyHVfUs5fa5Hu9WhBMg4p4MlHExtzofbsmLZXIdxk+G0U534OHFxn35aF1uorEgEKVNT1PdfXtTcGIkHvmPqEQ6/78t3/Mz9rPPUvmkomuiuB9MZBxt9XIN0+1R0PZQah6Lx85zLvmUCUuKYXOdWzb9/C/s8tnCP1U15HUwDf/FRA2sa/RKUK6dPGh5gP3iQXOLjY5QYvpicC5LRHpGVv5Ajbylf8JaYSieFT1ady/iVQH2pdIfJsXVGGXrvRHkd2q0Z+vu4oeKjxsgUbMbTB99+ToFK30cR5bPSgsLjUvmGgo+5hOczCBWSVvjd8VcUH/tv++MbMw7BMb9/z7nE+J0Pvuek5zwqcd4GQrfpsl2cONVFwp6vweR+mb4V7GJpz2e24DvnE165Du3ZIaQqBBDLlru2AItXtQPeeQhNZOUqMsifWTFmjnnacxMeFkci7rjntTwyaTummkb6a/qSSIzwdRpqeqhSjN+nDXapK8W7r00sRDjWoeOqdCLGI8in6CKx96lTuzXDL3ZOJmlqcz5m37kOPV/BHzjt+Mz5XOO4eZy8s8J3bc0LfoaTI7qQbz+ngJqD8PkeSi61iZfzuLRP0HlZtjI6h1N5hNebczc6jJLPWP3JzgPnirjGgYYoFKcbL+OcCcXWIt6WpXOOy/nM+TRqHNhgr11Ml6Hf98aiuBaL6Rp1183byYakPyQR5g9oXPJhrF8f9jmfjHp9z8n6zvnwpO1oOkvjvxIh19wKi57PPJezhDHPOxdTpm8LAs/5zHyKxYdOovjKaxg6OVL+S6tYTl0pLkPjQMq/LpJXcyNqX/4yTANmQ22sjJF+fVZIWCiCxIhUDtEFeiLw2gQWRuhOr+hEL00gEVCGcxU6uZ0FUXXBD31mnDz1arcK+K5pQ2TCV+j8jXq5SWh90SzwXCh817be8jy5/yoxRNVDf/Pkd5aKqHZ8xIfIZ1LIh9c7SRxh751krcTHho2imRxStPgYh2kQTHwYFiDT6HvOfd9xKBatSHPauIOulODAF5P/zeC0Kfu9+fcrHN+Azq89XiKLLwtQPGTV5Vcv2ws6tyKe7zFEJUbrJT6KBVSt9zi836O5cMJB8XH7958WugFPT7TPGfEpCrsFCxsELccnfBxtmUFnEj5ExqsrTnc2RSEHv4SDKF0sSaecCn2R0R9MDRthNiqX8ISOVH1tSA0OYbhQkAxkF4lG8Q9hCyEkvaEUql5y2HJhTyKEpl7tBsQan+p/6FsWPqZqwhds7FW0wCfsFgRnf90er9ctbOQTppomQa8fphBiqVHjZY+Hr0VPSKuWVPyephjO854PQan2vDXRbbrCbkSYvq+4k9xhY9k4kokSVHfcJcNudb0Obgxu8VEH6I3J+xC0HFPhR6Z8saoQNwlUMhNWwmSVLP5Rl/XFpJBti6KD6lPlcjTIKdPYa6iPLF52s1wuk01hcLjQY6dtLzky4J4Tz4Kz7RJ0opX5YuvSbjBmpfhMF3Wu1sEolmBOi0/J720aIj/V82GK4qOuIWfC3wPZrkFzfllR23EtKT6zEJf4BL0Yan/RCLWg7IWjqToDajaITy3rq0C14lPb76uS+JS7Q5/CuWHC4zxbPJ+qqDyu1WSezVnxEYRZR0WjWJ1xEAShNoj4CIIgCA1H3ucjCIIgNBwRH0EQBKHhiPgIgiAIDUfERxAEQWg4Ij6CIAhCwxHxEW5KNt5/CbuWTeo1QRBmG1MUnwnsWHcJB/Qym43EWPfv8LenaOlerbcIs4+5cz7fKMIvf4Tek7S83KO3CNOjB3veOoXBoV1I6C0zjWn/zqdj2WXswCLsPNekt8wwbrsbudVP4/Lyu631bz/FrQMHEPrWWlUs34K/dX6C7w98qjcI11f34cIqPWYuzqN14CDuPHter88sZvz53DqOXTFg58ctekOD6OxE7KndiHZ3Wuvp40i92IfhtLWq6N6N3u4kjr5wXG8QpkrkmTfwZudBxJ+buWM5x8Nuq/F1bx/G8C6WHPoFvk/LEtKXsd7f4evluojgy/xPd+P7R9/F/G/fVeNmL0tIoK9398n4zSl6EH/9MDrQj+S6B3CUluQhEvLXP0K8WxcRas5I2lT2mYeP5zOJjbEreKTdDj004fSXTehob/K9myp7p9g6gR2xcXS0TtKJyXBdLXjnXDOyat2A7ti47JpWazU7ugincQUdF+/AXvPJ5kHLBYBDal/jQLFHw54OXTRLDh3AfHudPJ8l6fvwdfdqXFeFStzh37aBymzA2G3W6vyzB9CKLbie/gWVtbYxY8pAFzyH+WffxZ2fsjHXGxjVDyvc1zrwC4RAda/egOtU9/w/7yahPG8dg2Houdyd327AhV4qp7eBBYKEgqlVuwo61gs8TrpuG+5T7lujXGA4/HUFa/Ra9stb3edV+xUciE1QA804RmUfoXOAv/+9F/k8m6BzrAnHPr4V74wBa2KXsKOd9qHPd47R50v5c4bOwWHaZ9Tfs6nk+ayJ0efOtcHtt2DvuRZkqc1q+mdTtj7GqbMFW85Nklejj4Pa2EvHcdqpyz12bqjsSb5ODGp4HXFILY6+Yo+GPZ2XQYLUZz1fTXs+yYEEul7u0Y88SiPzQh8GBzyGtHMr4i9tQVg7UrmBPrIZu9E28ACVtbYx4ZcPk8DpQkRu4ACGDvUj5/W4dLgv88IDSGErup7aghDtlju0GcmDaesYDKHkcoNntyLxOpXT25A+gKNP9qs/a9XuVGHP5xXsxM9em7kC5BEf6wTu+JIuGEcgJrFm2RW6QJqxpVrxoX07WpsKFxKhjAKV3zLcrLcwk6pdmEaBBGsHXZg4Z14MQcsFgbyep+5DCwmMvv5c5Mj7uf6pFgxtjOd/+ylCdJK1sqG+jfbvJlE5axrZu6nOpwFTlG6jbWTwYddFcMjq69vI6JPoKXHjbcvZwN+N0NHi/ihjfhvVR+3fOUBCQe3kermd3VZ40CuWGj6GMaN/NW/XR3xUfTRWrUd1mSlS8rzisNL945aonAN23M8Gl4zrx4uQXXwZu8zzVBvuLBnuvcO2QafzmW6uNo75n7Plzmf1WSvXVbh56mgnI75sEu9Q+8q4V9G/QPUxXCcLEInXO1pweN9dS+mGkETFdSOnylYKu9XyOiKv52QCGRIYv2eSxsj7aTukBUMb45wOyWXYbnbS/i+RqHxgGuNOqnM3YIpSJ2176TBg10WEnj6MruX9GCLRs5/MF+pmA9+J1JPF/WGBiS6n+s4ep31IKKid2OvUzoubrfCg6p8hlho+hg6jfzVvdwrMBvFxhd06lpGXou42Tc+E7hTP3eorPJVxCw9zmu/q6ER3Y61nx4wLnv7e+7H3QghaLgAkCte/Je9Fr3ppIfG4frs5p0HCwwbaNqjaIGOV4WFgifr/fKrXgf6+82hBeFigcssvuASAYQ+EQ345EgJfzh7EEiUAzHnqi2Hcad9bv11N9ep1hoRh7DbqsyGMNW+XoXZUQoZeLpDXhz8fnJbwVESJCd280N3/EH3v7MmwQc5e9PGoleE3PAnl+dD6UjrX9ZZgTGIjef+mUDDsqbDIbDSTFAL1r4r6GDpR7XqY7LlFODY2ia5SJ3BZangddUbQlibvRa96yXyQRhsJRwESHjbQts0kIRp88QDw1Fbj4a9W+fxZw7BSG4NPml5PJ6I/TrsEgMkN9KuQX/Rps02DD/qQVALApDH8pCEAtG8q3YOo4QGxB9bRSX02hLHm7c5R3OJDopC9WnzHN3U4hHfZySJSix02cGEZiA7yiqxydFfHd4xFF1bQcnXg7CfFQvXtuyRGSzCuQ2wsUHeSF3CdPAbLGPfhQu8WJwSnII/pOi0XDIPtLBzSu80SMC/zvzEErYjzSizHVpPh1/Df180+16VdwjPn830Sp9blfU7Yrl4Ui0wJRv0FKVut4W6l85aWXea5bC98TntuqCr2r8r6WMjMcB2L6NS5gdfRQLJYqNL9yKY7nRAbC9Tgk/1oe0lnyJ08jAR5CoXPic4EiVoPEupzz8IhveX+IpAvO09CIkpiGSYhtAlzmMzsc13arY7Enjfw5rY09s9gr4epY8IBCc/9l7EGdCd38g5ssRe/+R6GY9h052WVI++L7gi7SLiKLoig5SpBHsl88n5c17PB+PK7KxteP9gjIk/HMsa7yWv4BOPdfW4BIoNtJzgULd75p4DMT5NHQ+KSU+3cTf0n+0bbXNSh3SJoXNk7al2+QfdlFkEejetcNhf2dKql1vVVQ62uo/QI8uTZlHqfTfjHnVMzvOwRkafDyQtH121G8sUkwi8ddgtQ+oCT4FC0eOefApIbII+GxCWm2qHjIi8oQ9tc1KHdakg+9wR+tr8T257xF7qZgkt82A1fs5hjyzWA7uqU8NBJ7RKbUtbeC4cs6O5042LPHaCXoOWK+JS8BZ638blDX74FlzlkZSQIYPl9xV1Xoa0LaCkXYiIxavn2bjqhdViL1lux2vCWagQJS+gsiSm3Q4Z/TK3rz5h6tVsCVwLDjaTdz9Nmz6KJzhu9GgQ6z07TflMLc/lQ6/qmy5Svo+NknHsQ1xPrLrp3I8ohKyNBAN38JmAPKrRFXkdZp4TaOdtppHInya70uMWoFpAXlhroRAe3070VYRIaV//r1e4cxC0+51pwup2TC4wTkNx/TjjYxZk01VwoJGRZEqCNTl26nvuLY+08eXrAyLxR0L5d7U04fbEQXghaLiitnDxAQnOBw05623W9zp+ZcyOcoJAzQ2jkZbBwzTfK8YT+34xMNwWVG19+nrwQ24siz+DTC7jc24eckXXG3sqY2n/q4Sr2dK6v4gQC6tdZ99xOPdv1Msa/m2JxvxkEiAzqDj7nnHOGEw7G1WR74NCdognvnGvCI+TNF85phs9rPi+rvWmrdX0GfN3Zx8vXrwp9X3Guu1pfR5ytliGhSXDYSW8L6XX+zJwb4QSFqBlCUwkHPcgb5XhCv/dlMvymgady4e40sk5WXBrDh9JU12HEjKwz5a2o/af+Y1b2dEJPbUX8qR7kPkh6+l+/ducaxanWfOLSifmIE3MmEeH0T8ODcdJY/Rg1MtlIyJzUUMJKI+UMIBYgcvt1+qfK+iEv6XQrXRB0IaryJF7Hzi3CO0ZKbNByVVHhR6ZOKvPZAxVTrVU2Gd5FK3tEVJ8q9+153PrpQfJCPCE8KmOmZHO5VpX2XAh/edOoHXiexZPebMHZdvy7JWqzVLZZjdot/SNTgkOPdlZgFVQ8ry5OGEbZOn+g91Fp2fS5dXOjzy3OdlvcrLZbqc4MJxwYWV5E4POZoXPPTFHm8++0Oq+pjJ0WrQjQPy5Wrj7Gp072mMy06tPD7kSBDr6BNI7Xuu54nkttqM91VOFHpk4q80BfxVRrlU2GfmSXk0dE9aly6TRSh6i+CinZXC7zQT8GDxbCX940agcjddoNZ9sdJg+N2iyVGFCXdoMzC1OtBWEWocWn7vMngtBg5AkHgiAIQsMZee0gkpFdc/vZboJwM1IUSvOGzwRBuKGI+AiCIAgNR8JugiAIQsMR8REEQRAajoiPIAiC0HBEfARBEISGM2PFR97xLwiCMHMRz+cmhVOF7SccNx7+Bb39xOOZKfJ3/PpP+NExWn5dy19BJLCC69TLDzdF9HZBEKpFUq2D0noD3o1/E/xC33oUi//L1W56HnwFP1qbxJ9+k9Qb/GnZdMRXSMZP9ePMb/ZjXK+b8D4r0Ie/HBnRWwRBqAbxfIQ5z/iRTZZAnXoef3rkR85y5stOrPjdNl1KEIRaUjfPx/mFOb9OuNI79I2HJ/JDEt+he80d/FbVVv1ARueu2/1AxaJ3/BPeX7arhy6OWa82ttonxlqsN7O28gMnuR39cEXu25cteMf1ziF3m26MB0RqKr6Tvxq051PpwZgKdSzGk8fHqG/Gmy8dgpbTVPJ8Ah1vkHG2zwH+bs5NFh5IW6F/ZdGez18+TGDFrxOwfNYRXPpNH86c8ngsJbyk7/3uCPDqJvzHl3qDpqzns5Tae3YrWpZGCm0e6cd/HEkWvChuzw4JftmPP/1iv/rT5YWxGJr9WfYM9u3bhmX058lXuvDKSWuzIMxE6ht20wYl6Dv0WTg2ttI2ZXCoPJXdeD+/a/5Wz1scKxhF1S6K3m/PSQprRk3BImNI7ZmGUokX1VsU6goQdlN9CvJO/qA449fsvLvfFo8O8zhU36gN00hrg581xy5oOYNy4xz8eAOOs+of34Q0OX3kNnYtbSr6LgOhDfz4l0n8x6vP4xILiBKGV9ByapNbOHzFJ0Lis7t68aH9WpaOULt6leA5qBVwi4kSmgeP4y8kPGZoz95uC5KDiI8wi2hA2I2EhAx2wfDwnTutl3qHPntKSngYMkIf+xvFstDd9zHytjaaz/Yiw7amlYy4y4i6DSJzmu/anddJVAMJZTXv5A8M9ZkNud1PLcwwxm/NsgnlDTllGC5Hx/oIfWYTtFwwqjneKsaZPDKzj9lzi+i7rPKV1y5IeH6hhYchITrzaj+wiTwTvakULVQm/DfyWDzCUxm38DDs+Yx/3z2vNE7bLi3diu89qDcoEvgeeT6XjniEhzn3Grb/pAs/oUWER5jp1F98qnyHfvaqjydTNU0YGm0iY1u4n+S/O6gvbu+DDKh60VYhs4s9DV9RrAR5EFW9kz8oRX0myJM87Yyf9RKwjMe4K3jfdn6jLBO0XECqOt4qxpm9PFcfp3k+nErikv7T4cv9JEaduHOpXrdh78fIZluxNIm/eMJwwSCP6ddHXHX96NkeH7EjYSTP6Y5NhXklFrw7viTBO6U3CMIsZdYmHGQvksCRcbTe6EiGmryg07StAIf0LpPB9bxH3zXfUyU38p38N4JAx1uHca4XnoQDFh6/TLfycKjuCO5AP/5i1PWnI8d967K9nxXK+6F9tddTfbuCMLOov/jU6h361UKG8Z3RSazhd9K3j2ONWtefMSRMyiB6wkaYap/ojr0u7+T380hUCNEev2by8tirUZ+44X0dzylouYAEPd5aj3O1PJggIfCwdBvuWJrG11WH0wKwlNsj4fEK19/0v0UUvJ+WB8t7PcueeAvvvTeE955fr7cIwsyl/uJTs3foVw97Oh1LeQJ8Alkyrm7j12R5Rk6mFr87/4o7K86L40nx395349frnfzU5v1Gdhr1gTPfssb48fxJB/XdKcNwuWWTOEYehk3QcsEIeLxTGeeakiBP5BUSG72qEg56MP6b5+vjXXw5gvGlPfjeg/b8ToSE5RX88Hel55hs7+eHnBxxqrS3tW4t1zmC3//+36wNgjCDqX+223TeoU/eikqJ1pQsx/i+LIyEbx2HfJpwzC9xgfrnpPQSVpowLLHkRAlPGnWld+MryCsp+07+gDjHygkYDU61rmqcgxxvkHHWmX0W9thTX400d5U2b3qvZVDZZRzKOvV8xVRrV3qzhn/7481kc+r0w0yLfpDExmmP6uIfqx4BVigBSuLMI88XzUNZfUjjL/SZr/joTDf8/nFsf8Mvw04QZhYNEZ9ZOd8hCDXke7/7E+7wpn8bcMht39oktm9/DaTbgjDjmbUJB4IwY1BzUNbcTynOvfE4fiLCI8wi6v+EAxvfsJggzFUSWHHslaJkiEu/+RHOSJq1MAeob9hNEARBEHyQsJsgCILQcER8BEEQhIYj4iMIgiA0HBEfQRAEoeGI+AiCIAgNR8RHEARBaDgiPoIgCELDEfERBEEQGo6IjyAIgtBwRHwEQRCEhiPiIwiCIDQcER9BEASh4Yj4CIIgCA1HxEcQBEFoOCI+giAIQsMR8REEQRAajoiPIAiC0HBEfARBEISGI+IjCIIgNBwRH0EQBKHhiPgIgiAIDUfERxAEQWg4Ij6CIAhCwxHxEQRBEBrODRCfEOK9CcRCerUkQctZhGIJJFThcOn9QjEkEjGq2cDZFkIsEby9ehOO91rH49fnIFTYz6nfRR3HwDXOvYiH9XZBEOYkTUuWLPlH/XdDCMXWYuW1FE6O5PUWf3zLsQHbsA6rYjHEnCWEfCqDicURkp0s0qMLEI61YyKdxug1vZ/NgsWIkNHLpkfhfORsyyNk/eHez7dNcwljnnefagnH0RsPufoVCsfQPpFGOh8q7rMBi0gMKWS8w1l0rCzK6xHX/Q6TwCxojxSOIzyv9BgEhY9jfVzVF8pnEYpvwLpVuu4sfeyMcwQLRn36LAjCnKHB4kOGdGUM19KDFQxPiXLXRpFOpZCyl+w8hBeM4jMqtKCM+LCBXh8nIxhpx4IF7YhogxvKkwGcqCA+3jZdSxbzLIs6PfEJhRFrn0B6CuLD5dRxVBSfPDK+x6AXVW4BFk9HfPg4SAiPJvl747raMfrhuziZorpdIi/iIwhzncaG3cJRRMk4DWb0eikClQsh1hVFPlMoFIom0NsbJxFykxk8iqNHaUmmkMulkOS/aanYD4Y9n95eqtdvSSBaqxBVqA1t+k8bdTyJKB1pKUK8G3kU+ojZ87D7VmI/Dk+6j0FCYIIgNJ4Gig+JRTRMd9/Der0UQcpZcxMd2aRLQHKpJIkK3XXr9ZphCFbxksRwTpebEny8bchk2hD1TLao42HB1OtFkKfRQUebaYtbApIZLPTLbz8Sp0Q0j0Gz/1SuLW7O84QQTbAo3TzzX4IgzD4aJz7am0lVUoYK5aw7d0t4ktVa/bY2hLSH4XgAZT0LTShaxvvxm7gPipUc0UYiMzg4hGyHnTQRBPb8OpAdGsRgchBUUTAPJpdH+WhXDqkkC9N0RdUHNY419BYFQZixNEx8bG+mkj0rV05laOk796qFR3kYYeRyloeRG2YvqYSHYJIbLuP1WEv1fWFYeOKgg9HeWw7DyaQSoMoiYnt+Q1ogMlRNEvloBSEkzyiZ7XALaYIEjNqtudD4oTzIJFKNaEsQhJuaeStXrvwv/Xf9UGm2bRg6Olje0ActNwVUKnZHFslkDtHeKPK2weU2u4ChZAZh64/C9iBekQN7DI0w4oWQY1nRc46rsuDXDJ5zCmdwVKkp99Mzns44s7cXcM5NEIRZSUPEhz2WaL5ymCxoOSUkZWM3HiFQqcxtzjZrf/agBpEpJT6NpoTY8bxP+fGwPKgiZ4nnf3ytuyVepYdvGiIq4iMIQkDqLz7KqDbS62FjbHg22th6jR0LXRxkoFOh8uJTQhQKTN/jcYmh3mahhSJfQkhU3/zDZur42lLk6VXj+XgEo1qUyGsZzKSQaos6Isdp3m0dIj6CIFjUXXxq7fVUxis+FXDdkVdreKdprBX+4liAjyeMTJEwcdcT6MJQiTErtZ8WtHp4PuVwjbOIjyDMdeqbcEAGJxrOIFXJkgUtdyNgo2lO0LuWWmRu5ZDJ5kh8fUJnSihoeyZTJDxMLpMFol2+KdGqvpKZbSww/skTdclyEwRB8FBXz6f8nXmBoOWCUWPPx/m8zhP33E4N53xK71fJ8wnS5hRwjbN4PoIw12lMtttMpoQomNTFWAuCIMxiRHwEQRCEhtPYZ7sJgiAIAiHiIwiCIDQcER9BEASh4Yj4CIIgCA1HxEcQBEFoOCI+mo33X8KuZZN6TRBuTmKvf4TE0516TbjRrPj5n/HQQ/foNaEaZoz4rIldwoF1tMQm9JZyTGAHl9XLTBSViU2345tXaNnUrLcINWH9Lgzu6dErtSf88kfoPUnLy0Ha6EGcy+qlIaLSvdtq7/WtesPs5u7H/owN/4uWxx7WW8rxMFZzWb00RFRiv7Xa+/l2vaGxJPacwpvP1OO868Get05hcGgXEnqLl5n1O5/2KziwuBlbhoMb5I5ll7EDi7DzXJPecpNwVxO+S9yC8Xt1v76aQMvhq1j4lbWquPcWfPN313H7kSCCOzeYTISQS/h9l5NoPnIVt3xe7kajE3uG3gCeexDP/ZveRISePozEU8UXYG7gAIZe6K/+yRZs4LuTOPrCcb2hMtyHLvQheTCtt9SRzq1IvAQkn+zXG2Y5bOB/8K949+339YbKLHrobdyHZ3HixBd6Sx1ZvB0PPQqc+Jd9ekMDiWzBm28tx/6unUjqTbUg8swbeLPzIOLPlb4GJOx2Q2jG1V+GyD/7DqHnv8HttITom5/45e24eq8uIvjSlMzh9n/+Dk1ffafGzV5CR65jclOo7PhFnqG7sJGD2G8ID5M7uNkSioE+HF33gLMMne1E1xzxEIQ5ysgBJEd6sK0O3s9IuvyNVN08Hw6T7WinP0bJ6xibwI6lE+hQnzTh9PAi7B3Vd6/szXAobawFWz5uUZvYW9m1lO9gm3Ds41vxzpja7Hg+Oy9SfbSPb30eyns+HJ67gjV6LfvlrWU8pElsjF3BI+32nTW1+2UTOtqbsFP3OygcUrtK/xV5NOzpbKK74OevUu16nTyf0F/n4+qmZuoBU+IO/64WXN28EBN3WatNn18libsFk3/9hspa25gJZaALx9j0+Xe4JTlOxlxvYFQ/LO+y+cg3WAiqO7EQk1Q3G/9QctI6BsPQc7lb/rMFuV9SOb0NLBD/PK7+rFW7CjrW3GYaJ123Dffpu6+Mch62vXUKieQT+NlrPhdFCW8l9vph4MXNGF5On3MoLX0AR7XHUPCY0kg9SWXsanVdyYEEumgf69FMaWRe6MPggP8FWd7z4fDcbuf5fblDm0t7SOTVxF/agrC2JTkS1Cx2o23gAWrb2mZ7PkMfkLg+pfuXPo7BF/uQ8VQbfvkw4t0Fw6S8wUPkDZrl+Hh1mDHzwgNIYSvVuwUh2q1sX33gMNnqGP0x/CucuPj3uO+hh+nqZb7A+befxafD2hNhb4ZDaRf34V3tMbC3YoXKvsCZf3kMZy6qzY7nc+LfqT7ax7c+D+U9Hw7P/RZ367UrJx4r7SGRV7P60e24e7G1eoWO6zx+i0X/voratrbZns8nw/cUjvfi+/j0D1TWPgbN3Y+9TeNTCAdeGd6HT07swxWznD02xPm3V+EMtlO927GI+uDXV+WlJAbws8cPYERvmy5c5yvY6X+taerm+ZwevsMKj5Fg7CADvfdjWj/JyyIMLb5SmIchcWLRyVpriuy5W1XZY7bomHB9y4B37PrY8LNYTWlepxl7VZ/uwE4SktKwSF3GGhLInbq8Og4ys5YAVkMzrt87gVv8QmkkGC1fNeM78+6dDPLVBLDwn/VdPt31oyj01ESe1HyAvQLbEyADPPnf9ccaDll9Z3hbvNzyV5Bo3UJHaED9UJ+RaPE+V/8OuEW1n0Mz9ec7EgMWB0s8J1R9SuC+Gld/t5CgWB6KJQ61bLcUk/e20LiRMJcKu0W2IBEhGzsS3BBymM6BvaInD7hCcMpjIg8p5VclGeSup0CipD0pFqynSKymNK9DwqC9seShcv3vRPx1EgEy+Lb3xuXbluuPTTppPH5c6F+ShCj+0lbXMwxZEKPoR1LXxcsQCVjXSwUhVGiPkcWtjY6xq5uETdW7Gdkf70asikNmY6nCY2RA74t9gU/+hdb/Ny/P4sIPXi3Mw5ARZ9G5Yq0p2LByWUd0TLi+h0CipOtjwXLEqlpIGFSfVlUIy92D1T8nEdD9ssqPYBHflHthASLRtft3YjiiRMsSSgsWxBXYhxO6Ll4++XfgvkcLQqjgsaHPWNzaWER/QMKm6n0M52OvYoUWQpuRfxvASKRbXR+NpAFhNzLwLC6OkLCnQutLx6dguJlmEp5FOG3XN0b1U32Ycn2V6VhGdSuvqNkQSToOFskqvR6e65n86v/RUfgzn4znJJUpMEHCQ16M7SF8RcJ1mAXI8DAsPwlN/2kY3q8mleEueD1Nyjiz6Llk63MSjCTwne88CkGCEDpCHopamaS+5ArzUuS9FIkleSUTd1GfHe+jDu0ydy20EjL0ktu0kMTXM2dmElmOCHkfI1Xc2oWe3oro2f6CR1MVx8mwG56E8iwOkAC5DXxtsax8/qzR4XQagyQEjtfjQP0x+pc72EceS4/jMXFd0R+nMUSeoEtwB0iMDgHRUiL6AXlvzjxZGsOmR1gV75PBNO/o2VPZhzzfwest1fE+GXbDk1CeBQvQVOsLgmXNr4waAnXxC3xKQuB4PQ7UH6N/V048Sx7Lw47HxEK2IjaCT0iYXYJLns+JE8CKUiI6TN4bjZu1j8cjtKEbsjR935FZJz6jpsG2oW1jk+hq1avVQPWd1n86kEdyeqr1BaCjdRLZqyWMZL35/HqxUJGH0fxVE647ngAJEnlEk5ttY0ye0S/JqzA9hbuaSdSakTMMtrNwSM8leAWaSMRKM6nEciJREOAJFkWzz3Vpl/DM+dxO4tR8b8gJ2/lTQXw4fGRkn3UtT5IhDZ404GIgWfwOpnQ/sulOw8DXGhaUfrS9ZB8DeVqvk5fi1x6Jkrt/HoXoTKCtswcJYzychUOJy/0PIl8hzh+Y4X91GVkLMrwXI4ZBrgKq77z+0+HiPjL2U6wvECwo+7DoUTuDjjytn5OX4tceiZK7fx6PavHDaKPlISMbz1k4lLjYXznyVG+jSex5A29uS2N/mZAbIwkHjYaMatNd/80dbjK4fm9TZcPrB3tEdmju+RxCh6/j+uaQW4DIYJuhL9fiFwYMQBMJTdNd83VIjASRvKDmv3rqqkO7RdCYsXfUfO/CMuG5Cnd3noQDFp4Z96IM9rDsUN+6zUi+mET4pcNTE7z0AVfIzbVMVZTnGuxhOaHDx3DiD/+KJY++PTXBI7E0Q26upYpMvnqTfO4J/Gx/Z8UkhvqLT7udGGBC21qbMOQ3p+PAZfSfJlSfnSDg0DqONRXrmzrZsSasWVwjI0nHNf/zZpVAUMS9t2CcQ1ZGggDunV8sVCq0RV5HqRATQ2I0/z855KU9C1pvxnzDW6oR5IUt/LwJE9wOGf4JEhpX/+vVbglcCQwmI2cxUpfQQg95CPpPk+5E0Qv+eKK/o5M8jho5B4EgMcqc7UTUSBoIRDqJrCsM12Bif+8TDuM7/JGiSXg3XEb/aUL1ueZFmMWcCFCpvhpDYnRhlENoVc410X7nXWG4GhLppCujupB0Lai/+IxNYsf944aQTGJNbJzc4EWFcBwZ92zrBDbqMh3t49hlZKG5oXL302d2fbQfZ75lzfpqTPZcC06rxAnDI2ml41h2xepnleE+zlbjCfQch530tkm9zp+5A1HN+M4Mod1FwrV5PpqMcjw5/80mFiS9gaFy110T8OQZJCcx/stQQZAUJBxq/3LhqvKwpzOZWIiriWbyhNxzO/Vs18sE/24K1/1FWaWUkv2nC23KpEeQ7+xxJtBD3VuRMLLQ3PQgaoa8aL/4Sz3Iv9BXN2+KEwR6X97qFgxqN9ydRrZEll1p0hg+lKZjOIyYS7g6EVbt1O+HuoqLEdz3cytDy+Ie3P3YduDtXxXCcRe/QH7xw84E+qLYdjxkZKG5oXJmyIv2W/3ow8ib9dUYThDYQH12CQa1uyT2Bc6XyLIrzRc4c2KEjuFtj3DRuKh2gvyI1p/I+m5ERgbU9dFI6vsj0ypSozvIkDvp2GPNOEZlELuER8iwc+bc0GIjdbtCfU6atx+cXad/pBq0nILFkUTzERIdCxLM0RbspTJTEr0KPzJ1Upl54r1CqrXKDMN3aL6LPA+qT33y1SRaeALem/3lScnmcs0q7bngX3nTqB2M1Gk3Tbj6Cv9uidr0JgbY1KhdPlb/H5kSHHqkMXSSMzyUSiktpEwXKJUiHHqas9gK6cmpF/uAlz5ClHbnNONM90eId9NnA30VU635aQiqrB8cAtShraDlrHTtfmSXk4dFgmH1MY3UoT4M2+0aadFqjmhdHzKeVG4+DjMt20zdVnNFH/Rj8GAh7Fayf0ZaelVUkRq96CHOYiukJ5/5w6+AR/+sBIkz5y78wEjdrlCfk+btB2eQ6dBW0HJWuvY+nGcPiwTD6iOLyLM4400ZV3AWHadiu1O5+TjMtGwzdVvNFQ3vw6cnCmG3kv0z0tJNyv4EYYoESbVuiPhU80QCQagf/k84EG4ytPjcTPMYsxZ5woEgNII0nqOLoTNR55CRIMwQEtueBvYfrKnwMCOvUZ2RXTfm2W5FIS1vGEsQBMFDUcjICGMJs4uZ9WBRQRAEYVYgYTdBEASh4Yj4CIIgCA1HxEcQBEFoOCI+giAIQsMR8ZkhyLviBaE0G++fma/Ln8uI+NQIThG1nzBbmbn3rvh6Ezv8D+j96B+Q2FrqkRUWQct5Ce+29uvdHdVbhLKs34XBPVP4PRX/MH3dJRy43+9JGvUnsecU3qzDWz2FYpqWLFnyj/pvYRrwezXOXLwHKxZ/gTPDlR6SNIILJ6g8LephgXgf5859oz/z59LH+yqWKcvo+9QvEskYcO7jopdSzHhG3/4Q2XlRhJFC+pPST5gtWa6zHbFfbca63X+P2Na1iCXaMe+TFEa/tT7OH/8QqTSViYwidXzU2iiUoBN73vqfSO/fWfy8sNZx7Prh/8XA+fl6gwd+tBYNb9dilC7jw/8534KBy9O/l06n5+F/7OnGN/sHULuHzQh+iOcjCIgifngrOvAhkg/8E47SkuwHOshLisvDEKom8swuJEYOYv9MfISRegBtT8XXAQjTZ87+yNT5JTU/cFDeFV/0WPl6vCu+Ip0kArvXoo28EOthnKPIHCCPoz9V9CToUM9P0bU7apT7I/kytA1/JOEoeCZBynFILU7rR/tSat2B9u3dDRKkP1rt83oihWQy6q6z748Y9HpDnWvVsdgP5Mwd/yOy1G5b8p+orLWNCe/eSgJXCAHmyMMa6v8QOfO2W/XDCvdl+v6J+r8WXeSdhaju3IF+dRzqGAyh5HKD6bVIHKZyehvSH+Lo5g/Vn7Vq1w//B1Xyq+hLPameX2e/qPCSSPaO6NrcOzrpetjw3mHjDcYKd51Z9bbhEg+dpTp3xPjVK9ZqdpTbu4KOi3dQO9Y2m1IPoC1i2TPYt28bltGfJ1/pwisnrc1CMOb2Ew608bxCwvLJH2zDyo9ufxUrLhqCoI32Cc8TYfnx5viDR3xUfdbTdZVBV49u/y3ahv2NcXnxKVC+3D0kUq8Cpsgtpm2PUv9OeMSHH1NvCI4S0tj76tjsR8urthbTmLxdeGUvP67+PhJc9Spivc2GhXxFO7U7+j7tw/XcQ2ND/THHJhAkOp2jLgPoJwyhrVvR1ZPCUJ82lhwy2/pTdLChJyNvG8Vg5UjwPooiQwJT9OZRgueI2vq1YGhjnEunkCLBUe/lUYJJonLcNMbtVOdPAVOUqO04GXzYdRGqf51k9OnYbHEN9bCBb0dqc3F/eCyiND6g9tUxUTuxw9yOftW3Vyw1fAwdRv9q3q6JelDl00iXenirFpad5V4/z2X4NSyG4HQsu4xd7c1qP7+nyPPnO+h2yl98SMRIpPg1Ls7T71tpW+wycK5YfKxj6Eby8Sewv5z6iPhMCwm7Qd4V37B3xVfELTxMhu/GyXAXaEd0yygZSS0oTHoUw2Tos/RZgYDlqO422u4nPEyGxKMtYtZLwsMG2qkzhUEyyNhieBi6/jzV60B/D242vR7qX8+oSwAY9kA45BctlRDBoqkEgKHj2WwIgJqXilK9ep0hD6yjk/psCGPN2zWJLKezsRYvJiPh+bjg6WTPLcIx8nSm9qp8KwuOXwrpQH/v/dhHeJiRNB1BgBcPnnsN23/ShZ/QIsJTPSI+8q54/a+GPLUb9654uqMm76CXs8rsxQlvacjT8BcLj3AFLVctx1PFdaY/RDbdbrzEjQSJRK+NPAbrOLYiQZ6C+yVv1D9aEuax2gsfs0twC+RH/KylDR0viWV461q9Tl4Lh8nMPtelXS81EB8SB3daTIlwWiBYyFrQEbtkZdKtIy/KfCGlcEMQ8ZktsIc1o98Vz6Ec96S/Wnzme2oKCVSeDK7/20jJePe0V2l4NewRkadjHUc/eQ0pNc/iEiASLdexmguVnwq5JI0XiYv1tlU6LvKCMrTNRR3adVOP15VPEw7hkaez5SQvt2LncDO6YpdFgG4gIj7yrng3tF/d3hVfDjKYSng84aCifFcy6v5iwfNF+k8maDnyUjLHed7G5/c7PT9FlENW5vuwejhN24MKbZHXUc6jov5kyDuKJrRnQetZUF2uvtQAEpbU8XZ0cDs9axFW6/ozpl7t2oycxcjNKD5eSIyGxiaxcbHPD1MjnXQElb23ZU+8hffeG8J7z6/XW4RqEPGRd8V7qN+74rFuD/bxxfreW3iCZ2lNlAdCd+xOBhYJx9afurO1FKNIHSAjztttA0oiwxPgHfRZgaDlOJPrj8iQ0CSMEB9nyfE6f+b2vKJUpxFCoz6zcOWNcjyh32tkuimoXLhnFNmk3fYohvtHqa6txjEzfNy8/9R/zMqeTmjLWsS3RpE77vUc69euQqUq0+GSAS8Jv5Le9jhaJ7GGPJAD665YWW11gJMRDhiZbgrqQ1d7E05fLA7nRdZ3IzIyUPwbJQ/r1rLCjuD3v5fX4k4FyXaTd8U37F3xSnzoLnEZX7DbH8cb5/R2G48AWOm/QJcSoBQGjYy0UinUiS1kUI8XsuOClrMz4aK2QSYPgTPa7El1J5WZJ94rpFqrbDLy4rLsEVF9qhyJa6qf6quQks3lMnTcg/2F8Jc3jdqBvBo7ddoNZ9ttJQ+NEy5KJAbUpV2LSqnKHe1XsCOmU6jRhOxoC/aea0aWkwv4CQf0mUWzTsF2p1SfHrYSBYpeWGlivLzSyoRrwelWEqD2SavdsSYcO7cI79jZbwb+qeIedKYbfv84tr8x3QmuuYmIj7wrXhBqTCf2DL0BlEq3vplRadbLsb9rZ9lXS3PIbd/aJLZvfw3eeyghGBJ2EwShxqTx3HPH0Znwc5tubhLbngb2HywrPMy5Nx7HT0R4poU84cDGCGMJgiAI9WVuh90EQRCEG4KE3QRBEISGI+IjCIIgNBwRH0EQBKHhiPgIgiAIDUfERxAEQWg49Rcf/tHW0Cm8uWeLfvC/IAiCMNepv/iMHMDPup5AMvI0tsnz9wRBEASiQWG3WrxcShAEQZgtyJyPIAiC0HBEfARBEISG01DxKfuOD0EQBGHO0DDxSe4/CGx7A4N7Zt6TbgVBEITa0jDxsR5V/gTiz5nv9BUEQRDmIg0Nu6VHyr3kXhAEQZgrSMKBIAiC0HBEfARBEISG0yDx6UQkIj80FQRBECzqLz7q2W5vYBsGsF/ERxAEQSDkNdqCIAhCw5E5H0EQBKHhiPgIgiAIDUfERxAEQWg4Ij6CIAhCwxHxEQRBEBqOiI8gCILQcER8BEEQhAYD/H8Gn5IYJKBE7QAAAABJRU5ErkJggg==;" vertex="1" parent="1">
          <mxGeometry x="1190" y="717.8199999999999" width="441.28" height="177.58" as="geometry" />
        </mxCell>
        <mxCell id="Xce9fqfD_rUZ55vbkONO-14" value="" style="html=1;labelBackgroundColor=#ffffff;startArrow=none;startFill=0;startSize=6;endArrow=classic;endFill=1;endSize=6;jettySize=auto;orthogonalLoop=1;strokeWidth=1;dashed=1;fontSize=14;rounded=0;entryX=0.5;entryY=1;entryDx=0;entryDy=0;exitX=0.315;exitY=0.015;exitDx=0;exitDy=0;exitPerimeter=0;" edge="1" parent="1" source="Xce9fqfD_rUZ55vbkONO-9" target="Xce9fqfD_rUZ55vbkONO-6">
          <mxGeometry width="60" height="60" relative="1" as="geometry">
            <mxPoint x="180" y="280" as="sourcePoint" />
            <mxPoint x="240" y="220" as="targetPoint" />
          </mxGeometry>
        </mxCell>
        <mxCell id="Xce9fqfD_rUZ55vbkONO-15" value="" style="html=1;labelBackgroundColor=#ffffff;startArrow=none;startFill=0;startSize=6;endArrow=classic;endFill=1;endSize=6;jettySize=auto;orthogonalLoop=1;strokeWidth=1;dashed=1;fontSize=14;rounded=0;entryX=0.63;entryY=0.984;entryDx=0;entryDy=0;exitX=0.478;exitY=-0.001;exitDx=0;exitDy=0;entryPerimeter=0;exitPerimeter=0;" edge="1" parent="1" source="Xce9fqfD_rUZ55vbkONO-11" target="Xce9fqfD_rUZ55vbkONO-8">
          <mxGeometry width="60" height="60" relative="1" as="geometry">
            <mxPoint x="1172" y="311" as="sourcePoint" />
            <mxPoint x="1170" y="205" as="targetPoint" />
            <Array as="points">
              <mxPoint x="1400" y="640" />
              <mxPoint x="1224" y="640" />
            </Array>
          </mxGeometry>
        </mxCell>
        <mxCell id="Xce9fqfD_rUZ55vbkONO-16" value="" style="html=1;labelBackgroundColor=#ffffff;startArrow=none;startFill=0;startSize=6;endArrow=classic;endFill=1;endSize=6;jettySize=auto;orthogonalLoop=1;strokeWidth=1;dashed=1;fontSize=14;rounded=0;" edge="1" parent="1" target="Xce9fqfD_rUZ55vbkONO-8">
          <mxGeometry width="60" height="60" relative="1" as="geometry">
            <mxPoint x="870" y="710" as="sourcePoint" />
            <mxPoint x="1110" y="205" as="targetPoint" />
            <Array as="points">
              <mxPoint x="870" y="640" />
              <mxPoint x="1120" y="640" />
              <mxPoint x="1120" y="460" />
            </Array>
          </mxGeometry>
        </mxCell>
        <mxCell id="Xce9fqfD_rUZ55vbkONO-17" value="" style="endArrow=classic;html=1;rounded=0;entryX=0.356;entryY=0.984;entryDx=0;entryDy=0;entryPerimeter=0;exitX=1;exitY=0.5;exitDx=0;exitDy=0;" edge="1" parent="1" source="Xce9fqfD_rUZ55vbkONO-9" target="Xce9fqfD_rUZ55vbkONO-8">
          <mxGeometry width="50" height="50" relative="1" as="geometry">
            <mxPoint x="950" y="330" as="sourcePoint" />
            <mxPoint x="1080" y="230" as="targetPoint" />
            <Array as="points">
              <mxPoint x="1010" y="500" />
            </Array>
          </mxGeometry>
        </mxCell>
      </root>
    </mxGraphModel>
  </diagram>
</mxfile>
